<svg width="362" height="362" viewBox="0 0 362 362" fill="none" xmlns="http://www.w3.org/2000/svg">
<path d="M177.58 132.221L177.115 126.268L176.378 116.828L176.208 114.648C176.209 114.536 176.236 114.425 176.286 114.325C176.336 114.225 176.409 114.137 176.498 114.069C176.587 114.001 176.691 113.955 176.801 113.933C176.911 113.911 177.024 113.915 177.133 113.943L182.327 115.377L190.662 117.679L192.574 118.207C192.696 118.239 192.808 118.303 192.898 118.393C192.988 118.483 193.052 118.595 193.084 118.717L194.486 128.78L194.682 130.186C194.727 130.373 194.699 130.57 194.604 130.737C194.51 130.903 194.355 131.028 194.171 131.085C193.985 131.135 193.786 131.11 193.617 131.014C193.449 130.919 193.325 130.761 193.273 130.575L191.871 120.512L191.675 119.106L192.185 119.616L186.991 118.182L178.656 115.881L176.744 115.353L177.669 114.648L178.134 120.602L178.871 130.042L179.041 132.222C179.115 133.159 177.653 133.155 177.58 132.221Z" fill="black"/>
<path d="M176.434 117.318C175.71 115.224 174.649 113.262 173.293 111.51C172.127 109.922 170.829 108.417 169.831 106.714C168.987 105.274 168.292 103.607 168.436 101.908C168.642 100.166 169.085 98.461 169.754 96.8397C170.17 95.7315 170.623 94.6304 171.135 93.5623C171.199 93.4522 171.291 93.361 171.402 93.2975C171.513 93.234 171.638 93.2005 171.766 93.2003L181.473 92.5943L196.918 91.6302L200.424 91.4113C200.552 91.4094 200.678 91.4419 200.789 91.5057C200.9 91.5694 200.992 91.6618 201.055 91.7733C201.561 92.8302 201.992 93.9286 202.399 95.0264C203.296 97.4114 203.99 99.8681 204.473 102.37C205.028 105.326 205.262 108.382 204.727 111.359C204.198 114.299 202.766 117 200.373 118.834C197.218 121.251 193.013 121.83 189.147 121.774C188.482 121.765 187.817 121.734 187.154 121.689C186.22 121.625 186.213 120.163 187.154 120.227C189.455 120.427 191.773 120.329 194.05 119.937C195.712 119.657 197.306 119.064 198.747 118.19C199.348 117.829 199.901 117.395 200.393 116.896C200.64 116.653 200.875 116.397 201.096 116.129C201.149 116.065 201.201 116.001 201.252 115.935C201.161 116.052 201.299 115.872 201.326 115.836C201.435 115.687 201.541 115.535 201.642 115.38C201.827 115.097 201.998 114.806 202.156 114.507C202.232 114.362 202.304 114.216 202.374 114.068C202.409 113.994 202.442 113.92 202.476 113.845C202.493 113.808 202.509 113.77 202.525 113.733C202.56 113.652 202.482 113.839 202.535 113.709C202.79 113.079 202.997 112.429 203.153 111.767C203.234 111.422 203.304 111.073 203.361 110.722C203.374 110.639 203.386 110.556 203.399 110.473C203.406 110.432 203.411 110.39 203.417 110.348C203.414 110.376 203.398 110.496 203.417 110.354C203.439 110.175 203.46 109.997 203.477 109.818C203.546 109.104 203.576 108.387 203.569 107.669C203.563 106.956 203.524 106.242 203.459 105.532C203.425 105.166 203.383 104.801 203.336 104.436C203.321 104.316 203.348 104.51 203.319 104.31C203.307 104.225 203.295 104.14 203.282 104.054C203.255 103.874 203.227 103.694 203.197 103.514C202.762 100.979 202.103 98.4874 201.227 96.0687C200.93 95.234 200.612 94.4077 200.271 93.5898C200.179 93.3671 200.316 93.6917 200.242 93.52C200.212 93.4506 200.183 93.381 200.153 93.3116C200.103 93.198 200.054 93.0847 200.004 92.9716C199.934 92.8389 199.872 92.7025 199.818 92.5631C199.811 92.5452 199.803 92.5279 199.793 92.5111L200.424 92.8731L190.716 93.4791L175.272 94.4432L171.766 94.6621L172.397 94.3001C171.987 95.1559 171.678 95.8978 171.341 96.7635C170.691 98.299 170.22 99.9042 169.937 101.547C169.722 103.076 170.228 104.475 171.037 105.88C171.979 107.515 173.207 108.963 174.332 110.471C175.855 112.413 177.041 114.596 177.843 116.93C178.13 117.828 176.719 118.213 176.434 117.318L176.434 117.318Z" fill="black"/>
<path d="M179.974 107.12C179.966 107.101 179.958 107.081 179.95 107.061C179.939 107.034 179.991 107.158 179.952 107.068C179.938 107.034 179.923 107 179.908 106.966C179.821 106.769 179.73 106.573 179.634 106.378C179.36 105.806 179.042 105.256 178.684 104.731C178.509 104.472 178.311 104.229 178.093 104.004C177.909 103.797 177.687 103.627 177.439 103.501C177.427 103.495 177.348 103.46 177.384 103.474C177.419 103.489 177.341 103.459 177.327 103.455C177.266 103.435 177.204 103.419 177.141 103.407C177.071 103.392 177.193 103.407 177.122 103.405C177.093 103.405 177.064 103.402 177.035 103.402C177.006 103.403 176.977 103.405 176.948 103.407C177.023 103.402 176.947 103.407 176.915 103.414C176.747 103.453 176.59 103.526 176.452 103.63C176.438 103.641 176.335 103.746 176.348 103.729C176.327 103.759 176.307 103.791 176.289 103.823C176.262 103.871 176.286 103.811 176.264 103.881C176.232 103.992 176.226 104.109 176.245 104.223C176.262 104.299 176.283 104.374 176.307 104.448C176.32 104.483 176.333 104.519 176.348 104.554C176.321 104.491 176.358 104.575 176.368 104.595C176.422 104.704 176.482 104.81 176.549 104.911C176.571 104.944 176.594 104.975 176.616 105.007C176.662 105.076 176.587 104.971 176.592 104.977C176.658 105.047 176.695 105.14 176.695 105.236C176.695 105.332 176.658 105.424 176.592 105.494C176.524 105.562 176.431 105.6 176.334 105.6C176.237 105.6 176.145 105.562 176.076 105.494C175.726 105.093 175.524 104.584 175.503 104.052C175.522 103.851 175.581 103.657 175.675 103.479C175.77 103.301 175.899 103.144 176.055 103.016C176.211 102.889 176.391 102.793 176.584 102.736C176.777 102.678 176.98 102.659 177.18 102.68C177.889 102.757 178.458 103.278 178.893 103.806C179.363 104.39 179.77 105.023 180.106 105.693C180.314 106.095 180.509 106.506 180.678 106.926C180.704 107.019 180.691 107.119 180.643 107.203C180.595 107.287 180.516 107.349 180.423 107.375C180.33 107.399 180.231 107.385 180.147 107.338C180.064 107.29 180.002 107.213 179.974 107.12Z" fill="black"/>
<path d="M162.96 131.513L162.677 125.442C162.548 122.666 160.28 120.393 157.304 120.057L117.717 115.803L120.501 125.17L116.198 138.081L156.51 134.094" fill="#1DFFC4"/>
<path d="M162.229 131.513L161.977 126.091C161.988 125.126 161.755 124.173 161.298 123.323C160.884 122.656 160.329 122.086 159.674 121.654C159.018 121.221 158.276 120.936 157.5 120.818C156.931 120.722 156.349 120.686 155.776 120.624L151.552 120.17L138.5 118.767L124.944 117.31L120.168 116.797C119.394 116.714 118.589 116.686 117.824 116.545C117.789 116.539 117.752 116.537 117.717 116.534L118.421 115.609L119.685 119.859C120.181 121.527 120.737 123.189 121.176 124.873C121.239 125.2 121.194 125.538 121.048 125.837L120.366 127.884L118.298 134.09L116.902 138.276L116.198 137.351L120.196 136.955L129.846 136.001L141.477 134.85L151.536 133.855L154.855 133.527C155.38 133.475 155.915 133.387 156.442 133.37C156.465 133.369 156.487 133.366 156.51 133.363C156.703 133.365 156.888 133.442 157.025 133.579C157.162 133.716 157.239 133.901 157.24 134.094C157.236 134.287 157.158 134.47 157.022 134.606C156.886 134.743 156.702 134.821 156.51 134.825L152.511 135.22L142.862 136.175L131.23 137.325L121.171 138.32L117.852 138.648C117.327 138.7 116.792 138.789 116.265 138.805C116.243 138.806 116.22 138.81 116.198 138.812C116.085 138.811 115.975 138.785 115.874 138.735C115.774 138.684 115.686 138.612 115.618 138.523C115.55 138.433 115.504 138.329 115.482 138.219C115.46 138.109 115.464 137.996 115.493 137.887L119.258 126.592L119.797 124.976V125.364L117.364 117.179L117.012 115.997C116.983 115.889 116.979 115.775 117.001 115.665C117.023 115.555 117.07 115.451 117.138 115.362C117.206 115.273 117.293 115.2 117.394 115.15C117.494 115.1 117.604 115.073 117.717 115.072L123.768 115.722L137.151 117.161L150.709 118.618C152.902 118.854 155.097 119.073 157.287 119.325C160.475 119.692 163.2 122.074 163.405 125.381C163.518 127.216 163.576 129.056 163.662 130.893L163.691 131.513C163.734 132.453 162.273 132.451 162.229 131.513Z" fill="black"/>
<path d="M352.95 209.638L91.4596 180.653L116.469 219.355L352.95 209.638Z" fill="black"/>
<path d="M352.95 210.369L345.952 209.593L326.909 207.482L298.744 204.36L264.383 200.551L226.88 196.394L188.896 192.184L153.48 188.258L123.646 184.952L102.051 182.558L95.3855 181.819C94.2449 181.693 93.0216 181.674 91.8984 181.432C91.757 181.402 91.6039 181.4 91.4596 181.384L92.0906 180.284L100.556 193.384L113.982 214.16L117.1 218.986L116.469 218.624L122.83 218.362L139.97 217.658L165.501 216.609L196.539 215.334L230.531 213.937L264.842 212.527L296.835 211.213L323.875 210.102L343.325 209.303C346.4 209.176 349.485 208.968 352.562 208.923C352.691 208.921 352.821 208.913 352.95 208.907C353.89 208.869 353.889 210.33 352.95 210.369L343.984 210.737L320.121 211.718L285.917 213.123L246.057 214.761L204.958 216.449L167.024 218.008L136.938 219.244L119.257 219.971C118.399 220.006 117.348 220.219 116.494 220.084C115.779 219.971 115.423 219.081 115.06 218.518L111.797 213.469L92.2943 183.29L90.8287 181.022C90.5485 180.588 90.9084 179.861 91.4597 179.922L98.4575 180.698L117.501 182.809L145.666 185.931L180.027 189.74L217.53 193.897L255.514 198.107L290.93 202.033L320.764 205.34L342.359 207.733C345.743 208.108 349.128 208.474 352.511 208.859C352.657 208.875 352.804 208.891 352.95 208.907C353.875 209.01 353.885 210.472 352.95 210.369Z" fill="black"/>
<path d="M91.4596 180.653L125.449 148.433L352.95 209.638L91.4596 180.653Z" fill="#8066FF"/>
<path d="M90.943 180.136L112.53 159.673L123.683 149.101C124.206 148.605 124.869 147.668 125.653 147.731C125.896 147.774 126.135 147.838 126.367 147.923L139.49 151.453L165.839 158.542L200.718 167.925L240.151 178.534L279.382 189.089L314.13 198.437L340.061 205.414L352.601 208.787L353.144 208.933C353.913 209.14 353.79 210.462 352.95 210.369L345.952 209.593L326.908 207.482L298.744 204.36L264.383 200.551L226.879 196.394L188.896 192.184L153.48 188.258L123.645 184.952L102.05 182.558C98.6665 182.183 95.281 181.817 91.8983 181.432C91.752 181.416 91.6057 181.4 91.4595 181.384C90.5349 181.281 90.5245 179.819 91.4595 179.922L98.4573 180.698L117.501 182.809L145.666 185.931L180.027 189.74L217.53 193.897L255.514 198.107L290.93 202.033L320.764 205.34L342.359 207.733L349.024 208.472C350.166 208.599 351.386 208.62 352.511 208.859C352.653 208.889 352.806 208.891 352.95 208.907L352.756 210.343L346.673 208.706L330.12 204.253L305.637 197.666L275.764 189.63L243.043 180.826L210.014 171.94L179.217 163.655L153.194 156.654L134.485 151.621L128.668 150.055C127.641 149.839 126.628 149.566 125.631 149.239C125.508 149.198 125.382 149.164 125.255 149.137L125.966 148.949L114.473 159.844L96.1645 177.2L91.9765 181.17C91.294 181.817 90.2587 180.785 90.943 180.136Z" fill="black"/>
<path d="M197.851 160.298L241.078 185.308C251.964 189.793 262.769 183.178 267.535 173.317L289.629 127.609L271.125 118.407L248.579 165.579L214.323 138.838C211.216 136.413 207.322 135.221 203.389 135.493L194.369 136.116" fill="#A8542A"/>
<path d="M198.22 159.667L203.796 162.893L216.59 170.295L230.7 178.46L240.227 183.971C241.039 184.474 241.91 184.875 242.819 185.167C246.662 186.379 250.804 186.249 254.563 184.798C260.29 182.616 264.525 177.87 267.143 172.455L271.198 164.066L278.075 149.837L284.904 135.709L288.813 127.622L288.998 127.24L289.26 128.239L283.023 125.138L273.036 120.172L270.756 119.038L271.756 118.776L269.51 123.474L264.118 134.756L257.598 148.398L251.982 160.149L250.125 164.032C249.835 164.64 249.573 165.275 249.249 165.866C249.235 165.892 249.223 165.92 249.21 165.948C248.985 166.417 248.399 166.358 248.062 166.096L242.44 161.707L230.297 152.228L218.486 143.008L214.834 140.157C213.845 139.337 212.784 138.608 211.665 137.978C209.61 136.88 207.33 136.27 205.001 136.194C204.034 136.184 203.066 136.224 202.102 136.313L194.92 136.809L194.37 136.847C193.431 136.912 193.435 135.45 194.37 135.385L200.502 134.962C201.422 134.898 202.343 134.834 203.263 134.771C205.133 134.638 207.012 134.815 208.824 135.296C211.183 135.971 213.38 137.118 215.282 138.667L218.259 140.991L229.574 149.823L242.164 159.651L246.729 163.215C247.479 163.8 248.279 164.352 248.992 164.981C249.024 165.01 249.061 165.035 249.095 165.062L247.948 165.21L250.194 160.511L255.586 149.23L262.106 135.588L267.722 123.837L269.578 119.954C269.869 119.346 270.131 118.711 270.455 118.12C270.469 118.094 270.481 118.066 270.494 118.038C270.594 117.874 270.754 117.754 270.941 117.705C271.127 117.656 271.326 117.682 271.494 117.776L277.731 120.878L287.718 125.844L289.998 126.978C290.162 127.078 290.281 127.238 290.33 127.425C290.379 127.611 290.354 127.809 290.26 127.978L287.451 133.789L280.987 147.161L273.833 161.962L268.893 172.182C268.61 172.768 268.331 173.357 268.042 173.94C266.187 177.691 263.46 180.942 260.089 183.42C256.827 185.844 252.921 187.248 248.863 187.457C246.734 187.535 244.606 187.253 242.571 186.62C241.858 186.433 241.167 186.166 240.513 185.825L233.182 181.584L219.59 173.72L205.794 165.738L197.855 161.145L197.482 160.929C196.668 160.458 197.403 159.195 198.22 159.667Z" fill="black"/>
<path d="M203.389 135.493C207.322 135.221 211.216 136.413 214.323 138.838L248.579 165.579L264.216 132.864C266.702 134.733 270.377 136.872 274.633 138.825C277.503 140.143 288.809 141.861 291.236 142.618L280.164 179.374C276.06 192.083 263.244 199.877 243.077 190.707L198.115 166.507L194.369 136.116L203.389 135.493Z" fill="#FF4569"/>
<path d="M203.389 134.762C207.393 134.506 211.357 135.693 214.562 138.107C215.013 138.45 215.456 138.803 215.903 139.151L223.227 144.869L233.987 153.268L243.984 161.072L247.386 163.728C247.925 164.149 248.52 164.542 249.023 165.006C249.046 165.027 249.072 165.044 249.096 165.062L247.948 165.21L249.497 161.968L253.24 154.137L257.75 144.702L261.651 136.54C262.281 135.222 262.837 133.823 263.558 132.551C263.568 132.533 263.576 132.513 263.584 132.495C263.683 132.328 263.843 132.206 264.03 132.157C264.218 132.108 264.417 132.135 264.584 132.233C266.59 133.703 268.705 135.019 270.91 136.169C272.252 136.885 273.616 137.566 275.001 138.194C275.03 138.207 275.2 138.279 275.033 138.21C275.089 138.233 275.146 138.256 275.203 138.278C275.308 138.317 275.412 138.356 275.517 138.392C275.837 138.504 276.162 138.602 276.487 138.696C279.977 139.696 283.59 140.282 287.148 140.976C288.591 141.213 290.02 141.526 291.43 141.913C291.616 141.967 291.773 142.091 291.868 142.259C291.963 142.427 291.989 142.625 291.941 142.812L290.954 146.088L288.545 154.085L285.543 164.052L282.775 173.241L281.069 178.903C280.388 181.239 279.385 183.47 278.089 185.53C276.031 188.787 273.125 191.421 269.681 193.149C265.779 195.065 261.379 195.685 257.068 195.345C254.412 195.121 251.787 194.612 249.239 193.829C246.982 193.182 244.785 192.342 242.672 191.318C241.705 190.83 240.761 190.29 239.807 189.776L233.374 186.313L224.803 181.7L215.526 176.708L206.975 172.105L200.58 168.664C199.653 168.164 198.67 167.713 197.776 167.155C197.358 166.893 197.367 166.37 197.312 165.926L197.006 163.438L195.916 154.599L194.654 144.353L193.768 137.167L193.639 136.116C193.588 135.705 194.016 135.41 194.369 135.386L202.273 134.839L203.389 134.762C204.328 134.697 204.324 136.159 203.389 136.224L195.486 136.77L194.369 136.847L195.1 136.116L196.373 146.447L198.385 162.774L198.845 166.507L198.483 165.876L203.879 168.78L216.431 175.536L230.649 183.188L241.16 188.845C241.888 189.237 242.61 189.64 243.343 190.02C244.412 190.545 245.511 191.006 246.634 191.402C248.727 192.2 250.878 192.835 253.069 193.3C259.605 194.661 266.683 194.062 272.138 189.921C275.807 187.136 278.293 183.051 279.61 178.68L282.675 168.506L287.316 153.097L290.378 142.935L290.532 142.423L291.042 143.322C289.803 142.979 288.547 142.7 287.279 142.487C285.43 142.124 283.578 141.775 281.731 141.402C279.988 141.049 278.243 140.689 276.526 140.224C274.701 139.67 272.939 138.927 271.27 138.005C268.673 136.713 266.19 135.204 263.847 133.495L264.846 133.233L263.297 136.475L259.554 144.306L255.045 153.741L251.143 161.903C250.514 163.221 249.957 164.62 249.237 165.892C249.227 165.91 249.219 165.929 249.21 165.948C248.986 166.417 248.399 166.358 248.062 166.096L243.977 162.906L234.462 155.479L223.663 147.049L215.624 140.774C215.051 140.326 214.478 139.879 213.904 139.431C211.703 137.724 209.084 136.639 206.32 136.291C205.347 136.18 204.366 136.158 203.389 136.224C202.45 136.284 202.454 134.822 203.389 134.762Z" fill="black"/>
<path d="M291.35 142.56C290.807 143.743 287.374 143.421 282.692 141.961L285.355 136.451C289.452 139.024 291.888 141.387 291.35 142.56Z" fill="black"/>
<path d="M291.981 142.929C291.427 144.048 289.788 144.059 288.731 143.994C286.608 143.799 284.515 143.354 282.497 142.666C282.391 142.634 282.293 142.579 282.21 142.504C282.128 142.429 282.063 142.337 282.022 142.234C281.98 142.131 281.961 142.02 281.968 141.909C281.975 141.798 282.007 141.69 282.061 141.592L284.724 136.082C284.823 135.916 284.983 135.795 285.171 135.746C285.358 135.697 285.556 135.724 285.724 135.82C287.494 136.936 289.299 138.144 290.754 139.664C291.575 140.521 292.505 141.691 291.981 142.929C291.882 143.095 291.722 143.216 291.535 143.265C291.348 143.314 291.149 143.288 290.981 143.191C290.818 143.09 290.699 142.93 290.651 142.744C290.602 142.557 290.626 142.36 290.719 142.191C290.643 142.371 290.687 142.259 290.697 142.213C290.716 142.125 290.692 142.38 290.693 142.243C290.693 142.201 290.691 142.159 290.69 142.118C290.686 142.029 290.734 142.291 290.687 142.128C290.671 142.076 290.61 141.881 290.63 141.933C290.666 142.022 290.594 141.858 290.586 141.841C290.558 141.789 290.531 141.737 290.501 141.686C290.203 141.208 289.839 140.773 289.42 140.395C288.06 139.14 286.575 138.03 284.986 137.082L285.986 136.82L283.323 142.33L282.886 141.257C284.679 141.866 286.531 142.286 288.411 142.508C288.745 142.539 289.081 142.554 289.416 142.55C289.561 142.548 289.706 142.54 289.85 142.529C289.927 142.529 290.003 142.519 290.077 142.499C290.189 142.477 290.298 142.449 290.407 142.418C290.457 142.404 290.505 142.386 290.553 142.366C290.404 142.428 290.528 142.372 290.559 142.355C290.598 142.333 290.635 142.309 290.672 142.285C290.606 142.329 290.578 142.337 290.659 142.289C290.736 142.242 290.706 142.242 290.651 142.311C290.678 142.274 290.701 142.233 290.719 142.191C291.136 141.348 292.397 142.088 291.981 142.929Z" fill="black"/>
<path d="M266.385 128.325L271.125 118.407L290.431 123.15L287.751 133.381L285.315 142.88C282.889 142.123 277.503 140.143 274.632 138.825C270.377 136.872 266.702 134.733 264.215 132.864L266.385 128.325Z" fill="#F8F5ED"/>
<path d="M265.754 127.956L269.9 119.281L270.494 118.038C270.576 117.9 270.702 117.793 270.85 117.732C270.999 117.672 271.164 117.661 271.319 117.703L277.863 119.31L288.239 121.859L290.625 122.446C290.81 122.5 290.967 122.624 291.063 122.791C291.158 122.959 291.184 123.158 291.135 123.344L288.875 131.976C288.268 134.293 287.676 136.615 287.082 138.935L286.02 143.074C285.967 143.26 285.843 143.417 285.675 143.513C285.507 143.608 285.308 143.634 285.121 143.585C282.489 142.76 279.896 141.781 277.335 140.757C274.232 139.522 271.221 138.068 268.325 136.406C266.776 135.525 265.28 134.553 263.847 133.495C263.685 133.392 263.568 133.232 263.519 133.046C263.47 132.861 263.494 132.664 263.585 132.495L265.754 127.956C266.16 127.108 267.42 127.848 267.016 128.693L264.847 133.233L264.585 132.233C269.669 136.04 275.583 138.625 281.515 140.796C282.838 141.28 284.166 141.755 285.51 142.176L284.611 142.686L286.816 134.086C287.43 131.689 288.065 129.297 288.692 126.903L289.726 122.956L290.236 123.855L283.693 122.247L273.317 119.698L270.931 119.112L271.756 118.776L267.61 127.451L267.016 128.693C266.611 129.542 265.35 128.801 265.754 127.956Z" fill="black"/>
<path d="M287.264 135.573L289.543 127.516L287.908 111.754C287.908 111.754 285.116 105.967 290.834 102.184C284.851 93.0227 275.395 95.5615 274.107 104.405C273.581 108.012 272.985 111.019 272.464 113.316C271.794 116.268 270.794 119.136 269.483 121.865L267.557 125.873" fill="#F8F5ED"/>
<path d="M286.559 135.378L287.919 130.572L288.691 127.84C288.729 127.666 288.778 127.495 288.837 127.326C288.619 127.325 288.861 127.612 288.807 127.467C288.794 127.406 288.787 127.343 288.788 127.281L287.603 115.867L287.177 111.754L287.276 112.123C286.709 110.913 286.44 109.585 286.494 108.25C286.547 106.915 286.921 105.613 287.584 104.453C288.32 103.287 289.304 102.297 290.465 101.553L290.203 102.552C288.561 100.06 286.202 97.7948 283.165 97.2519C282.036 97.0626 280.879 97.1668 279.802 97.5542C278.726 97.9417 277.767 98.5994 277.019 99.4643C274.791 101.958 274.726 105.449 274.167 108.571C273.465 112.491 272.612 116.375 271.08 120.065C270.209 122.163 269.171 124.195 268.188 126.242C267.78 127.09 266.52 126.349 266.926 125.505C267.737 123.816 268.584 122.14 269.346 120.428C271.052 116.595 271.972 112.522 272.717 108.412C272.917 107.305 273.102 106.197 273.271 105.085C273.381 104.208 273.55 103.338 273.778 102.484C274.186 101.066 274.884 99.7489 275.827 98.6145C276.668 97.6073 277.741 96.8192 278.953 96.3178C280.166 95.8165 281.482 95.6169 282.789 95.7362C286.536 96.1249 289.469 98.7842 291.465 101.815C291.559 101.983 291.585 102.181 291.536 102.368C291.487 102.554 291.368 102.715 291.203 102.815C289.563 103.916 288.332 105.49 288.023 107.473C287.975 107.818 287.953 108.166 287.957 108.515C287.959 108.693 287.966 108.871 287.979 109.049C287.985 109.127 287.992 109.206 288 109.284C288.004 109.32 288.031 109.539 288.016 109.429C288.089 109.954 288.212 110.47 288.382 110.971C288.432 111.118 288.492 111.26 288.545 111.406C288.421 111.066 288.621 111.633 288.625 111.657C288.659 111.824 288.664 112.001 288.682 112.17L288.981 115.053L289.9 123.913L290.217 126.965C290.269 127.398 290.227 127.837 290.094 128.252L288.025 135.569L287.969 135.767C287.713 136.671 286.303 136.287 286.559 135.378Z" fill="black"/>
<path d="M279.178 106.577C278.872 103.519 281.22 97.1133 282.621 92.2033C284.021 87.2933 280.664 85.128 278.091 89.6594C274.885 95.5067 273.801 104.518 273.489 108.014C273.395 109.074 273.223 110.125 272.975 111.16L272.175 114.504" fill="#F8F5ED"/>
<path d="M278.448 106.577C278.304 105.015 278.676 103.391 279.036 101.882C279.505 99.911 280.105 97.9726 280.701 96.0372C281.005 95.0465 281.313 94.0565 281.608 93.063C281.924 92.1693 282.128 91.2398 282.214 90.296C282.275 89.637 282.143 88.9746 281.834 88.389C281.755 88.2255 281.626 88.0913 281.466 88.0058C281.306 87.9203 281.123 87.8879 280.943 87.9132C281.039 87.9051 280.746 87.9596 280.686 87.9793C280.583 88.0155 280.484 88.0623 280.391 88.1191C280.082 88.3068 279.804 88.5421 279.568 88.8163C278.981 89.5262 278.501 90.318 278.142 91.1667C277.342 92.9068 276.696 94.7134 276.21 96.566C275.334 99.8366 274.718 103.172 274.367 106.539C274.226 108.233 273.979 109.915 273.626 111.577L272.88 114.698C272.661 115.612 271.251 115.225 271.47 114.309L272.179 111.347C272.506 109.876 272.736 108.386 272.869 106.885C273.214 103.36 273.837 99.8685 274.73 96.4415C275.245 94.4616 275.927 92.529 276.77 90.6647C277.502 89.0774 278.506 87.1433 280.298 86.57C281.755 86.104 282.986 87.0637 283.442 88.4114C284.066 90.2524 283.389 92.2225 282.855 93.992C282.156 96.3111 281.405 98.6159 280.779 100.957C280.299 102.75 279.737 104.7 279.909 106.577C279.908 106.77 279.83 106.955 279.694 107.092C279.557 107.229 279.372 107.306 279.178 107.307C278.986 107.303 278.802 107.225 278.666 107.089C278.53 106.953 278.452 106.769 278.448 106.577Z" fill="black"/>
<path d="M276.578 108.13C276.578 108.13 278.594 95.8482 283.424 88.9509C286.476 84.7273 289.577 87.2459 287.649 91.9736C285.72 96.7013 282.948 104.492 282.919 107.565" fill="#F8F5ED"/>
<path d="M275.874 107.935C276.153 106.239 276.542 104.556 276.963 102.89C277.805 99.4039 278.972 96.0043 280.449 92.736C281.195 90.9941 282.169 89.3591 283.345 87.874C284.342 86.7003 286.098 85.4573 287.653 86.3922C289.144 87.289 289.124 89.3947 288.773 90.8747C288.509 91.7982 288.18 92.702 287.789 93.5791C287.427 94.5004 287.076 95.4258 286.736 96.3552C285.97 98.4446 285.248 100.553 284.633 102.692C284.177 104.282 283.675 105.968 283.65 107.565C283.636 108.505 282.174 108.508 282.189 107.565C282.263 106.178 282.503 104.804 282.902 103.474C283.373 101.673 283.945 99.8998 284.552 98.1414C285.165 96.364 285.819 94.6011 286.513 92.8526C287.06 91.4717 287.999 89.5826 287.305 88.1373C287.275 88.0754 287.241 88.0152 287.205 87.957C287.193 87.9389 287.096 87.8036 287.158 87.8806C287.119 87.8321 286.915 87.6504 286.976 87.6938C286.823 87.5728 286.631 87.5143 286.437 87.5301C285.839 87.5624 285.187 88.0503 284.718 88.5329C283.494 89.7926 282.65 91.5095 281.898 93.0791C280.47 96.1651 279.341 99.3805 278.525 102.681C278.039 104.542 277.595 106.425 277.283 108.324C277.23 108.51 277.106 108.668 276.938 108.763C276.77 108.859 276.571 108.884 276.384 108.834C276.2 108.779 276.044 108.655 275.949 108.487C275.854 108.32 275.827 108.122 275.874 107.935Z" fill="black"/>
<path d="M280.15 109.101C280.15 109.101 282.789 96.9382 287.965 90.2961C291.228 86.2336 294.197 88.9071 292.03 93.5305C289.863 98.1538 286.697 105.793 286.512 108.861" fill="#F8F5ED"/>
<path d="M279.446 108.907C279.811 107.224 280.287 105.56 280.793 103.915C281.806 100.491 283.135 97.1691 284.763 93.9915C285.59 92.3 286.632 90.7222 287.863 89.297C288.905 88.1691 290.683 86.9649 292.226 87.8971C293.703 88.7892 293.65 90.8692 293.258 92.3211C292.941 93.3007 292.546 94.253 292.076 95.1688C291.687 96.0258 291.307 96.887 290.937 97.7523C290.051 99.8219 289.214 101.916 288.483 104.046C287.957 105.577 287.342 107.367 287.243 108.861C287.18 109.794 285.719 109.801 285.781 108.861C285.922 107.479 286.228 106.119 286.692 104.809C287.254 103.035 287.916 101.293 288.612 99.5678C289.324 97.8027 290.074 96.0537 290.864 94.3209C291.48 92.9677 292.536 91.1407 291.86 89.6185C291.78 89.4625 291.675 89.3208 291.549 89.1989C291.395 89.0763 291.2 89.0164 291.004 89.0311C290.423 89.0509 289.78 89.4797 289.305 89.9191C288.017 91.1111 287.091 92.7648 286.259 94.2917C284.669 97.3024 283.372 100.459 282.385 103.718C281.804 105.553 281.264 107.413 280.855 109.295C280.655 110.214 279.246 109.825 279.446 108.907Z" fill="black"/>
<path d="M283.208 110.086C284.455 107.274 285.935 104.571 287.633 102.006C293.624 92.5054 306.061 103.23 306.061 103.23C309.468 106.477 308.143 110.8 303.526 108.395C299.282 106.184 293.202 100.173 291.129 109.339C289.85 114.992 296.124 117.533 299.839 110.114C300.096 109.592 300.513 109.167 301.03 108.9C301.546 108.633 302.135 108.538 302.709 108.631L302.772 108.641C303.397 108.746 303.965 109.067 304.378 109.548C304.79 110.029 305.021 110.64 305.029 111.273C305.085 114.991 299.658 123.31 290.431 125.342L286.777 137.034" fill="#F8F5ED"/>
<path d="M282.503 109.891C282.906 108.905 283.384 107.947 283.874 107.003C284.429 105.936 285.014 104.886 285.631 103.852C286.283 102.677 287.02 101.551 287.835 100.482C288.966 99.0569 290.534 98.043 292.297 97.5956C293.961 97.2368 295.687 97.2816 297.33 97.7264C300.164 98.4254 302.816 99.9046 305.162 101.613C305.653 101.955 306.126 102.322 306.578 102.714C307.926 103.931 309.125 106.048 308.58 107.916C308.027 109.811 305.977 110.107 304.329 109.536C302.691 108.968 301.248 107.886 299.781 106.988C298.495 106.202 297.204 105.413 295.721 105.174C295.206 105.097 294.681 105.157 294.198 105.349C293.605 105.664 293.124 106.154 292.819 106.753C292.3 107.717 291.945 108.762 291.771 109.844C291.624 110.586 291.662 111.354 291.882 112.078C291.972 112.374 292.108 112.654 292.287 112.907C292.348 113.009 292.423 113.103 292.51 113.184C292.559 113.236 292.609 113.287 292.661 113.335C292.691 113.364 292.867 113.513 292.782 113.447C292.893 113.532 293.01 113.608 293.132 113.675C293.235 113.743 293.348 113.795 293.466 113.829C293.731 113.929 294.012 113.978 294.294 113.975C294.972 113.962 295.632 113.759 296.2 113.389C297.006 112.87 297.697 112.192 298.232 111.397C298.942 110.384 299.331 109.147 300.393 108.429C300.885 108.111 301.449 107.922 302.033 107.879C302.617 107.836 303.203 107.94 303.736 108.181C304.274 108.425 304.74 108.804 305.088 109.28C305.437 109.756 305.658 110.314 305.729 110.9C305.789 111.551 305.731 112.207 305.558 112.837C305.15 114.343 304.486 115.767 303.595 117.048C301.246 120.565 297.917 123.317 294.021 124.962C292.923 125.424 291.787 125.787 290.625 126.047L291.135 125.537L287.937 135.773L287.482 137.229C287.202 138.123 285.791 137.741 286.073 136.84L289.271 126.604L289.726 125.148C289.76 125.027 289.825 124.916 289.914 124.826C290.004 124.737 290.115 124.672 290.237 124.638C294.411 123.675 298.165 121.396 300.946 118.137C302.033 116.896 302.933 115.502 303.617 114C303.866 113.437 304.059 112.85 304.194 112.25C304.222 112.123 304.245 111.995 304.265 111.867C304.283 111.754 304.251 111.987 304.264 111.877C304.268 111.847 304.272 111.816 304.274 111.786C304.28 111.718 304.287 111.65 304.291 111.581C304.327 111.207 304.268 110.83 304.122 110.484C303.93 110.084 303.614 109.757 303.22 109.553C302.826 109.349 302.377 109.278 301.939 109.352C300.713 109.567 300.378 110.763 299.792 111.687C298.784 113.276 297.332 114.816 295.445 115.292C294.759 115.48 294.036 115.485 293.348 115.305C292.661 115.126 292.032 114.769 291.526 114.269C290.422 113.138 290.093 111.481 290.287 109.954C290.521 108.119 291.199 105.875 292.662 104.629C293.804 103.657 295.256 103.508 296.67 103.886C298.178 104.289 299.557 105.128 300.871 105.944C302.231 106.788 303.648 107.899 305.227 108.277C305.563 108.362 305.912 108.383 306.256 108.336C306.334 108.32 306.411 108.299 306.486 108.275C306.619 108.232 306.533 108.266 306.624 108.216C306.732 108.17 306.827 108.1 306.902 108.01C306.983 107.929 306.949 107.966 306.967 107.941C307.015 107.873 307.058 107.802 307.096 107.728C307.154 107.618 307.096 107.755 307.137 107.635C307.165 107.551 307.189 107.466 307.208 107.381C307.253 107.095 307.252 106.803 307.203 106.517C306.933 105.341 306.265 104.295 305.312 103.554C305.2 103.463 305.086 103.373 304.971 103.284C304.872 103.205 305.093 103.376 304.986 103.295C304.95 103.268 304.915 103.24 304.878 103.213C304.786 103.143 304.693 103.073 304.6 103.004C304.165 102.682 303.721 102.372 303.268 102.075C302.078 101.284 300.824 100.595 299.519 100.014C296.81 98.8254 293.498 98.1531 290.827 99.7621C288.954 100.891 287.892 102.898 286.813 104.724C285.844 106.344 284.959 108.013 284.161 109.724C284.081 109.897 284.004 110.071 283.928 110.245C283.824 110.481 283.96 110.164 283.913 110.28C283.856 110.463 283.731 110.618 283.564 110.713C283.397 110.808 283.2 110.836 283.014 110.79C282.827 110.738 282.669 110.614 282.574 110.446C282.478 110.277 282.453 110.078 282.503 109.891Z" fill="black"/>
<path d="M159.576 201.119C163.413 217.195 222.907 204.284 222.907 204.284L205.185 142.005C204.568 138.412 199.489 135.76 196.112 135.994L173.575 137.551C169.905 137.804 168.092 139.455 166.889 144.949C166.889 144.949 160 183.126 159.576 201.119Z" fill="#FF4569"/>
<path d="M202.174 136.305L197.672 136.617L187.784 137.3L177.976 137.978C176.459 138.082 174.941 138.17 173.425 138.293C171.785 138.426 170.329 138.979 169.388 140.337C168.407 141.754 167.902 143.54 167.581 145.213C167.297 146.698 167.056 148.193 166.801 149.683C166.241 152.958 165.699 156.235 165.176 159.516C164.492 163.808 163.843 168.104 163.229 172.407C162.582 176.977 161.982 181.554 161.47 186.142C161.01 190.273 160.609 194.415 160.403 198.567C160.36 199.417 160.328 200.268 160.307 201.119L159.945 200.488C164.056 202.274 168.525 203.276 172.94 203.994C177.925 204.767 182.951 205.237 187.993 205.401C192.784 205.591 197.582 205.587 202.374 205.447C206.052 205.339 209.727 205.15 213.398 204.88C214.539 204.795 215.68 204.702 216.82 204.6C217.341 204.552 217.886 204.447 218.41 204.446C218.432 204.445 218.454 204.443 218.476 204.439L217.745 205.17L217.227 193.886L216.88 186.352L216.769 183.93C216.759 183.72 216.746 183.509 216.74 183.299C216.732 183.018 216.705 183.298 216.756 183.328C216.647 183.263 216.562 182.7 216.527 182.585L215.98 180.812L214.154 174.89L209.391 159.439C208.404 156.236 207.348 153.044 206.426 149.821C206.412 149.769 206.395 149.719 206.379 149.668C206.101 148.767 207.512 148.382 207.788 149.28L210.276 157.35L215.058 172.861L218.104 182.741C218.319 183.44 218.246 184.26 218.279 184.982L218.597 191.915L219.195 204.92L219.207 205.17C219.202 205.362 219.124 205.546 218.988 205.682C218.852 205.818 218.668 205.896 218.476 205.901C217.105 206.049 215.73 206.161 214.356 206.269C210.845 206.543 207.329 206.741 203.808 206.862C199.059 207.029 194.303 207.064 189.552 206.917C184.424 206.785 179.308 206.365 174.227 205.66C169.635 204.998 165.025 204.05 160.691 202.363C160.192 202.169 159.698 201.963 159.207 201.75C159.096 201.687 159.003 201.595 158.94 201.484C158.876 201.373 158.843 201.247 158.845 201.119C158.941 197.158 159.278 193.202 159.677 189.261C160.146 184.622 160.725 179.996 161.354 175.376C161.967 170.864 162.628 166.359 163.336 161.861C163.896 158.268 164.48 154.678 165.086 151.092C165.418 149.128 165.757 147.166 166.104 145.205C166.6 142.418 167.599 138.982 170.334 137.61C172.054 136.747 174.1 136.784 175.985 136.654L184.963 136.033L195.444 135.309L201.858 134.866L202.174 134.844C203.113 134.779 203.109 136.241 202.174 136.305Z" fill="black"/>
<path d="M222.205 184.473L235.974 185.279C245.299 185.825 253.471 191.926 256.383 200.802C257.403 203.911 257.626 206.993 256.198 209.473C242.021 212.765 222.274 206.182 222.274 206.182" fill="#FF4569"/>
<path d="M222.205 183.742L233.563 184.407C235.385 184.465 237.202 184.634 239.003 184.916C242.509 185.562 245.824 186.992 248.701 189.098C251.584 191.202 253.948 193.939 255.61 197.098C257.471 200.673 258.899 205.293 257.167 209.176C256.935 209.696 256.737 210.102 256.146 210.234C255.69 210.336 255.232 210.427 254.772 210.508C253.857 210.67 252.935 210.795 252.011 210.891C250.164 211.076 248.308 211.153 246.451 211.12C242.783 211.044 239.125 210.696 235.508 210.077C231.032 209.363 226.615 208.32 222.292 206.956C222.221 206.933 222.15 206.911 222.079 206.887C221.191 206.591 221.572 205.18 222.468 205.478C224.895 206.286 227.392 206.914 229.883 207.484C235.249 208.771 240.735 209.499 246.251 209.656C249.526 209.757 252.801 209.459 256.004 208.769L255.567 209.105C256.798 206.914 256.61 204.323 255.973 201.976C255.409 199.925 254.539 197.971 253.393 196.179C251.226 192.801 248.18 190.077 244.583 188.297C241.749 186.92 238.665 186.132 235.517 185.983L228.504 185.572L222.205 185.204C221.27 185.149 221.264 183.687 222.205 183.742Z" fill="black"/>
<path d="M81.9355 211.896L130.003 285.402L352.95 209.638L104.39 212.304L81.9355 211.896Z" fill="#8066FF"/>
<path d="M82.5664 211.527L98.8069 236.362L124.693 275.947L130.634 285.034L129.809 284.698L135.786 282.666L152.051 277.139L175.997 269.001L205.197 259.078L237.308 248.166L269.723 237.15L299.83 226.919L325.374 218.238L343.675 212.019L349.378 210.081C350.341 209.754 351.38 209.242 352.384 209.06C352.51 209.026 352.635 208.984 352.756 208.933L352.95 210.369L345.046 210.453L323.939 210.68L292.958 211.012L256.106 211.407L216.494 211.832L178.247 212.242L144.454 212.605L119.16 212.876L105.635 213.021C99.2435 213.089 92.84 212.824 86.4502 212.708L81.9355 212.626C80.9961 212.609 80.9931 211.148 81.9355 211.165C89.4795 211.302 97.0341 211.58 104.579 211.571C107.919 211.567 111.261 211.499 114.601 211.463L137.505 211.218L169.395 210.876L207.091 210.471L246.499 210.049L284.54 209.641L317.116 209.291L341.055 209.035C344.851 208.994 348.652 208.895 352.448 208.913C352.616 208.913 352.783 208.909 352.95 208.907C353.801 208.898 353.906 210.084 353.144 210.343L347.167 212.374L330.902 217.901L306.956 226.039L277.756 235.962L245.645 246.874L213.23 257.89L183.123 268.121L157.579 276.802L139.278 283.021C136.381 284.006 133.497 285.088 130.569 285.981C130.444 286.019 130.321 286.065 130.197 286.107C130.042 286.148 129.878 286.137 129.729 286.077C129.58 286.016 129.455 285.909 129.372 285.771L113.132 260.936L87.2459 221.351L81.3044 212.265C80.7882 211.475 82.0531 210.742 82.5664 211.527Z" fill="black"/>
<path d="M122.143 274.013C123.701 267.117 128.874 261.775 135.457 260.264L339.367 213.458L95.1475 232.124L122.143 274.013Z" fill="black" stroke="black" stroke-width="1.3457" stroke-miterlimit="10"/>
<path d="M352.95 209.638C350.496 208.591 71.4854 196.952 71.4854 196.952L9.05002 274.27L352.95 209.638Z" fill="#8066FF"/>
<path d="M352.756 210.343C352.51 210.246 352.63 210.312 352.565 210.303C352.298 210.267 352.028 210.249 351.76 210.226C350.797 210.142 349.833 210.082 348.87 210.02C345.428 209.8 341.984 209.618 338.541 209.438C326.634 208.814 314.723 208.258 302.813 207.706C286.435 206.948 270.056 206.208 253.676 205.489C235.361 204.678 217.045 203.878 198.729 203.089C181.037 202.325 163.344 201.566 145.652 200.813C131.142 200.195 116.633 199.581 102.123 198.969C93.3572 198.6 84.5909 198.232 75.8245 197.864L72.8018 197.738C72.5061 197.726 71.7968 197.834 71.5309 197.685C71.9059 197.895 71.9782 197.176 71.8616 197.643C71.783 197.958 71.2332 198.421 71.0339 198.668L67.3571 203.221L37.1235 240.661L10.9887 273.026L9.5668 274.787L8.8558 273.566L18.0397 271.84L43.0359 267.142L80.1505 260.167L125.29 251.683L174.726 242.392L224.626 233.014L271.155 224.269L310.594 216.857L338.836 211.549C343.287 210.713 347.735 209.849 352.191 209.039C352.38 209.005 352.568 208.969 352.756 208.933C353.675 208.761 354.069 210.169 353.144 210.343L343.96 212.069L318.964 216.766L281.85 223.742L236.71 232.225L187.274 241.516L137.374 250.894L90.8455 259.639L51.406 267.051L23.1644 272.359C18.7128 273.195 14.2653 274.059 9.80869 274.869C9.62045 274.903 9.43222 274.939 9.24426 274.975C9.09 275.012 8.92783 274.998 8.78186 274.936C8.63589 274.874 8.51395 274.766 8.43408 274.629C8.35425 274.492 8.32077 274.332 8.33865 274.175C8.35651 274.017 8.42477 273.869 8.53329 273.754L28.1367 249.477L60.9693 208.818L70.1696 197.425C71.0739 196.305 71.3994 196.218 72.7756 196.275C79.6792 196.564 86.5827 196.853 93.4862 197.144C106.873 197.707 120.26 198.273 133.647 198.841C150.901 199.574 168.155 200.311 185.408 201.053C203.865 201.847 222.321 202.649 240.777 203.459C257.9 204.211 275.024 204.977 292.146 205.755C305.386 206.359 318.624 206.986 331.862 207.635C338.545 207.97 345.266 208.169 351.931 208.779C352.34 208.777 352.748 208.829 353.144 208.933C354.009 209.274 353.633 210.688 352.756 210.343Z" fill="black"/>
<path d="M175.605 137.411L161.335 138.31C158.921 138.462 156.625 139.41 154.807 141.006C152.988 142.601 151.75 144.755 151.286 147.129L141.876 184.356C141.402 186.232 141.352 188.191 141.73 190.088C142.107 191.986 142.904 193.776 144.061 195.327C145.217 196.878 146.705 198.152 148.417 199.055C150.128 199.959 152.019 200.47 153.952 200.55L231.156 203.768V185.121L169.616 176.981L173.919 150.993" fill="#FF4569"/>
<path d="M175.605 138.141L168.38 138.597C165.948 138.75 163.506 138.85 161.079 139.06C158.659 139.286 156.399 140.368 154.704 142.11C153.327 143.571 152.384 145.388 151.983 147.356C151.667 148.699 151.306 150.033 150.968 151.37L148.78 160.025L146.165 170.37L143.868 179.456L142.633 184.341C142.163 186.133 142.098 188.006 142.442 189.826C142.786 191.646 143.53 193.367 144.622 194.863C145.724 196.342 147.143 197.555 148.775 198.414C150.407 199.272 152.211 199.754 154.054 199.824C154.953 199.862 155.852 199.9 156.751 199.936L162.557 200.178L170.758 200.52L180.531 200.927L191.153 201.37L201.874 201.817L211.939 202.236L220.631 202.598L227.12 202.868L230.696 203.017L231.156 203.037L230.426 203.767V185.121L231.156 185.852L229.51 185.634L225.029 185.041L218.403 184.165L210.318 183.095L201.507 181.93L192.569 180.748L184.233 179.645L177.187 178.713L172.12 178.043C171.319 177.937 170.519 177.831 169.719 177.725L169.616 177.712C169.505 177.708 169.395 177.68 169.296 177.629C169.197 177.578 169.111 177.506 169.043 177.417C168.976 177.329 168.929 177.226 168.906 177.117C168.883 177.008 168.885 176.895 168.911 176.787L170.372 167.963L172.683 154.01L173.215 150.798C173.267 150.612 173.391 150.454 173.559 150.359C173.728 150.263 173.927 150.238 174.114 150.288C174.298 150.343 174.454 150.468 174.549 150.635C174.644 150.802 174.671 151 174.624 151.187L173.163 160.011L170.852 173.964L170.321 177.175L169.616 176.25L171.262 176.468L175.743 177.061L182.37 177.937L190.455 179.006L199.265 180.172L208.204 181.354L216.54 182.457L223.585 183.389L228.653 184.059C229.453 184.165 230.253 184.271 231.053 184.376L231.156 184.39C231.349 184.395 231.532 184.473 231.668 184.609C231.804 184.745 231.882 184.928 231.887 185.121V203.768C231.885 203.961 231.808 204.146 231.671 204.282C231.534 204.419 231.35 204.496 231.156 204.498L229.22 204.418L223.959 204.198L216.108 203.871L206.506 203.471L195.851 203.027L184.96 202.573L174.655 202.144L165.661 201.769L158.728 201.48L154.676 201.311C152.419 201.279 150.197 200.748 148.17 199.758C145.994 198.615 144.161 196.916 142.857 194.834C141.553 192.752 140.825 190.361 140.747 187.905C140.694 185.899 141.208 184.017 141.692 182.1L143.604 174.537L146.187 164.322L148.689 154.423L150.324 147.955C150.41 147.616 150.502 147.277 150.581 146.936C151.089 144.531 152.32 142.338 154.108 140.652C156.015 138.907 158.441 137.837 161.015 137.604C161.835 137.528 162.659 137.495 163.481 137.444L173.426 136.817L175.605 136.68C176.544 136.621 176.541 138.082 175.605 138.141Z" fill="black"/>
<path d="M250.802 204.823C250.57 203.837 250.267 202.869 249.894 201.927C249.216 200.031 248.195 198.277 246.882 196.752C246.123 195.876 245.173 195.186 244.105 194.735C243.921 194.679 243.766 194.555 243.671 194.387C243.576 194.22 243.548 194.023 243.594 193.837C243.647 193.65 243.771 193.492 243.939 193.397C244.107 193.301 244.306 193.276 244.493 193.326C248.546 194.906 250.721 199.365 251.903 203.294C252.016 203.671 252.125 204.05 252.211 204.435C252.414 205.351 251.005 205.743 250.802 204.823Z" fill="black"/>
<path d="M243.94 204.376C243.95 204.225 243.952 204.074 243.946 203.923C243.941 203.75 243.93 203.577 243.912 203.405C243.908 203.356 243.901 203.307 243.896 203.258C243.879 203.088 243.918 203.383 243.896 203.251C243.877 203.139 243.861 203.027 243.839 202.916C243.79 202.659 243.728 202.405 243.652 202.155C243.612 202.023 243.569 201.893 243.521 201.764C243.497 201.697 243.471 201.631 243.445 201.565C243.441 201.554 243.401 201.459 243.434 201.537C243.472 201.627 243.403 201.469 243.395 201.452C243.266 201.173 243.118 200.903 242.952 200.644C242.909 200.576 242.864 200.509 242.817 200.444C242.8 200.419 242.675 200.251 242.742 200.338C242.631 200.194 242.511 200.057 242.386 199.925C241.806 199.31 241.096 198.835 240.307 198.533C240.124 198.476 239.968 198.352 239.874 198.185C239.779 198.018 239.751 197.82 239.797 197.634C239.85 197.448 239.973 197.29 240.142 197.194C240.31 197.099 240.509 197.073 240.696 197.123C242.307 197.716 243.652 198.867 244.485 200.367C245.027 201.403 245.338 202.544 245.398 203.711C245.414 203.932 245.415 204.154 245.401 204.376C245.397 204.568 245.318 204.751 245.182 204.887C245.046 205.023 244.863 205.102 244.671 205.106C244.477 205.105 244.292 205.027 244.156 204.891C244.019 204.754 243.942 204.569 243.94 204.376Z" fill="black"/>
<path d="M197.095 136.056L197.794 140.39C198.409 144.196 198.101 148.094 196.897 151.756L194.151 160.107L186.016 152.61C183.062 149.887 180.835 146.469 179.539 142.666L177.717 137.322L197.095 136.056Z" fill="#1DFFC4"/>
<path d="M197.799 135.862L198.408 139.632C198.835 142.053 198.925 144.521 198.677 146.967C198.283 150.412 197.039 153.662 195.962 156.936L194.856 160.301C194.82 160.422 194.753 160.532 194.662 160.621C194.571 160.709 194.458 160.772 194.336 160.805C194.213 160.837 194.084 160.837 193.961 160.806C193.839 160.774 193.726 160.711 193.635 160.623L186.649 154.185C185.244 152.949 183.944 151.597 182.765 150.144C180.996 147.839 179.625 145.253 178.71 142.496L177.012 137.516C176.984 137.408 176.981 137.294 177.003 137.184C177.025 137.074 177.071 136.971 177.139 136.882C177.207 136.793 177.294 136.72 177.394 136.67C177.494 136.62 177.605 136.592 177.717 136.591L184.253 136.164L194.684 135.483L197.095 135.325C198.034 135.264 198.03 136.725 197.095 136.787L190.558 137.214L180.128 137.895L177.717 138.053L178.421 137.128L179.937 141.572C180.719 144.003 181.848 146.309 183.29 148.417C184.487 150.039 185.854 151.529 187.366 152.861L191.522 156.691L194.668 159.59L193.447 159.913L195.795 152.771C196.328 151.251 196.748 149.693 197.051 148.111C197.478 145.539 197.478 142.913 197.05 140.341L196.39 136.25C196.344 136.063 196.372 135.866 196.467 135.699C196.561 135.532 196.717 135.408 196.9 135.351C197.087 135.301 197.286 135.327 197.454 135.422C197.622 135.518 197.746 135.676 197.799 135.862Z" fill="black"/>
<path d="M195.13 159.912L196.703 166.835L199.213 177.884L199.793 180.44C200.002 181.356 198.593 181.747 198.384 180.829L196.812 173.907L194.302 162.858L193.721 160.301C193.513 159.385 194.922 158.994 195.13 159.912Z" fill="black"/>
<path d="M197.429 138.127L195.438 128.461L142.02 126.436L142.277 134.776C142.309 135.822 142.554 136.85 142.996 137.799C143.438 138.747 144.068 139.596 144.849 140.294C145.629 140.991 146.543 141.522 147.535 141.856C148.527 142.189 149.577 142.317 150.62 142.232L189.109 139.094" fill="#1DFFC4"/>
<path d="M142.751 126.436L142.924 132.063C142.951 132.926 142.977 133.789 143.004 134.652C143.035 135.991 143.441 137.294 144.175 138.414C144.89 139.469 145.877 140.311 147.03 140.852C148.183 141.394 149.461 141.615 150.73 141.492C151.63 141.42 152.529 141.347 153.429 141.272L165.97 140.25L180.818 139.039L186.25 138.596C187.159 138.522 188.075 138.409 188.988 138.373C189.028 138.372 189.069 138.367 189.109 138.363C190.047 138.287 190.041 139.749 189.109 139.825L182.14 140.393L167.394 141.595L154.161 142.674L150.915 142.938C149.75 143.052 148.574 142.929 147.458 142.577C146.342 142.225 145.308 141.65 144.42 140.888C143.09 139.726 142.16 138.174 141.761 136.453C141.59 135.551 141.507 134.634 141.514 133.716L141.305 126.949L141.29 126.436C141.261 125.495 142.722 125.496 142.751 126.436Z" fill="black"/>
<path d="M196.724 138.322L194.979 129.848L194.734 128.655L195.438 129.192L191.55 129.04L182.259 128.678L170.977 128.239L161.261 127.86C159.682 127.798 158.094 127.783 156.517 127.675C156.495 127.674 156.473 127.674 156.451 127.673C155.514 127.636 155.509 126.175 156.451 126.211L160.339 126.363L169.63 126.725L180.912 127.164L190.629 127.543C192.207 127.605 193.796 127.62 195.372 127.728C195.394 127.729 195.416 127.73 195.438 127.73C195.598 127.733 195.752 127.786 195.879 127.882C196.006 127.979 196.098 128.114 196.143 128.267L197.888 136.74L198.133 137.933C198.323 138.851 196.914 139.244 196.724 138.322Z" fill="black"/>
<path d="M130.628 136.562L142.343 135.575L142.02 126.436C142.02 126.436 132.816 135.806 130.628 136.562Z" fill="black" stroke="black" stroke-width="1.3457" stroke-miterlimit="10"/>
<path d="M190.628 167.701C189.929 167.701 189.362 167.135 189.362 166.436C189.362 165.737 189.929 165.17 190.628 165.17C191.327 165.17 191.894 165.737 191.894 166.436C191.894 167.135 191.327 167.701 190.628 167.701Z" fill="black" stroke="black" stroke-width="1.3457" stroke-miterlimit="10"/>
<path d="M193.16 177.575C192.461 177.575 191.894 177.008 191.894 176.309C191.894 175.61 192.461 175.043 193.16 175.043C193.859 175.043 194.426 175.61 194.426 176.309C194.426 177.008 193.859 177.575 193.16 177.575Z" fill="black" stroke="black" stroke-width="1.3457" stroke-miterlimit="10"/>
<path d="M288.245 150.206C286.23 150.132 284.223 149.893 282.247 149.489C277.667 148.651 273.233 147.155 269.08 145.05C266.177 143.568 263.464 141.742 260.998 139.611C260.285 138.994 261.323 137.964 262.031 138.577C266.102 142.038 270.808 144.671 275.887 146.331C277.888 147.002 279.93 147.545 282 147.957C283.414 148.246 284.842 148.463 286.277 148.607C286.931 148.672 287.589 148.733 288.246 148.744C289.185 148.761 289.188 150.222 288.245 150.206Z" fill="black"/>
<path d="M222.812 184.409L222.78 190.932L222.728 201.382L222.716 203.775C222.711 204.715 221.25 204.717 221.254 203.775L221.287 197.252L221.339 186.801L221.351 184.409C221.355 183.469 222.817 183.467 222.812 184.409Z" fill="black"/>
<path d="M110.884 91.2052C111.429 89.8461 111.752 88.4086 111.842 86.9471C112.059 83.9972 111.273 81.0456 109.124 78.9278C108.437 78.2597 107.664 77.6854 106.826 77.22C106.353 76.9532 105.865 76.7142 105.364 76.5043C105.1 76.3936 104.833 76.291 104.564 76.1946C104.315 76.1056 104.036 76.0747 103.927 75.8077C103.733 75.3294 103.675 74.7611 103.514 74.2651C103.359 73.7893 103.179 73.3224 102.974 72.8664C102.576 71.9872 102.088 71.1517 101.518 70.3734C99.4712 67.5857 96.2349 65.5813 92.7569 65.2993C91.0934 65.1454 89.4193 65.4445 87.912 66.1648C86.4047 66.8851 85.1204 67.9998 84.1951 69.3907C83.9349 69.7854 83.6982 70.1952 83.4863 70.6179C83.4364 70.7005 83.3563 70.7604 83.263 70.7849C83.1696 70.8094 83.0704 70.7965 82.9864 70.749C79.6943 68.9367 75.8545 68.0303 72.2017 69.2648C69.2745 70.2541 66.8966 72.4737 65.3535 75.1121C64.529 76.5177 63.9412 78.0494 63.6136 79.6457C63.5865 79.7383 63.5245 79.8167 63.4406 79.8643C63.3567 79.912 63.2575 79.9251 63.1641 79.9009C60.6275 79.3261 57.72 79.262 55.6705 81.1119C53.9603 82.6555 53.207 84.9853 52.7396 87.1732C52.4484 88.5358 52.2672 89.9185 52.1127 91.3024L51.7474 90.937C55.0903 90.7761 58.4437 90.7751 61.7897 90.7524C66.9032 90.7175 72.0171 90.7192 77.1307 90.7303C86.514 90.7507 95.8971 90.8023 105.28 90.8853C107.265 90.9014 109.251 90.9187 111.236 90.9372C111.331 90.9407 111.42 90.9807 111.486 91.0488C111.551 91.117 111.588 91.2079 111.588 91.3025C111.588 91.3971 111.551 91.4881 111.486 91.5562C111.42 91.6243 111.331 91.6644 111.236 91.6679C105.636 91.6139 100.036 91.5705 94.4365 91.5378C84.1017 91.4729 73.7659 91.4196 63.4309 91.4733C59.5387 91.4935 55.6361 91.4806 51.7474 91.6679C51.6505 91.6676 51.5578 91.629 51.4893 91.5606C51.4209 91.4921 51.3823 91.3993 51.382 91.3025C51.8924 86.7273 52.7809 80.3118 58.136 79.0343C59.855 78.6243 61.6538 78.8099 63.3584 79.1963L62.909 79.4515C63.5461 76.3498 65.1211 73.5188 67.4205 71.3418C68.6419 70.176 70.0913 69.2756 71.6777 68.6973C73.264 68.119 74.9529 67.8753 76.638 67.9815C79.0051 68.2 81.2968 68.9288 83.3552 70.1179L82.8553 70.249C84.5748 66.8479 87.8442 64.609 91.6902 64.5353C95.4467 64.4632 99.0859 66.3399 101.492 69.1725C103.052 71.0288 104.131 73.2411 104.632 75.6135L104.377 75.3583C107.884 76.5415 110.978 78.8281 112.112 82.4765C112.853 84.8587 112.713 87.4658 112.087 89.8573C111.957 90.3825 111.791 90.8979 111.588 91.3996C111.409 91.8263 110.701 91.6387 110.884 91.2052Z" fill="black"/>
<path d="M227.051 63.4714H267.019C267.559 63.4246 268.102 63.4246 268.642 63.4714C268.667 63.4736 268.692 63.4736 268.716 63.4714L268.364 63.7397C268.378 63.6504 268.365 63.8048 268.362 63.7589C268.364 63.6942 268.371 63.6297 268.382 63.566C268.404 63.3314 268.413 63.0956 268.415 62.8601C268.421 62.0866 268.334 61.3151 268.157 60.5622C267.871 59.3717 267.344 58.2526 266.608 57.2743C265.872 56.2961 264.943 55.4796 263.878 54.8756C261.943 53.7513 259.707 53.2333 257.499 53.0041C257.419 53.0012 257.343 52.9738 257.28 52.9258C257.217 52.8778 257.17 52.8114 257.146 52.7359C256.173 49.892 254.058 47.4724 251.112 46.6226C249.808 46.2502 248.432 46.2088 247.108 46.502C245.785 46.7953 244.555 47.4139 243.53 48.3019C242.203 49.4999 241.219 51.0306 240.681 52.7359C240.665 52.7891 240.637 52.8381 240.6 52.8792C240.563 52.9204 240.517 52.9526 240.465 52.9735C240.414 52.9945 240.358 53.0036 240.303 53.0003C240.247 52.9969 240.193 52.9812 240.144 52.9542C238.33 52.0814 236.228 51.9153 234.626 53.3036C233.596 54.1829 232.908 55.3956 232.682 56.7303C232.68 56.8267 232.641 56.9187 232.573 56.9868C232.505 57.055 232.413 57.094 232.316 57.0957C231.542 57.0231 230.764 57.1869 230.084 57.5655C229.405 57.9441 228.857 58.5198 228.511 59.2165C227.913 60.3826 227.558 61.6577 227.467 62.9649C227.439 63.2542 227.417 63.5459 227.416 63.8367C227.412 63.9313 227.372 64.0208 227.304 64.0864C227.236 64.152 227.145 64.1887 227.051 64.1887C226.956 64.1887 226.865 64.152 226.797 64.0864C226.729 64.0208 226.689 63.9313 226.685 63.8367C226.689 61.4816 227.381 58.5182 229.407 57.0926C230.263 56.5212 231.291 56.2641 232.316 56.365L231.951 56.7304C232.186 55.1412 233.003 53.696 234.243 52.6746C236.106 51.1629 238.44 51.3254 240.513 52.3232L239.977 52.5415C241.011 49.4464 243.262 46.7994 246.478 45.8963C247.905 45.5116 249.404 45.4826 250.845 45.8118C252.285 46.1409 253.623 46.8182 254.741 47.7844C256.184 49.0638 257.258 50.7065 257.851 52.5415L257.499 52.2733C261.055 52.6422 264.818 53.7729 267.108 56.7002C268.398 58.3858 269.111 60.4415 269.143 62.5637C269.16 63.0217 269.135 63.4803 269.069 63.9338C269.047 64.0108 269.001 64.0786 268.938 64.127C268.874 64.1754 268.796 64.2018 268.716 64.202H228.748C228.211 64.202 227.661 64.2365 227.125 64.202C227.101 64.2004 227.075 64.202 227.051 64.202C226.957 64.198 226.868 64.1578 226.802 64.0897C226.737 64.0217 226.701 63.931 226.701 63.8367C226.701 63.7424 226.737 63.6518 226.802 63.5837C226.868 63.5156 226.957 63.4754 227.051 63.4714Z" fill="black"/>
<path d="M318.127 279.358H351.478C351.934 279.313 352.393 279.313 352.849 279.358C352.869 279.36 352.889 279.36 352.909 279.358L352.544 279.723C352.51 278.522 352.252 277.337 351.785 276.229C351.312 275.026 350.59 273.937 349.668 273.032C348.745 272.126 347.642 271.426 346.43 270.975C344.215 270.149 341.81 270.052 339.476 270.254C339.396 270.253 339.319 270.227 339.255 270.178C339.192 270.13 339.146 270.062 339.124 269.985C338.278 267.268 336.305 264.975 333.456 264.328C332.199 264.064 330.895 264.12 329.665 264.493C328.435 264.865 327.319 265.541 326.419 266.459C325.22 267.707 324.383 269.258 323.997 270.945C323.981 270.998 323.953 271.047 323.916 271.089C323.879 271.13 323.833 271.162 323.781 271.183C323.729 271.204 323.674 271.213 323.618 271.21C323.563 271.206 323.509 271.191 323.46 271.163C321.877 270.408 320.383 272.177 319.672 273.368C318.528 275.24 318.104 277.464 318.48 279.626C318.572 280.085 317.868 280.282 317.775 279.82C317.329 277.352 317.847 274.806 319.223 272.708C320.196 271.214 321.945 269.634 323.829 270.532L323.292 270.751C324.056 267.677 326.085 264.979 329.127 263.894C330.436 263.429 331.843 263.31 333.212 263.549C334.58 263.789 335.863 264.377 336.937 265.259C338.319 266.458 339.324 268.032 339.828 269.791L339.476 269.523C343.197 269.201 347.264 269.716 350.081 272.393C351.689 273.976 352.752 276.029 353.116 278.255C353.21 278.739 353.264 279.23 353.274 279.723C353.273 279.82 353.234 279.912 353.166 279.98C353.098 280.048 353.006 280.087 352.909 280.089H319.558C319.106 280.089 318.639 280.121 318.188 280.089C318.168 280.087 318.147 280.089 318.127 280.089C318.033 280.085 317.944 280.045 317.878 279.977C317.813 279.908 317.776 279.818 317.776 279.723C317.776 279.629 317.813 279.538 317.878 279.47C317.944 279.402 318.033 279.362 318.127 279.358Z" fill="black"/>
<path d="M319.456 98.29L314.391 101.83L313.674 102.332C313.506 102.428 313.308 102.454 313.121 102.405C312.934 102.356 312.773 102.235 312.674 102.069C312.58 101.901 312.555 101.703 312.604 101.517C312.653 101.33 312.772 101.17 312.937 101.07L318.001 97.5293L318.718 97.028C318.886 96.9319 319.085 96.9055 319.272 96.9546C319.459 97.0036 319.619 97.1241 319.718 97.2902C319.812 97.4584 319.837 97.6565 319.788 97.8428C319.739 98.0292 319.62 98.1895 319.456 98.29Z" fill="black"/>
<path d="M312.355 90.8969L310.398 96.2628L310.116 97.0354C310.06 97.2195 309.936 97.3751 309.769 97.4701C309.601 97.5651 309.404 97.5922 309.217 97.5458C309.031 97.4929 308.874 97.369 308.778 97.2009C308.683 97.0327 308.657 96.8337 308.707 96.6469L310.664 91.2811L310.946 90.5085C311.002 90.3244 311.126 90.1687 311.294 90.0737C311.461 89.9787 311.658 89.9516 311.845 89.9981C312.031 90.0509 312.189 90.1748 312.284 90.343C312.38 90.5112 312.405 90.7101 312.355 90.8969Z" fill="black"/>
<path d="M320.572 110.117L315.511 108.675L314.788 108.469C313.885 108.212 314.269 106.801 315.176 107.06L320.237 108.502L320.96 108.708C321.863 108.965 321.479 110.376 320.572 110.117Z" fill="black"/>
<path d="M231.367 264.476L226.855 265.883L214.68 269.68L196.632 275.31L174.611 282.177L150.491 289.699L126.145 297.293L103.516 304.35L84.2691 310.353L70.5199 314.641C68.3386 315.321 66.1662 316.053 63.9699 316.683C63.8779 316.71 63.7869 316.74 63.6956 316.769C62.7956 317.05 62.4107 315.639 63.3071 315.36L67.8192 313.952L79.9939 310.155L98.0426 304.526L120.064 297.659L144.184 290.136L168.529 282.543L191.159 275.486L210.405 269.483L224.154 265.195C226.336 264.515 228.508 263.783 230.704 263.153C230.796 263.126 230.887 263.095 230.979 263.067C231.879 262.786 232.264 264.197 231.367 264.476Z" fill="black"/>
<path d="M114.429 284.506L109.973 285.903L99.2755 289.259L86.3389 293.317L75.1966 296.812C73.3951 297.377 71.5974 298.032 69.7713 298.514C69.7448 298.521 69.7187 298.53 69.6925 298.539C68.793 298.821 68.4082 297.41 69.304 297.129L73.7596 295.732L84.4574 292.376L97.394 288.318L108.536 284.823C110.338 284.258 112.135 283.603 113.962 283.121C113.988 283.114 114.014 283.105 114.04 283.096C114.94 282.814 115.325 284.225 114.429 284.506Z" fill="black"/>
<path d="M180.333 107.074C180.333 107.074 181.064 124.368 193.243 124.368C205.909 125.099 204.204 109.023 204.204 109.023C204.204 109.023 203.23 111.458 198.845 108.779C193.73 107.074 189.833 112.676 187.884 112.433C186.159 112.318 184.922 110.736 184.098 109.099C183.23 107.349 182.759 105.429 182.718 103.476L182.525 96.3566" fill="black"/>
<path d="M181.064 107.074C181.087 107.618 181.148 108.162 181.216 108.701C181.223 108.763 181.231 108.825 181.239 108.887C181.263 109.072 181.219 108.746 181.246 108.936C181.267 109.083 181.288 109.23 181.31 109.377C181.359 109.693 181.412 110.007 181.469 110.321C181.602 111.047 181.761 111.767 181.945 112.482C182.806 115.814 184.229 119.143 186.899 121.408C188.316 122.597 190.05 123.346 191.888 123.562C193.886 123.793 196.139 123.729 197.923 122.928C199.406 122.259 200.647 121.15 201.477 119.75C202.277 118.406 202.831 116.93 203.115 115.392C203.194 115.01 203.263 114.626 203.32 114.24C203.361 113.963 203.39 113.736 203.43 113.331C203.494 112.687 203.532 112.041 203.545 111.393C203.56 110.636 203.49 109.886 203.483 109.133C203.483 109.097 203.477 109.059 203.473 109.023L204.909 109.217C204.098 111.2 201.596 110.889 199.997 110.203C199.552 110.01 199.12 109.79 198.702 109.545C198.338 109.362 197.941 109.252 197.534 109.222C196.797 109.14 196.051 109.2 195.337 109.398C193.996 109.819 192.736 110.463 191.61 111.303C190.69 111.93 189.765 112.717 188.688 113.059C187.185 113.537 185.599 112.47 184.687 111.36C182.637 108.865 182.047 105.68 181.962 102.543L181.795 96.3568C181.769 95.416 183.231 95.4167 183.256 96.3568L183.395 101.483C183.413 102.143 183.428 102.803 183.448 103.463C183.489 105.384 183.971 107.27 184.856 108.975C185.516 110.216 186.525 111.667 188.076 111.708C188.239 111.713 187.954 111.735 188.059 111.712C188.102 111.703 188.148 111.697 188.19 111.683C188.274 111.656 188.357 111.631 188.439 111.6C188.487 111.574 188.537 111.55 188.588 111.529C188.705 111.47 188.819 111.407 188.932 111.341C189.41 111.062 189.862 110.74 190.316 110.425C192.655 108.802 195.237 107.298 198.198 107.856C199.238 108.052 200.047 108.711 201.035 109.05C201.347 109.162 201.67 109.242 201.998 109.289C202.148 109.305 202.298 109.31 202.449 109.304C202.498 109.302 202.548 109.299 202.597 109.295C202.78 109.279 202.521 109.316 202.676 109.282C202.796 109.256 202.914 109.223 203.029 109.182C202.868 109.24 203.091 109.149 203.144 109.119C203.179 109.099 203.212 109.074 203.248 109.055C203.388 108.976 203.204 109.097 203.245 109.061C203.301 109.013 203.354 108.963 203.407 108.911C203.488 108.834 203.514 108.761 203.423 108.905C203.45 108.862 203.48 108.817 203.51 108.776C203.56 108.708 203.638 108.49 203.499 108.829C203.552 108.664 203.66 108.522 203.807 108.429C203.953 108.336 204.127 108.298 204.299 108.321C204.471 108.344 204.629 108.428 204.745 108.556C204.861 108.685 204.929 108.85 204.935 109.023C205.109 110.972 205.028 112.935 204.693 114.863C204.15 118.246 202.707 121.711 199.715 123.621C197.9 124.781 195.704 125.189 193.575 125.114C191.338 125.036 189.225 124.678 187.289 123.484C183.996 121.453 182.062 117.855 180.933 114.262C180.478 112.8 180.134 111.306 179.905 109.793C179.751 108.933 179.652 108.064 179.609 107.192C179.608 107.153 179.604 107.113 179.603 107.074C179.562 106.134 181.024 106.136 181.064 107.074Z" fill="black"/>
<path d="M197.176 113.381C196.73 113.476 196.271 113.483 195.822 113.4C195.374 113.318 194.947 113.147 194.565 112.899C194.2 112.644 193.902 112.303 193.696 111.908C193.599 111.741 193.571 111.541 193.62 111.354C193.67 111.166 193.791 111.006 193.959 110.908C194.126 110.81 194.325 110.783 194.513 110.832C194.7 110.881 194.861 111.003 194.958 111.17C194.99 111.234 195.024 111.296 195.062 111.356C195.083 111.39 195.105 111.422 195.127 111.455C195.209 111.575 195.033 111.345 195.103 111.424C195.145 111.472 195.186 111.52 195.231 111.565C195.262 111.595 195.381 111.668 195.391 111.707C195.392 111.71 195.252 111.605 195.303 111.637C195.315 111.645 195.327 111.655 195.339 111.663C195.363 111.68 195.387 111.696 195.412 111.712C195.469 111.748 195.527 111.781 195.587 111.811C195.612 111.824 195.638 111.836 195.663 111.848C195.763 111.897 195.488 111.779 195.591 111.818C195.651 111.841 195.711 111.863 195.772 111.882C195.876 111.915 195.982 111.941 196.09 111.96C196.119 111.965 196.148 111.969 196.177 111.975C196.283 111.995 195.974 111.951 196.08 111.962C196.13 111.967 196.181 111.973 196.232 111.976C196.399 111.988 196.568 111.988 196.735 111.975C196.769 111.973 196.803 111.97 196.837 111.966C196.85 111.965 196.863 111.963 196.876 111.961C196.826 111.971 196.775 111.978 196.724 111.982C196.745 111.978 196.767 111.976 196.788 111.972C196.978 111.925 197.179 111.952 197.351 112.046C197.475 112.118 197.575 112.226 197.639 112.355C197.702 112.484 197.726 112.629 197.707 112.771C197.689 112.914 197.628 113.048 197.534 113.157C197.439 113.265 197.315 113.343 197.176 113.381L197.176 113.381Z" fill="white"/>
<path d="M168.611 122.087C171.486 122.804 174.453 123.08 177.41 122.907C177.433 122.905 176.325 122.999 176.337 122.979L177.41 122.907C181.032 116.699 182.134 109.827 182.703 102.663L183.224 96.1017L204.769 92.7979C205.986 92.5976 206.346 91.1337 205.327 90.5241L203.717 90.0236C202.101 89.0567 202.203 87.2994 201.524 85.6392C197.14 74.9217 190.385 73.1212 182.627 74.3806C182.627 74.3806 167.644 77.0093 165.804 86.2096C164.697 91.7438 165.873 102.89 166.986 110.894C167.218 112.753 166.884 114.639 166.026 116.305C165.754 116.846 165.605 117.442 165.591 118.048C165.577 118.654 165.698 119.256 165.946 119.81C166.193 120.363 166.561 120.855 167.022 121.249C167.483 121.643 168.026 121.929 168.611 122.087Z" fill="#1DFFC4"/>
<path d="M168.806 121.383C171.612 122.111 174.518 122.379 177.41 122.176C178.353 122.107 178.337 123.553 177.41 123.637C176.994 123.728 176.565 123.744 176.143 123.684C175.977 123.633 175.835 123.524 175.741 123.378C175.648 123.231 175.609 123.056 175.633 122.884C175.656 122.712 175.739 122.554 175.868 122.437C175.997 122.321 176.164 122.254 176.337 122.249L177.41 122.176L176.779 122.538C179.283 118.221 180.614 113.396 181.341 108.485C181.796 105.408 182.001 102.302 182.247 99.2036L182.493 96.1019C182.496 95.9425 182.549 95.7881 182.646 95.6613C182.742 95.5345 182.877 95.4419 183.03 95.3972L188.642 94.5365L199.042 92.9417C200.897 92.6573 202.792 92.4613 204.631 92.082C204.979 92.0102 205.239 91.7404 205.19 91.4756C205.177 91.4088 205.017 91.1486 205.127 91.2269C205.004 91.17 204.874 91.1296 204.741 91.1069C204.365 90.99 203.984 90.8824 203.612 90.7559C203.105 90.5552 202.665 90.2163 202.342 89.7777C201.521 88.7436 201.38 87.4199 200.961 86.2084C200.46 84.8407 199.828 83.5248 199.073 82.2793C197.96 80.2675 196.434 78.5138 194.595 77.1334C193.016 76.0204 191.206 75.2799 189.299 74.9676C186.669 74.5764 183.988 74.7206 181.415 75.3915C178.373 76.0879 175.451 77.2324 172.745 78.7875C171.131 79.7052 169.689 80.8961 168.483 82.307C167.332 83.7247 166.598 85.4348 166.364 87.2458C166.075 89.6109 165.996 91.997 166.13 94.3759C166.226 97.298 166.465 100.215 166.766 103.122C166.918 104.589 167.086 106.054 167.27 107.518C167.444 108.907 167.734 110.319 167.791 111.718C167.829 113.253 167.521 114.777 166.887 116.176C166.611 116.696 166.426 117.258 166.338 117.84C166.293 118.377 166.373 118.918 166.571 119.42C166.766 119.898 167.07 120.324 167.458 120.664C167.845 121.005 168.307 121.251 168.806 121.383C169.71 121.635 169.326 123.046 168.417 122.792C167.802 122.619 167.227 122.326 166.725 121.93C166.223 121.534 165.804 121.043 165.493 120.485C165.181 119.928 164.982 119.314 164.907 118.679C164.833 118.044 164.885 117.401 165.059 116.786C165.251 116.13 165.608 115.535 165.833 114.89C166.091 114.176 166.252 113.431 166.314 112.674C166.42 111.189 166.085 109.682 165.897 108.214C165.149 102.372 164.476 96.4316 164.651 90.5328C164.716 88.3484 164.858 86.0734 165.727 84.0417C166.537 82.2498 167.757 80.6734 169.288 79.4395C172.13 77.0644 175.63 75.5439 179.154 74.4904C181.517 73.7505 183.974 73.3504 186.45 73.3021C188.521 73.2529 190.582 73.609 192.516 74.3505C194.569 75.1872 196.403 76.4834 197.877 78.1394C199.723 80.2841 201.185 82.7308 202.199 85.3722C202.436 86.0049 202.635 86.6509 202.795 87.3069C202.915 87.8967 203.166 88.4519 203.53 88.9315C203.747 89.2203 204.065 89.4155 204.421 89.4775C204.779 89.5888 205.145 89.6859 205.498 89.8123C206.699 90.2428 206.957 91.8098 206.217 92.7474C205.862 93.1792 205.355 93.4584 204.8 93.5276C203.938 93.6652 203.074 93.7924 202.21 93.9248L191.929 95.5013L183.851 96.74L183.418 96.8065L183.955 96.1018C183.782 98.2729 183.61 100.444 183.438 102.615C183.024 107.809 182.339 113.048 180.527 117.961C180 119.4 179.377 120.801 178.663 122.157C178.477 122.508 178.295 122.871 178.082 123.206C178.006 123.338 177.896 123.448 177.765 123.525C177.633 123.601 177.483 123.642 177.331 123.643C177 123.672 176.668 123.688 176.337 123.71L176.531 122.275C176.33 122.212 176.38 122.253 176.555 122.242C176.677 122.235 176.799 122.225 176.921 122.216C177.084 122.203 177.248 122.191 177.41 122.176V123.637C174.387 123.843 171.35 123.558 168.417 122.792C167.508 122.556 167.893 121.146 168.806 121.383Z" fill="black"/>
<path d="M191.039 83.0552C192.879 80.4265 196.559 81.478 196.559 81.478L198.4 82.0039V86.2096C198.4 86.2096 193.931 85.5804 191.565 87.7868C189.462 88.2565 189.824 84.7918 191.039 83.0552Z" fill="white"/>
<path d="M190.408 82.6864C191.925 80.5742 194.641 80.1697 197.016 80.8484L198.594 81.2991C198.747 81.3439 198.881 81.4364 198.978 81.5632C199.074 81.69 199.128 81.8444 199.13 82.0037V86.2096C199.128 86.3213 199.1 86.431 199.05 86.5305C198.999 86.6301 198.926 86.7169 198.837 86.7846C198.749 86.8523 198.646 86.8991 198.536 86.9216C198.427 86.944 198.314 86.9415 198.205 86.9142C198.566 86.9643 198.362 86.9338 198.277 86.9254C198.163 86.9142 198.048 86.9026 197.934 86.8939C197.571 86.8663 197.207 86.855 196.843 86.8577C195.803 86.8434 194.768 87.0027 193.781 87.329C193.275 87.4963 192.799 87.7418 192.369 88.0566C192.135 88.2929 191.839 88.4577 191.514 88.5315C191.249 88.576 190.976 88.5651 190.715 88.4996C189.673 88.2085 189.318 87.1147 189.326 86.1361C189.346 84.9058 189.722 83.7078 190.408 82.6864C190.509 82.5227 190.67 82.404 190.856 82.3552C191.042 82.3064 191.24 82.331 191.408 82.424C191.574 82.5231 191.695 82.6833 191.744 82.8703C191.793 83.0573 191.766 83.2561 191.67 83.4238C191.137 84.2038 190.832 85.1167 190.789 86.0602C190.786 86.1715 190.787 86.283 190.794 86.3942C190.797 86.4415 190.801 86.4888 190.806 86.536C190.816 86.6236 190.784 86.4429 190.815 86.5782C190.837 86.6721 190.861 86.7639 190.889 86.8562C190.92 86.9571 190.809 86.7178 190.896 86.8751C190.914 86.9082 190.934 86.9414 190.951 86.9753C191.027 87.129 190.893 86.9094 190.95 86.983C190.979 87.0171 191.011 87.0489 191.045 87.0782C190.928 86.9689 191.136 87.1277 191.023 87.0654C191.058 87.0809 191.094 87.0915 191.132 87.0968C191.212 87.1128 191.003 87.101 191.147 87.0982C191.191 87.0973 191.234 87.0988 191.278 87.097C191.487 87.0885 191.147 87.1275 191.371 87.082L191.048 87.2699C193.011 85.4783 196.051 85.1515 198.594 85.5048L197.669 86.2094V82.0039L198.205 82.7085C197.392 82.441 196.564 82.2225 195.725 82.054C195.607 82.0351 195.87 82.0664 195.653 82.0456C195.574 82.038 195.495 82.0293 195.416 82.0231C195.24 82.0093 195.063 82.0021 194.887 82.0014C194.521 81.9939 194.156 82.0283 193.799 82.1038C192.947 82.2571 192.186 82.7293 191.67 83.4243C191.569 83.5876 191.408 83.7058 191.222 83.7545C191.036 83.8033 190.839 83.7789 190.67 83.6864C190.504 83.5875 190.383 83.4272 190.334 83.2401C190.285 83.053 190.312 82.8541 190.408 82.6864Z" fill="black"/>
<path d="M171.263 108.779C167.94 108.779 165.245 106.085 165.245 102.761C165.245 99.4378 167.94 96.7435 171.263 96.7435C174.587 96.7435 177.281 99.4378 177.281 102.761C177.281 106.085 174.587 108.779 171.263 108.779Z" fill="#1DFFC4"/>
<path d="M165.976 102.761C165.977 103.849 166.313 104.91 166.939 105.8C167.565 106.689 168.45 107.364 169.473 107.732C170.497 108.101 171.609 108.144 172.658 107.857C173.708 107.57 174.643 106.966 175.336 106.128C176.029 105.289 176.447 104.258 176.533 103.173C176.618 102.089 176.367 101.005 175.813 100.068C175.26 99.1318 174.431 98.3889 173.44 97.9408C172.449 97.4928 171.343 97.3614 170.275 97.5646C169.07 97.8034 167.984 98.4509 167.2 99.3977C166.417 100.344 165.985 101.533 165.976 102.761C165.966 103.701 164.505 103.704 164.515 102.761C164.514 101.37 164.944 100.012 165.745 98.8745C166.546 97.7367 167.679 96.8742 168.989 96.4053C170.299 95.9363 171.722 95.8837 173.063 96.2546C174.404 96.6256 175.598 97.402 176.481 98.4775C177.364 99.5531 177.893 100.875 177.995 102.263C178.097 103.651 177.768 105.036 177.053 106.23C176.338 107.423 175.271 108.366 173.999 108.93C172.727 109.494 171.311 109.651 169.947 109.379C168.423 109.059 167.055 108.229 166.067 107.025C165.079 105.822 164.532 104.318 164.515 102.761C164.505 101.821 165.966 101.82 165.976 102.761Z" fill="black"/>
<path d="M169.429 106.83C167.514 106.83 165.962 105.278 165.962 103.363C165.962 101.448 167.514 99.8961 169.429 99.8961C171.344 99.8961 172.896 101.448 172.896 103.363C172.896 105.278 171.344 106.83 169.429 106.83Z" fill="#1DFFC4"/>
<path d="M166.693 103.363C166.694 103.924 166.867 104.471 167.189 104.931C167.511 105.39 167.967 105.739 168.494 105.93C169.022 106.122 169.595 106.147 170.137 106.002C170.679 105.856 171.163 105.548 171.523 105.119C171.884 104.689 172.104 104.159 172.153 103.6C172.203 103.041 172.079 102.481 171.799 101.995C171.519 101.508 171.097 101.12 170.589 100.882C170.081 100.644 169.512 100.568 168.959 100.664C168.326 100.78 167.753 101.112 167.339 101.605C166.926 102.098 166.697 102.72 166.693 103.363C166.68 104.303 165.219 104.306 165.232 103.363C165.241 102.505 165.509 101.669 166.002 100.965C166.495 100.262 167.188 99.7238 167.992 99.4214C168.806 99.1255 169.691 99.0883 170.526 99.3149C171.362 99.5415 172.107 100.021 172.659 100.687C173.212 101.354 173.545 102.175 173.613 103.038C173.681 103.901 173.48 104.763 173.039 105.508C172.568 106.298 171.852 106.912 170.999 107.255C170.147 107.598 169.205 107.652 168.318 107.409C167.432 107.165 166.65 106.638 166.092 105.907C165.535 105.176 165.232 104.283 165.232 103.363C165.219 102.423 166.68 102.422 166.693 103.363Z" fill="black"/>
<path d="M185.256 82.0809L163.354 88.7812C162.844 88.9754 162.416 89.3382 162.14 89.8095C161.865 90.2808 161.759 90.8321 161.84 91.3719C161.997 92.6727 163.076 93.5865 164.251 93.4124L187.096 89.3601" fill="white"/>
<path d="M185.45 82.7855L177.24 85.2973L165.203 88.9796C164.169 89.2959 162.821 89.4367 162.581 90.7197C162.554 90.8912 162.546 91.0652 162.558 91.2384C162.575 91.6418 162.53 91.1489 162.576 91.3693C162.596 91.4731 162.622 91.5754 162.655 91.6756C162.759 91.9847 162.954 92.2552 163.214 92.4519C163.48 92.6437 163.807 92.7304 164.133 92.6954C164.077 92.6995 164.029 92.7103 164.102 92.6997C164.433 92.6512 164.763 92.5824 165.092 92.5239L176.812 90.4453C180.118 89.8589 183.422 89.2543 186.732 88.6857C186.789 88.6759 186.845 88.6655 186.902 88.6555C187.089 88.6094 187.286 88.6367 187.453 88.7316C187.621 88.8266 187.745 88.982 187.801 89.1659C187.851 89.3528 187.825 89.5517 187.73 89.7199C187.634 89.888 187.477 90.0119 187.291 90.0648L178.473 91.6289L165.89 93.8608C165.459 93.9372 165.029 94.0158 164.598 94.0899C164.112 94.1937 163.607 94.1678 163.133 94.015C162.66 93.8621 162.235 93.5877 161.901 93.2191C161.605 92.876 161.382 92.4752 161.248 92.0419C161.114 91.6086 161.071 91.1521 161.122 90.7014C161.173 90.2507 161.317 89.8155 161.545 89.4233C161.773 89.031 162.08 88.6903 162.446 88.4226C162.826 88.1936 163.238 88.0244 163.669 87.921L174.716 84.5415L184.886 81.4301L185.062 81.3764C185.963 81.1006 186.349 82.5107 185.45 82.7855Z" fill="black"/>
<path d="M186.695 90.8097C183.578 90.8097 181.05 88.2825 181.05 85.165C181.05 82.0475 183.578 79.5203 186.695 79.5203C189.813 79.5203 192.34 82.0475 192.34 85.165C192.34 88.2825 189.813 90.8097 186.695 90.8097Z" fill="#8066FF"/>
<path d="M181.781 85.165C181.782 86.1758 182.094 87.1618 182.676 87.9885C183.257 88.8152 184.08 89.4424 185.031 89.7847C185.982 90.1269 187.015 90.1675 187.99 89.901C188.965 89.6344 189.834 89.0736 190.479 88.2951C191.124 87.5166 191.512 86.5582 191.592 85.5506C191.672 84.543 191.44 83.5352 190.926 82.6647C190.413 81.7941 189.643 81.1032 188.722 80.686C187.802 80.2689 186.775 80.1458 185.781 80.3336C184.66 80.5549 183.65 81.1566 182.921 82.0369C182.192 82.9172 181.789 84.0222 181.781 85.165C181.771 86.1049 180.309 86.1073 180.32 85.165C180.319 83.8504 180.725 82.5678 181.482 81.4928C182.238 80.4177 183.309 79.6028 184.546 79.1596C185.784 78.7163 187.128 78.6665 188.395 79.0168C189.662 79.3671 190.79 80.1004 191.624 81.1164C192.459 82.1325 192.958 83.3815 193.055 84.6925C193.152 86.0035 192.842 87.3125 192.166 88.4402C191.49 89.5678 190.483 90.4591 189.281 90.992C188.079 91.5249 186.742 91.6733 185.453 91.417C184.013 91.1145 182.72 90.3301 181.787 89.1934C180.854 88.0567 180.336 86.6357 180.32 85.165C180.309 84.2243 181.771 84.2236 181.781 85.165Z" fill="black"/>
<path d="M181.781 85.165C181.782 86.1758 182.094 87.1618 182.676 87.9885C183.257 88.8152 184.08 89.4424 185.031 89.7847C185.982 90.1269 187.015 90.1675 187.99 89.901C188.965 89.6344 189.834 89.0736 190.479 88.2951C191.124 87.5166 191.512 86.5582 191.592 85.5506C191.672 84.543 191.44 83.5352 190.926 82.6647C190.413 81.7941 189.643 81.1032 188.722 80.686C187.802 80.2689 186.775 80.1458 185.781 80.3336C184.66 80.5549 183.65 81.1566 182.921 82.0369C182.192 82.9172 181.789 84.0222 181.781 85.165C181.771 86.1049 180.309 86.1073 180.32 85.165C180.319 83.8504 180.725 82.5678 181.482 81.4928C182.238 80.4177 183.309 79.6028 184.546 79.1596C185.784 78.7163 187.128 78.6665 188.395 79.0168C189.662 79.3671 190.79 80.1004 191.624 81.1164C192.459 82.1325 192.958 83.3815 193.055 84.6925C193.152 86.0035 192.842 87.3125 192.166 88.4402C191.49 89.5678 190.483 90.4591 189.281 90.992C188.079 91.5249 186.742 91.6733 185.453 91.417C184.013 91.1145 182.72 90.3301 181.787 89.1934C180.854 88.0567 180.336 86.6357 180.32 85.165C180.309 84.2243 181.771 84.2236 181.781 85.165Z" fill="black"/>
<path d="M201.824 87.6277C198.779 87.6277 196.31 85.1593 196.31 82.1144C196.31 79.0695 198.779 76.6011 201.824 76.6011C204.869 76.6011 207.337 79.0695 207.337 82.1144C207.337 85.1593 204.869 87.6277 201.824 87.6277Z" fill="#8066FF"/>
<path d="M203.401 82.7785C202.599 82.7785 201.948 82.1281 201.948 81.3258C201.948 80.5235 202.599 79.8731 203.401 79.8731C204.203 79.8731 204.854 80.5235 204.854 81.3258C204.854 82.1281 204.203 82.7785 203.401 82.7785Z" fill="white"/>
<path d="M188.68 85.9329C187.878 85.9329 187.228 85.2825 187.228 84.4802C187.228 83.6779 187.878 83.0275 188.68 83.0275C189.483 83.0275 190.133 83.6779 190.133 84.4802C190.133 85.2825 189.483 85.9329 188.68 85.9329Z" fill="white"/>
<path d="M197.041 82.1144C197.042 83.0994 197.347 84.0601 197.914 84.8653C198.481 85.6705 199.283 86.2809 200.21 86.613C201.138 86.9452 202.145 86.9829 203.094 86.7211C204.044 86.4593 204.889 85.9106 205.515 85.1501C206.141 84.3896 206.517 83.4544 206.592 82.4723C206.666 81.4901 206.435 80.509 205.931 79.6629C205.427 78.8168 204.673 78.1471 203.774 77.7452C202.875 77.3434 201.874 77.229 200.907 77.4178C199.821 77.6381 198.845 78.2251 198.141 79.0803C197.437 79.9355 197.049 81.0068 197.041 82.1144C197.031 83.0542 195.569 83.0567 195.58 82.1144C195.579 80.8258 195.978 79.5685 196.72 78.5152C197.462 77.4618 198.512 76.6639 199.726 76.2309C200.94 75.7979 202.258 75.751 203.499 76.0966C204.741 76.4422 205.845 77.1634 206.66 78.1613C207.476 79.1592 207.962 80.3849 208.054 81.6703C208.145 82.9557 207.836 84.2379 207.17 85.341C206.504 86.4441 205.513 87.3141 204.333 87.8317C203.152 88.3492 201.841 88.489 200.578 88.2319C199.175 87.9298 197.916 87.1598 197.008 86.0483C196.1 84.9368 195.596 83.5497 195.58 82.1144C195.569 81.1737 197.031 81.173 197.041 82.1144Z" fill="black"/>
<path d="M166.832 114.067C166.832 114.067 168.17 114.862 171.324 115.125L166.832 114.067Z" fill="white"/>
<path d="M167.201 113.436C167.283 113.483 167.368 113.525 167.454 113.562C167.568 113.614 167.585 113.614 167.443 113.559C167.502 113.582 167.56 113.607 167.619 113.629C167.774 113.689 167.931 113.743 168.089 113.793C168.533 113.932 168.983 114.046 169.439 114.135C170.061 114.261 170.691 114.348 171.324 114.394C171.42 114.394 171.515 114.413 171.604 114.45C171.692 114.487 171.773 114.541 171.841 114.608C171.909 114.676 171.962 114.757 171.999 114.845C172.036 114.934 172.055 115.029 172.055 115.125C172.055 115.221 172.036 115.316 171.999 115.405C171.962 115.493 171.909 115.574 171.841 115.642C171.773 115.71 171.692 115.763 171.604 115.8C171.515 115.837 171.42 115.856 171.324 115.856C170.096 115.773 168.881 115.554 167.701 115.202C167.271 115.081 166.856 114.912 166.463 114.698C166.296 114.6 166.174 114.44 166.125 114.253C166.076 114.065 166.103 113.866 166.201 113.698C166.299 113.531 166.459 113.409 166.647 113.36C166.834 113.311 167.034 113.338 167.201 113.436Z" fill="black"/>
<path d="M189.009 95.949L180.314 97.3477L179.066 97.5484C178.879 97.594 178.682 97.5666 178.515 97.4717C178.348 97.3768 178.224 97.2216 178.167 97.038C178.117 96.8511 178.143 96.6521 178.238 96.4839C178.334 96.3158 178.492 96.1919 178.678 96.1391L187.373 94.7404L188.621 94.5397C188.808 94.494 189.005 94.5215 189.172 94.6164C189.339 94.7113 189.463 94.8664 189.52 95.0501C189.57 95.2369 189.544 95.4359 189.449 95.6041C189.353 95.7723 189.195 95.8962 189.009 95.949Z" fill="black"/>
<path d="M191.979 100.418C191.968 100.413 191.957 100.408 191.946 100.403C191.813 100.341 192.13 100.473 192.016 100.432C191.9 100.39 191.787 100.345 191.669 100.308C191.496 100.253 191.32 100.208 191.142 100.17C191.041 100.149 190.938 100.132 190.836 100.114C190.639 100.079 190.993 100.126 190.787 100.107C190.723 100.102 190.66 100.094 190.595 100.089C190.34 100.069 190.083 100.067 189.828 100.082C189.552 100.095 189.278 100.14 189.013 100.216C188.343 100.399 187.718 100.717 187.177 101.151C187.009 101.248 186.81 101.275 186.623 101.225C186.436 101.176 186.276 101.055 186.177 100.889C186.084 100.72 186.059 100.523 186.108 100.337C186.157 100.15 186.275 99.9902 186.439 99.8891C187.321 99.2104 188.371 98.7837 189.476 98.6547C190.582 98.5256 191.702 98.6989 192.716 99.1562C192.882 99.2553 193.003 99.4155 193.052 99.6025C193.101 99.7895 193.075 99.9882 192.979 100.156C192.878 100.32 192.718 100.439 192.531 100.488C192.345 100.537 192.147 100.512 191.979 100.418Z" fill="black"/>
<path d="M201.974 98.9651C200.153 98.4054 197.339 98.8531 197.053 101.132C196.921 102.187 197.512 103.272 198.089 104.11C198.505 104.699 198.989 105.238 199.529 105.716C199.823 105.982 200.143 106.178 200.265 106.573C200.341 106.815 200.374 107.068 200.362 107.321C200.279 108.784 198.633 109.026 197.476 109.044C196.535 109.059 196.535 107.597 197.476 107.583C197.952 107.61 198.429 107.524 198.866 107.332C198.883 107.324 198.896 107.31 198.903 107.292C198.906 107.148 198.881 107.006 198.828 106.872L199.015 107.195C197.383 105.85 195.72 103.867 195.583 101.653C195.559 101.115 195.641 100.578 195.826 100.072C196.011 99.5665 196.294 99.1025 196.659 98.707C197.468 97.8181 198.563 97.4804 199.725 97.364C200.609 97.257 201.504 97.3221 202.363 97.5559C203.259 97.8313 202.877 99.2424 201.974 98.9651Z" fill="black"/>
<path d="M200.29 103.16C199.735 103.16 199.285 102.71 199.285 102.155C199.285 101.6 199.735 101.15 200.29 101.15C200.845 101.15 201.295 101.6 201.295 102.155C201.295 102.71 200.845 103.16 200.29 103.16Z" fill="black"/>
<path d="M199.646 102.189C199.652 102.235 199.662 102.281 199.674 102.326C199.681 102.352 199.69 102.378 199.699 102.403C199.72 102.471 199.693 102.397 199.692 102.391C199.706 102.434 199.727 102.473 199.756 102.508C199.769 102.531 199.784 102.553 199.801 102.573C199.761 102.531 199.783 102.549 199.811 102.58C199.831 102.601 199.878 102.661 199.906 102.669C199.847 102.652 199.873 102.647 199.905 102.667C199.924 102.679 199.942 102.692 199.96 102.703C199.979 102.714 199.999 102.723 200.018 102.734C200.039 102.747 200.085 102.782 200.014 102.736C200.062 102.759 200.113 102.775 200.166 102.783C200.183 102.788 200.2 102.792 200.218 102.793L200.174 102.788C200.192 102.79 200.21 102.791 200.228 102.792C200.274 102.795 200.32 102.792 200.366 102.791C200.39 102.791 200.426 102.8 200.352 102.794C200.38 102.793 200.408 102.787 200.434 102.778C200.452 102.773 200.47 102.769 200.487 102.763C200.498 102.76 200.595 102.721 200.545 102.744C200.491 102.77 200.57 102.731 200.574 102.728C200.594 102.718 200.613 102.707 200.632 102.695C200.65 102.684 200.668 102.671 200.687 102.659C200.755 102.615 200.657 102.698 200.685 102.659C200.712 102.631 200.74 102.603 200.77 102.578C200.784 102.562 200.848 102.509 200.78 102.571C200.797 102.551 200.812 102.53 200.824 102.506C200.839 102.483 200.888 102.421 200.887 102.391L200.871 102.43C200.877 102.414 200.883 102.397 200.889 102.381C200.895 102.364 200.9 102.347 200.905 102.33C200.912 102.304 200.917 102.278 200.923 102.253C200.93 102.228 200.949 102.198 200.923 102.27C200.934 102.216 200.936 102.161 200.928 102.106C200.928 102.102 200.92 102.011 200.927 102.071C200.934 102.132 200.92 102.042 200.919 102.037C200.909 101.993 200.895 101.95 200.881 101.906C200.859 101.839 200.887 101.912 200.887 101.918C200.879 101.893 200.867 101.869 200.851 101.847C200.842 101.832 200.833 101.817 200.824 101.802C200.814 101.787 200.804 101.772 200.794 101.758C200.77 101.726 200.773 101.729 200.803 101.769C200.797 101.739 200.735 101.695 200.713 101.674C200.704 101.667 200.682 101.642 200.673 101.64L200.706 101.665C200.692 101.654 200.678 101.644 200.663 101.634C200.631 101.613 200.596 101.595 200.562 101.575C200.541 101.563 200.495 101.527 200.565 101.574C200.542 101.562 200.517 101.553 200.491 101.547C200.463 101.539 200.389 101.506 200.361 101.516L200.405 101.522C200.387 101.52 200.369 101.518 200.351 101.517C200.333 101.516 200.315 101.515 200.297 101.515C200.269 101.515 200.241 101.517 200.214 101.518C200.143 101.521 200.219 101.514 200.227 101.515C200.172 101.518 200.117 101.532 200.067 101.554C200.062 101.556 199.981 101.59 200.035 101.565C200.086 101.541 199.991 101.589 199.982 101.594C199.967 101.602 199.952 101.611 199.937 101.621C199.922 101.63 199.907 101.64 199.893 101.65C199.861 101.674 199.864 101.671 199.904 101.642C199.869 101.649 199.825 101.717 199.801 101.742C199.785 101.757 199.738 101.797 199.8 101.738C199.783 101.758 199.768 101.78 199.755 101.803C199.741 101.825 199.728 101.848 199.716 101.871C199.706 101.891 199.659 101.954 199.709 101.879C199.685 101.927 199.669 101.978 199.662 102.031C199.656 102.048 199.653 102.065 199.651 102.083C199.658 102.03 199.659 102.025 199.654 102.066C199.653 102.084 199.651 102.102 199.651 102.12C199.649 102.176 199.652 102.231 199.659 102.287C199.659 102.383 199.62 102.476 199.552 102.545C199.483 102.613 199.391 102.652 199.294 102.652C199.198 102.649 199.106 102.61 199.038 102.542C198.97 102.474 198.931 102.383 198.928 102.287C198.902 102.017 198.956 101.745 199.085 101.506C199.213 101.267 199.409 101.071 199.649 100.944C199.902 100.813 200.19 100.764 200.473 100.802C200.755 100.84 201.019 100.964 201.229 101.158C201.388 101.306 201.508 101.491 201.581 101.695C201.654 101.9 201.678 102.119 201.649 102.335C201.621 102.55 201.541 102.756 201.418 102.934C201.294 103.113 201.13 103.26 200.938 103.362C200.747 103.465 200.534 103.52 200.316 103.524C200.099 103.528 199.884 103.481 199.689 103.385C199.494 103.289 199.324 103.149 199.194 102.974C199.064 102.8 198.978 102.598 198.941 102.384C198.918 102.29 198.932 102.192 198.979 102.108C199.027 102.024 199.105 101.962 199.197 101.934C199.29 101.909 199.389 101.922 199.473 101.97C199.557 102.018 199.619 102.097 199.646 102.189Z" fill="black"/>
<path d="M192.143 103.321C192.022 103.261 192.273 103.372 192.244 103.362C192.188 103.342 192.133 103.32 192.076 103.302C191.985 103.274 191.893 103.25 191.799 103.231C191.76 103.223 191.572 103.195 191.725 103.216C191.873 103.236 191.746 103.219 191.713 103.216C191.68 103.213 191.648 103.21 191.616 103.208C191.479 103.2 191.341 103.202 191.204 103.214C191.143 103.219 191.028 103.257 191.244 103.206C191.205 103.215 191.164 103.218 191.124 103.226C191.048 103.24 190.973 103.258 190.899 103.279C190.82 103.302 190.743 103.33 190.666 103.356C190.522 103.406 190.798 103.293 190.668 103.355C190.624 103.377 190.58 103.397 190.536 103.42C190.445 103.467 190.357 103.519 190.271 103.576C190.233 103.6 190.196 103.626 190.159 103.652C190.137 103.668 190.114 103.685 190.092 103.701C190.166 103.644 190.17 103.642 190.106 103.693C189.966 103.826 189.782 103.902 189.589 103.908C189.445 103.908 189.304 103.865 189.183 103.784C189.063 103.704 188.97 103.59 188.914 103.456C188.859 103.323 188.845 103.176 188.873 103.034C188.901 102.892 188.97 102.762 189.073 102.66C189.765 102.052 190.66 101.725 191.582 101.745C192.032 101.76 192.474 101.866 192.881 102.059C193.048 102.157 193.168 102.318 193.218 102.505C193.267 102.692 193.24 102.891 193.143 103.058C193.042 103.222 192.882 103.341 192.696 103.39C192.51 103.438 192.312 103.414 192.143 103.321Z" fill="black"/>
</svg>
