<svg width="239" height="320" viewBox="0 0 239 320" fill="none" xmlns="http://www.w3.org/2000/svg">
<path d="M69.0398 305.292L69.0387 305.291C55.6405 300.051 43.7933 291.308 32.5279 282.507L32.5247 282.504C24.1765 276.061 17.0745 268.148 11.5678 259.155C8.42454 253.998 5.90086 248.487 4.04914 242.739L4.04825 242.736C2.64794 238.45 1.6497 234.043 1.0665 229.572C0.247424 223.158 0.802525 218.965 2.26597 216.363C3.6926 213.826 6.05158 212.687 9.21646 212.546C12.4185 212.403 16.3721 213.292 20.8041 214.771C25.2249 216.247 30.0511 218.286 34.9871 220.395C35.2916 220.525 35.5965 220.656 35.9017 220.786C40.5338 222.767 45.2421 224.78 49.7418 226.396C54.5335 228.118 59.1353 229.407 63.2016 229.722C67.2678 230.037 70.8915 229.384 73.6203 227.111C76.3514 224.837 78.0516 221.053 78.5198 215.405L78.5199 215.404C79.1854 207.257 76.7137 199.435 73.1173 192.045C70.4666 186.598 67.1759 181.333 64.0475 176.327C62.9397 174.555 61.8523 172.815 60.8208 171.111C50.5801 154.087 39.743 134.977 32.2392 115.04C24.7351 95.1033 20.583 74.3872 23.6656 54.1448C25.552 41.757 32.0353 29.727 41.4997 21.8459C50.9471 13.9788 63.3554 10.2473 77.182 14.3892L77.1822 14.3893C94.633 19.6115 108.717 32.1715 119.188 47.5039C129.657 62.8353 136.48 80.8918 139.421 97.0086L139.421 97.0087C140.359 102.139 141.012 107.508 141.676 112.972C141.71 113.252 141.744 113.532 141.778 113.812C142.478 119.558 143.206 125.398 144.307 131.117C146.509 142.556 150.211 153.588 158.225 162.576C162.943 167.877 167.671 170.344 172.411 170.857C177.133 171.368 181.76 169.927 186.262 167.626C190.488 165.466 194.669 162.512 198.769 159.616C199.033 159.43 199.296 159.244 199.559 159.058C203.934 155.972 208.211 153.015 212.441 151.11C217.21 148.973 223.451 147.425 228.537 148.112C231.068 148.454 233.264 149.342 234.868 150.934C236.464 152.518 237.542 154.866 237.72 158.265C238.102 165.659 235.541 173.747 231.132 182.124C226.728 190.493 220.511 199.091 213.661 207.487C206.813 215.881 199.349 224.053 192.457 231.575L191.863 232.223C185.21 239.484 179.117 246.135 174.708 251.749L175.247 252.173L174.708 251.749C174.311 252.256 173.904 252.772 173.489 253.297C170.364 257.261 166.825 261.75 163.821 266.5C160.419 271.876 157.66 277.651 156.964 283.458L156.964 283.461C156.535 287.14 158.041 290.405 160.011 293.339C160.997 294.809 162.118 296.221 163.196 297.573L163.295 297.697C164.344 299.013 165.346 300.269 166.179 301.504C167.911 304.071 168.771 306.341 167.945 308.591C167.099 310.896 164.403 313.436 158.262 316.253C155.265 317.568 152.095 318.444 148.848 318.856C144.972 319.323 141.061 319.434 137.164 319.187L137.158 319.186C131.794 318.892 126.449 318.307 121.148 317.435C120.609 317.34 119.998 317.233 119.323 317.115C108.842 315.279 82.8863 310.735 69.0398 305.292Z" fill="#FFE3DB" stroke="black" stroke-width="1.37143"/>
<path fill-rule="evenodd" clip-rule="evenodd" d="M87.6391 243.899C87.4851 241.492 87.1318 239.101 86.5829 236.752C85.2685 231.241 82.8031 226.07 79.3484 221.579C74.3108 215.261 67.8348 210.24 60.4612 206.934C52.5577 203.15 42.8589 200.879 36.4692 195.686C34.1894 193.87 32.4155 191.497 31.318 188.797C30.2206 186.096 29.8365 183.159 30.2028 180.267C30.2077 180.211 30.2015 180.155 30.1846 180.102C30.1677 180.049 30.1405 180 30.1045 179.957C30.0685 179.915 30.0244 179.88 29.9749 179.854C29.9253 179.829 29.8711 179.813 29.8156 179.809C29.7016 179.799 29.5882 179.834 29.4995 179.906C29.4107 179.979 29.3537 180.083 29.3403 180.196C28.9564 183.232 29.3586 186.315 30.5082 189.151C31.6579 191.986 33.5165 194.479 35.906 196.39C42.2604 201.671 52.1001 203.959 60.0563 207.779C67.2837 211.033 73.6316 215.963 78.5739 222.16C81.8866 226.581 84.2806 231.62 85.6148 236.981C86.2264 239.295 86.6792 241.647 86.9702 244.022C86.9702 244.061 86.9779 244.1 86.993 244.137C87.008 244.173 87.0301 244.206 87.0578 244.234C87.0856 244.261 87.1186 244.283 87.1549 244.299C87.1912 244.314 87.2301 244.321 87.2694 244.321C87.3087 244.321 87.3476 244.314 87.3839 244.299C87.4202 244.283 87.4533 244.261 87.481 244.234C87.5088 244.206 87.5308 244.173 87.5459 244.137C87.5609 244.1 87.5687 244.061 87.5687 244.022L87.6391 243.899Z" fill="#8066FF"/>
<path fill-rule="evenodd" clip-rule="evenodd" d="M174.842 140.345C174.948 139.905 175.106 139.5 175.229 139.06V138.743C176.184 133.847 178.609 129.358 182.182 125.876C190.596 117.075 204.079 111.196 211.543 99.8424C213.656 96.6619 215.176 93.1257 216.031 89.4042C216.219 88.5124 216.377 87.5795 216.507 86.6055C216.515 86.5523 216.512 86.4981 216.499 86.4459C216.486 86.3937 216.463 86.3445 216.432 86.3012C216.4 86.2579 216.36 86.2212 216.314 86.1934C216.268 86.1656 216.217 86.1471 216.163 86.1391C216.11 86.131 216.056 86.1334 216.004 86.1462C215.951 86.1591 215.902 86.1822 215.859 86.214C215.816 86.2459 215.779 86.286 215.751 86.3321C215.723 86.3781 215.705 86.4291 215.697 86.4823C215.538 87.4152 215.31 88.2425 215.098 89.193C214.193 92.7709 212.687 96.1694 210.645 99.2439C203.164 110.509 189.751 116.353 181.39 125.119C177.671 128.757 175.163 133.453 174.208 138.567C174.198 138.679 174.198 138.791 174.208 138.902C174.182 139.365 174.182 139.829 174.208 140.292C174.225 140.362 174.264 140.423 174.32 140.467C174.376 140.511 174.445 140.535 174.516 140.535C174.587 140.535 174.657 140.511 174.712 140.467C174.768 140.423 174.808 140.362 174.824 140.292L174.842 140.345Z" fill="#8066FF"/>
<path fill-rule="evenodd" clip-rule="evenodd" d="M55.9575 140.768C55.6407 140.521 55.3414 140.275 55.0246 140.064L54.3557 139.676C49.2919 136.854 44.4752 133.61 39.957 129.977C36.6301 127.284 33.5868 124.259 30.8743 120.948C30.8042 120.859 30.7019 120.802 30.5896 120.788C30.4774 120.775 30.3645 120.807 30.2758 120.877C30.1871 120.947 30.1298 121.05 30.1166 121.162C30.1034 121.274 30.1353 121.387 30.2054 121.476C33.6481 125.677 37.5909 129.442 41.9461 132.688C45.8394 135.623 49.9331 138.281 54.1973 140.644L54.6373 140.873C54.9718 141.032 55.3414 141.155 55.6935 141.296C55.7289 141.317 55.7684 141.331 55.8094 141.336C55.8504 141.342 55.892 141.338 55.9317 141.327C55.9714 141.315 56.0083 141.295 56.04 141.269C56.0717 141.242 56.0975 141.21 56.1159 141.173C56.1461 141.098 56.1466 141.014 56.1171 140.939C56.0877 140.863 56.0306 140.802 55.9575 140.768Z" fill="#AB66FF"/>
<path fill-rule="evenodd" clip-rule="evenodd" d="M201.158 97.8704C201.792 95.6492 202.604 93.483 203.587 91.3928C204.576 89.3128 205.724 87.312 207.02 85.4081C210.787 79.8633 215.539 75.2867 220.397 69.3724C220.428 69.3428 220.453 69.3073 220.47 69.268C220.487 69.2287 220.495 69.1863 220.495 69.1436C220.495 69.1008 220.487 69.0585 220.47 69.0192C220.453 68.9798 220.428 68.9443 220.397 68.9147C220.366 68.8833 220.329 68.8584 220.289 68.8414C220.248 68.8244 220.204 68.8156 220.16 68.8156C220.116 68.8156 220.072 68.8244 220.031 68.8414C219.99 68.8584 219.953 68.8833 219.922 68.9147C214.994 74.8115 210.153 79.3353 206.368 84.8976C205.009 86.8267 203.83 88.8773 202.848 91.0232C201.89 93.1692 201.125 95.3958 200.56 97.6768C200.549 97.715 200.546 97.7548 200.551 97.794C200.556 97.8332 200.569 97.8711 200.589 97.9054C200.608 97.9397 200.635 97.9698 200.666 97.994C200.697 98.0182 200.733 98.0361 200.771 98.0465C200.809 98.0569 200.849 98.0597 200.888 98.0547C200.927 98.0497 200.965 98.037 200.999 98.0174C201.034 97.9978 201.064 97.9716 201.088 97.9404C201.112 97.9091 201.13 97.8734 201.141 97.8352L201.158 97.8704Z" fill="#AB66FF"/>
<path fill-rule="evenodd" clip-rule="evenodd" d="M169.035 246.697C172.731 234.693 181.55 228.321 190.51 222.16C199.927 215.647 209.538 209.345 214.308 197.657C214.436 197.323 214.429 196.952 214.287 196.623C214.146 196.295 213.882 196.034 213.551 195.897C213.217 195.769 212.846 195.776 212.517 195.918C212.188 196.059 211.928 196.323 211.791 196.654C207.232 207.796 197.973 213.711 188.908 219.907C179.455 226.437 170.267 233.249 166.359 245.923C166.302 246.098 166.28 246.284 166.296 246.468C166.311 246.652 166.363 246.831 166.448 246.995C166.533 247.159 166.65 247.304 166.792 247.422C166.934 247.54 167.098 247.629 167.275 247.683C167.455 247.745 167.646 247.767 167.835 247.75C168.025 247.733 168.209 247.676 168.375 247.583C168.541 247.49 168.685 247.363 168.799 247.21C168.913 247.058 168.993 246.883 169.035 246.697Z" fill="#AB66FF"/>
<path d="M134.577 312.169L75.0832 316.599L99.7857 265.815L99.8954 265.589L99.8337 265.346L73.4468 161.371L107.69 160.326L177.743 180.558L171.672 211.325L164.545 212.614L163.985 212.716L163.981 213.285L164.667 213.289C163.981 213.285 163.981 213.285 163.981 213.285L163.981 213.286L163.981 213.293L163.981 213.318L163.98 213.42C163.979 213.51 163.977 213.645 163.974 213.821C163.967 214.174 163.956 214.692 163.934 215.355C163.892 216.679 163.813 218.577 163.663 220.867C163.364 225.45 162.787 231.592 161.673 237.847C160.557 244.111 158.911 250.447 156.491 255.437C154.059 260.449 150.926 263.946 146.918 264.828L146.552 264.908L146.422 265.259C142.63 275.477 139.647 287.342 137.614 296.639C136.596 301.29 135.815 305.304 135.289 308.156C135.025 309.582 134.826 310.718 134.691 311.498C134.646 311.764 134.608 311.988 134.577 312.169Z" fill="#14F195" stroke="black" stroke-width="1.37143"/>
<path d="M145.276 165.151L145.275 165.15C138.95 164.614 131.838 163.945 126.305 163.411C123.539 163.143 121.168 162.91 119.489 162.743C118.65 162.659 117.983 162.593 117.526 162.547L117.003 162.494L116.868 162.481L116.834 162.477L116.826 162.476L116.824 162.476L116.823 162.476C116.823 162.476 116.823 162.476 116.754 163.158L116.823 162.476L116.807 162.474L116.792 162.474L74.8748 160.152L113.838 137.228L155.699 144.616C155.696 144.727 155.692 144.854 155.687 144.994C155.665 145.606 155.622 146.48 155.536 147.527C155.363 149.624 155.018 152.399 154.332 155.134C153.643 157.881 152.624 160.527 151.14 162.413C149.677 164.273 147.79 165.368 145.276 165.151Z" fill="#14F195" stroke="black" stroke-width="1.37143"/>
<path d="M165.469 213.102L147.491 213.299C147.501 212.984 147.515 212.571 147.533 212.07C147.578 210.833 147.651 209.065 147.76 206.943C147.979 202.699 148.346 197.043 148.936 191.39C149.527 185.73 150.339 180.103 151.443 175.901C151.996 173.795 152.611 172.092 153.284 170.93C153.98 169.727 154.607 169.319 155.111 169.318C156.89 169.318 158.837 169.175 160.76 169.035L160.912 169.024C162.897 168.879 164.852 168.74 166.626 168.752C168.409 168.764 169.944 168.929 171.107 169.357C172.246 169.777 172.968 170.422 173.273 171.391C173.341 171.607 173.393 171.967 173.408 172.492C173.423 173.006 173.402 173.637 173.348 174.374C173.239 175.847 172.999 177.701 172.666 179.805C171.999 184.009 170.963 189.166 169.877 194.179C168.792 199.191 167.658 204.05 166.795 207.657C166.363 209.46 166 210.95 165.744 211.989C165.629 212.455 165.537 212.83 165.469 213.102Z" fill="#14F195" stroke="black" stroke-width="1.37143"/>
<path fill-rule="evenodd" clip-rule="evenodd" d="M211.438 67.4185L112.478 166.977L50.6763 103.838L149.971 6.37381L211.438 67.4185Z" fill="black"/>
<path fill-rule="evenodd" clip-rule="evenodd" d="M211.438 64.9725L112.478 164.531L50.6762 101.427L150.006 4.05105L211.438 64.9725Z" fill="#8066FF"/>
<path d="M95.499 78.4027L68.8637 104.715L74.282 110.199L100.917 83.8876L95.499 78.4027Z" fill="#14F195"/>
<path d="M170.022 74.2262L143.687 100.839L149.167 106.262L175.502 79.6492L170.022 74.2262Z" fill="#14F195"/>
<path d="M185.699 60.0284L174.947 70.7094L180.381 76.1791L191.133 65.4981L185.699 60.0284Z" fill="#14F195"/>
<path fill-rule="evenodd" clip-rule="evenodd" d="M134.006 269.476C135.186 269.512 136.367 269.418 137.527 269.194C138.407 269.035 139.277 268.823 140.132 268.56C140.994 268.296 141.892 267.997 142.649 267.698C144.348 267.089 146.006 266.372 147.613 265.55C148.695 264.992 149.71 264.312 150.64 263.526C152.212 262.191 153.593 260.645 154.742 258.932C156.398 256.347 157.784 253.598 158.878 250.729C159.959 248.131 160.858 245.46 161.571 242.738C162.273 240.03 162.825 237.286 163.226 234.518C163.613 231.754 163.824 228.955 163.983 226.174C164.141 223.393 164.177 221.14 164.194 218.64C164.203 218.47 164.203 218.3 164.194 218.13C164.194 218.024 164.194 217.919 164.194 217.795C164.194 217.735 164.17 217.677 164.127 217.634C164.084 217.591 164.026 217.567 163.965 217.567C163.905 217.567 163.846 217.591 163.803 217.634C163.761 217.677 163.736 217.735 163.736 217.795C163.728 217.936 163.728 218.077 163.736 218.218C163.736 218.535 163.736 218.869 163.736 219.204C163.631 223.393 163.384 227.6 162.927 231.772L162.716 233.532C162.539 234.922 162.363 236.295 162.135 237.686C161.835 239.446 161.501 241.206 161.061 242.967C160.346 245.529 159.458 248.041 158.403 250.483C157.315 253.312 155.934 256.02 154.284 258.562C153.16 260.226 151.816 261.73 150.288 263.033C149.386 263.786 148.407 264.441 147.366 264.987C145.789 265.802 144.16 266.514 142.491 267.117C141.663 267.434 140.836 267.716 140.009 267.997C139.177 268.286 138.331 268.533 137.474 268.736C136.32 269.009 135.139 269.144 133.953 269.141C133.922 269.152 133.895 269.172 133.876 269.199C133.857 269.226 133.847 269.258 133.847 269.291C133.847 269.324 133.857 269.356 133.876 269.383C133.895 269.409 133.922 269.43 133.953 269.441L134.006 269.476Z" fill="black"/>
<path fill-rule="evenodd" clip-rule="evenodd" d="M136.222 308.711C136.278 308.667 136.325 308.613 136.363 308.553C136.547 307.981 136.665 307.391 136.715 306.792C137.859 301.125 139.109 295.421 140.464 289.736C141.467 285.529 142.541 281.34 143.65 277.203C144.477 274.105 145.604 271.113 146.484 268.015C146.695 267.24 146.889 266.466 147.065 265.674C147.073 265.609 147.058 265.543 147.021 265.49C146.984 265.436 146.928 265.398 146.865 265.382C146.802 265.367 146.735 265.376 146.677 265.407C146.62 265.438 146.576 265.489 146.554 265.55C146.378 266.166 146.185 266.783 146.009 267.311C145.269 269.775 144.46 272.204 143.703 274.651C143.474 275.408 143.245 276.182 143.034 276.974C141.379 283.188 139.813 289.507 138.404 295.844C137.56 299.646 136.767 303.466 136.046 307.268C136.046 307.602 135.923 307.937 135.87 308.289C135.859 308.317 135.859 308.348 135.87 308.377C135.87 308.377 135.87 308.482 135.87 308.553C135.864 308.572 135.864 308.593 135.867 308.613C135.871 308.633 135.879 308.653 135.891 308.669C135.902 308.686 135.917 308.7 135.935 308.71C135.953 308.721 135.973 308.727 135.993 308.729C136.009 308.743 136.028 308.754 136.048 308.761C136.068 308.768 136.09 308.771 136.111 308.769C136.133 308.767 136.153 308.761 136.172 308.751C136.191 308.742 136.208 308.728 136.222 308.711Z" fill="black"/>
<path d="M160.471 35.2392L143.703 52.1771L155.662 64.0157L172.43 47.0779L160.471 35.2392Z" fill="#FF4569"/>
<path fill-rule="evenodd" clip-rule="evenodd" d="M44.9379 39.5019C44.9379 39.6955 44.9379 39.8715 44.9379 40.0651C44.9379 40.2587 44.9379 40.6284 44.9379 40.91C44.7795 45.117 44.3923 49.3239 44.1282 53.5308C44.1282 54.7102 43.9874 55.8719 43.9522 57.0513C43.9497 57.0735 43.952 57.0961 43.9588 57.1174C43.9657 57.1387 43.9769 57.1583 43.9919 57.1749C44.0069 57.1915 44.0252 57.2048 44.0457 57.2138C44.0661 57.2229 44.0883 57.2275 44.1106 57.2273C44.1573 57.2273 44.2021 57.2088 44.2351 57.1758C44.2681 57.1428 44.2867 57.098 44.2867 57.0513C44.4803 52.3691 44.9731 47.7045 45.2196 42.9695C45.2196 42.0189 45.3428 41.0861 45.3428 40.1531C45.3428 39.9067 45.3428 39.6778 45.3428 39.449C45.3511 39.4251 45.3536 39.3996 45.35 39.3746C45.3464 39.3496 45.3369 39.3258 45.3223 39.3052C45.3076 39.2846 45.2883 39.2678 45.2658 39.2562C45.2434 39.2446 45.2185 39.2385 45.1932 39.2385C45.1679 39.2385 45.143 39.2446 45.1205 39.2562C45.0981 39.2678 45.0787 39.2846 45.0641 39.3052C45.0494 39.3258 45.0399 39.3496 45.0363 39.3746C45.0328 39.3996 45.0352 39.4251 45.0435 39.449L44.9379 39.5019Z" fill="#11C97C"/>
<path fill-rule="evenodd" clip-rule="evenodd" d="M40.3762 46.0673C40.4818 46.1554 40.5523 46.261 40.6579 46.349C41.6345 47.0097 42.6581 47.598 43.7207 48.1092C45.4809 49.0597 47.2411 49.9574 49.0013 50.8552C49.0552 50.8797 49.1165 50.8824 49.1723 50.8627C49.2281 50.843 49.2741 50.8024 49.3006 50.7496C49.3265 50.6978 49.3318 50.6381 49.3155 50.5826C49.2992 50.5271 49.2624 50.4798 49.2126 50.4503L46.8715 49.2182C45.1113 48.2324 43.351 47.2467 41.4852 46.2082C41.2977 46.0864 41.1038 45.9747 40.9043 45.8737H40.6051C40.5919 45.8588 40.5756 45.8467 40.5574 45.8385C40.5392 45.8303 40.5194 45.826 40.4995 45.826C40.4795 45.826 40.4597 45.8303 40.4415 45.8385C40.4233 45.8467 40.4071 45.8588 40.3939 45.8737C40.3698 45.8995 40.355 45.9325 40.3518 45.9675C40.3487 46.0026 40.3572 46.0377 40.3762 46.0673Z" fill="#11C97C"/>
<path fill-rule="evenodd" clip-rule="evenodd" d="M42.7887 44.0079C42.8553 44.2363 42.9376 44.4598 43.0352 44.6768C43.0352 44.8176 43.1583 44.9584 43.2288 45.1168C43.8976 46.5074 44.5666 47.9684 45.1826 49.4294C45.5875 50.3975 45.9747 51.3833 46.3268 52.3514C46.3268 52.5098 46.4324 52.6506 46.5028 52.7915L46.6612 53.0731C46.6672 53.0968 46.678 53.119 46.693 53.1383C46.708 53.1576 46.7269 53.1736 46.7485 53.1852C46.77 53.1968 46.7937 53.2037 46.8181 53.2056C46.8425 53.2075 46.867 53.2044 46.8901 53.1963C46.9361 53.1768 46.9727 53.1402 46.9924 53.0943C47.0121 53.0484 47.0133 52.9966 46.9957 52.9499C47.004 52.8562 47.004 52.7619 46.9957 52.6682C46.9957 52.4394 46.8549 52.2282 46.7844 51.9993C46.3444 50.7672 45.8339 49.535 45.2882 48.3205C44.7426 47.1059 44.1969 45.8914 43.528 44.8C43.488 44.7085 43.4409 44.6202 43.3872 44.536C43.2743 44.3303 43.151 44.1305 43.0175 43.9375C42.9914 43.9128 42.9567 43.899 42.9207 43.899C42.8847 43.899 42.8501 43.9128 42.8239 43.9375C42.8065 43.9577 42.7943 43.9819 42.7887 44.0079Z" fill="#11C97C"/>
<path fill-rule="evenodd" clip-rule="evenodd" d="M40.9069 50.6978L41.8222 50.1345C43.0191 49.36 44.1985 48.5327 45.3426 47.7934C46.4868 47.0541 47.4197 46.5964 48.4935 46.0332C48.5401 46.0075 48.5747 45.9643 48.5896 45.9132C48.6044 45.862 48.5983 45.807 48.5726 45.7603C48.547 45.7136 48.5038 45.6791 48.4526 45.6642C48.4015 45.6494 48.3465 45.6554 48.2998 45.6811C46.6768 46.4785 45.0963 47.3598 43.5648 48.3214C42.8607 48.7791 42.139 49.2192 41.4701 49.7296C41.1709 49.9585 40.9068 50.2049 40.6428 50.4337C40.6193 50.4416 40.598 50.4548 40.5805 50.4724C40.563 50.49 40.55 50.5115 40.5423 50.535C40.5346 50.5586 40.5326 50.5836 40.5364 50.6081C40.5402 50.6326 40.5497 50.6559 40.5641 50.6761C40.5785 50.6963 40.5974 50.7128 40.6193 50.7243C40.6413 50.7358 40.6656 50.742 40.6904 50.7424C40.7152 50.7428 40.7398 50.7374 40.7621 50.7265C40.7844 50.7157 40.8038 50.6998 40.8188 50.6801L40.9069 50.6978Z" fill="#11C97C"/>
<path fill-rule="evenodd" clip-rule="evenodd" d="M196.548 140.011H196.776L197.164 139.87C199.118 139.131 201.071 138.392 203.043 137.758C204.504 137.283 205.982 136.825 207.479 136.456C207.534 136.439 207.583 136.404 207.615 136.356C207.647 136.307 207.661 136.249 207.655 136.192C207.638 136.132 207.6 136.082 207.548 136.049C207.496 136.016 207.433 136.004 207.373 136.015C205.49 136.473 203.624 137.019 201.793 137.635C199.962 138.251 198.501 138.797 196.882 139.395C196.789 139.426 196.701 139.467 196.618 139.518C196.529 139.567 196.446 139.626 196.372 139.694C196.335 139.71 196.306 139.738 196.29 139.774C196.274 139.81 196.272 139.851 196.284 139.888C196.267 139.923 196.265 139.963 196.279 139.999C196.292 140.036 196.319 140.065 196.354 140.082C196.389 140.098 196.429 140.1 196.465 140.087C196.502 140.073 196.531 140.046 196.548 140.011Z" fill="#11C97C"/>
<path fill-rule="evenodd" clip-rule="evenodd" d="M200.437 132.547C200.476 132.656 200.523 132.762 200.577 132.864C201.07 133.938 201.616 134.976 202.197 135.997C202.778 137.018 203.605 138.321 204.362 139.518L205.066 140.521L205.4 140.926C205.419 140.945 205.44 140.96 205.465 140.971C205.489 140.981 205.515 140.986 205.541 140.986C205.568 140.986 205.594 140.981 205.618 140.971C205.642 140.96 205.664 140.945 205.682 140.926C205.715 140.89 205.734 140.843 205.734 140.794C205.734 140.745 205.715 140.698 205.682 140.662C205.576 140.486 205.488 140.31 205.383 140.151L204.644 139.007C204.115 138.197 203.605 137.388 203.095 136.56C202.355 135.311 201.669 134.043 201.053 132.723L200.859 132.336C200.56 132.195 201.106 132.248 200.859 132.336C200.823 132.302 200.776 132.284 200.727 132.284C200.678 132.284 200.631 132.302 200.595 132.336C200.549 132.355 200.512 132.392 200.493 132.438C200.473 132.484 200.472 132.536 200.489 132.582L200.437 132.547Z" fill="#11C97C"/>
<path fill-rule="evenodd" clip-rule="evenodd" d="M200.962 143.391C200.962 143.391 201.121 143.232 201.191 143.127C201.261 143.021 201.332 142.81 201.402 142.651C202.423 140.293 203.638 138.022 204.764 135.716C204.975 135.258 205.204 134.801 205.398 134.343C205.591 133.885 205.556 133.938 205.644 133.745C205.654 133.704 205.65 133.662 205.632 133.625C205.614 133.588 205.583 133.558 205.545 133.541C205.507 133.524 205.465 133.521 205.425 133.533C205.385 133.544 205.351 133.569 205.327 133.604C205.099 134.044 204.852 134.466 204.606 134.924C203.673 136.684 202.758 138.444 201.895 140.205C201.403 141.046 201.002 141.937 200.698 142.863C200.68 142.979 200.68 143.098 200.698 143.215C200.673 143.241 200.659 143.275 200.659 143.311C200.659 143.347 200.673 143.382 200.698 143.408C200.714 143.429 200.735 143.446 200.759 143.457C200.782 143.468 200.809 143.472 200.835 143.471C200.861 143.469 200.886 143.461 200.909 143.447C200.931 143.433 200.949 143.413 200.962 143.391Z" fill="#11C97C"/>
<path fill-rule="evenodd" clip-rule="evenodd" d="M199.047 134.765C199.078 134.815 199.12 134.857 199.17 134.888C199.298 134.967 199.433 135.032 199.575 135.082C201.335 135.892 203.007 136.737 204.855 137.511C205.771 137.916 206.616 138.321 207.637 138.638L208.481 138.902L208.869 138.99C208.889 138.997 208.911 138.999 208.933 138.998C208.955 138.996 208.976 138.99 208.996 138.981C209.016 138.971 209.033 138.957 209.048 138.941C209.062 138.924 209.073 138.905 209.08 138.884C209.087 138.863 209.09 138.841 209.088 138.82C209.086 138.798 209.081 138.776 209.071 138.757C209.061 138.737 209.047 138.72 209.031 138.705C209.014 138.691 208.995 138.68 208.974 138.673L208.27 138.356L207.214 137.934C204.873 136.983 202.514 135.857 200.173 134.783C199.927 134.641 199.668 134.523 199.399 134.431C199.341 134.412 199.28 134.412 199.223 134.431C199.186 134.417 199.146 134.418 199.11 134.432C199.073 134.447 199.044 134.474 199.026 134.509C199.009 134.543 199.005 134.584 199.015 134.621C199.025 134.659 199.049 134.691 199.082 134.712L199.047 134.765Z" fill="#11C97C"/>
<path fill-rule="evenodd" clip-rule="evenodd" d="M48.4071 179.158H48.7944C49.9737 179.158 51.065 178.929 52.1916 178.964C53.3181 178.999 54.4271 179.14 55.5889 179.211H55.9585C55.9876 179.216 56.0174 179.214 56.0461 179.207C56.0747 179.2 56.1015 179.187 56.1247 179.168C56.1479 179.15 56.1671 179.127 56.1809 179.101C56.1947 179.075 56.2029 179.046 56.205 179.017C56.21 178.987 56.2089 178.956 56.2018 178.926C56.1947 178.897 56.1817 178.869 56.1637 178.844C56.1457 178.819 56.1229 178.799 56.0967 178.783C56.0705 178.767 56.0415 178.757 56.0113 178.753H55.5536C54.1789 178.546 52.7896 178.452 51.3995 178.471C50.5746 178.46 49.7502 178.519 48.9352 178.647H48.6183C48.5208 178.693 48.4267 178.746 48.3367 178.806C48.3129 178.797 48.2873 178.795 48.2623 178.798C48.2373 178.802 48.2135 178.811 48.1929 178.826C48.1723 178.841 48.1555 178.86 48.1439 178.883C48.1323 178.905 48.1262 178.93 48.1262 178.955C48.1262 178.981 48.1323 179.005 48.1439 179.028C48.1555 179.05 48.1723 179.07 48.1929 179.084C48.2135 179.099 48.2373 179.109 48.2623 179.112C48.2873 179.116 48.3129 179.113 48.3367 179.105L48.4071 179.158Z" fill="#11C97C"/>
<path fill-rule="evenodd" clip-rule="evenodd" d="M51.9781 175.021C51.9161 175.144 51.8689 175.274 51.8373 175.408C51.7616 176.591 51.8685 177.779 52.1541 178.929C52.3684 180.461 52.68 181.978 53.087 183.47C53.175 183.77 53.2454 184.069 53.3511 184.35C53.3878 184.418 53.4174 184.488 53.4391 184.562C53.4557 184.625 53.4964 184.678 53.5524 184.711C53.6085 184.744 53.6753 184.754 53.7383 184.738C53.7989 184.718 53.8501 184.676 53.8824 184.621C53.9148 184.566 53.9261 184.501 53.9143 184.438C53.9143 184.122 53.7912 183.822 53.7207 183.506C53.4391 182.256 53.1222 181.024 52.911 179.774C52.6998 178.524 52.6118 176.958 52.4358 175.532C52.4442 175.456 52.4442 175.379 52.4358 175.303C52.4016 175.223 52.3603 175.147 52.3125 175.074C52.3125 175.032 52.2958 174.992 52.2661 174.962C52.2364 174.932 52.1961 174.916 52.1541 174.916C52.117 174.91 52.0789 174.917 52.0467 174.936C52.0144 174.955 51.9901 174.986 51.9781 175.021Z" fill="#11C97C"/>
<path fill-rule="evenodd" clip-rule="evenodd" d="M48.7384 184.774L49.4601 183.824L49.7594 183.401C50.5163 182.327 51.2907 181.236 52.0828 180.197C52.8749 179.159 53.7374 178.103 54.5647 177.064C54.8464 176.712 55.1456 176.36 55.4097 175.991L55.6033 175.709C55.6187 175.694 55.631 175.676 55.6394 175.657C55.6478 175.637 55.6522 175.616 55.6522 175.595C55.6522 175.573 55.6478 175.552 55.6394 175.532C55.631 175.513 55.6187 175.495 55.6033 175.48C55.5885 175.465 55.5707 175.452 55.5511 175.444C55.5314 175.436 55.5102 175.431 55.4889 175.431C55.4675 175.431 55.4464 175.436 55.4267 175.444C55.407 175.452 55.3893 175.465 55.3745 175.48L55.1808 175.656C54.9168 175.92 54.688 176.202 54.4416 176.483C53.2622 177.856 52.1181 179.3 51.0091 180.761C50.3754 181.623 49.7241 182.521 49.2489 183.383C49.0024 183.788 48.8088 184.193 48.58 184.598C48.5571 184.629 48.5448 184.666 48.5448 184.704C48.5448 184.742 48.5571 184.779 48.58 184.809C48.6071 184.818 48.6362 184.82 48.6641 184.813C48.6919 184.807 48.7176 184.794 48.7384 184.774Z" fill="#11C97C"/>
<path fill-rule="evenodd" clip-rule="evenodd" d="M49.745 176.149C50.3962 176.765 51.0299 177.398 51.646 178.032L54.5152 180.866C54.9904 181.324 55.4833 181.799 55.9938 182.239L56.6626 182.802C56.7099 182.828 56.7647 182.837 56.8176 182.826C56.8704 182.815 56.9178 182.787 56.9514 182.744C56.9851 182.702 57.0028 182.65 57.0015 182.596C57.0002 182.542 56.9799 182.49 56.9443 182.45L55.9762 181.552C54.6736 180.32 53.4414 179.035 52.1388 177.821C51.4348 177.152 50.6955 176.536 49.9562 175.92C49.9414 175.904 49.9236 175.892 49.904 175.884C49.8843 175.875 49.8631 175.871 49.8418 175.871C49.8204 175.871 49.7992 175.875 49.7796 175.884C49.7599 175.892 49.7421 175.904 49.7273 175.92C49.713 175.936 49.702 175.954 49.6951 175.975C49.6882 175.995 49.6855 176.016 49.6871 176.038C49.6888 176.059 49.6947 176.08 49.7047 176.099C49.7146 176.118 49.7283 176.135 49.745 176.149Z" fill="#11C97C"/>
<path fill-rule="evenodd" clip-rule="evenodd" d="M170.373 2.09704C163.649 -1.19458 157.013 -0.20888 150.553 2.29064C144.093 4.79016 138.108 8.62743 132.211 11.2326C130.226 12.0164 128.14 12.5143 126.015 12.7112C123.818 12.9231 121.659 13.4201 119.59 14.1898C119.507 14.2245 119.432 14.2752 119.368 14.3391C119.304 14.403 119.254 14.4787 119.22 14.5621C119.185 14.6454 119.168 14.7347 119.168 14.8249C119.168 14.915 119.186 15.0043 119.221 15.0875C119.253 15.1722 119.303 15.2495 119.366 15.3144C119.43 15.3794 119.506 15.4307 119.59 15.4653C119.674 15.4999 119.764 15.517 119.855 15.5156C119.946 15.5142 120.035 15.4943 120.118 15.4572C122.079 14.7325 124.127 14.2708 126.209 14.0842C128.463 13.8709 130.675 13.3313 132.774 12.4824C138.654 9.89484 144.762 6.02234 151.046 3.57563C157.33 1.12891 163.367 0.23117 169.774 3.32917C169.856 3.37592 169.946 3.4054 170.04 3.41576C170.133 3.42612 170.228 3.41712 170.318 3.38939C170.408 3.36165 170.491 3.31575 170.562 3.2545C170.634 3.19325 170.692 3.11802 170.733 3.0334C170.774 2.94878 170.797 2.8566 170.801 2.76261C170.805 2.66862 170.79 2.57478 170.756 2.48698C170.722 2.39918 170.671 2.31927 170.605 2.25218C170.539 2.18509 170.46 2.13231 170.373 2.09704Z" fill="#11C97C"/>
<path d="M141.134 175.716L141.16 175.037L140.482 175.005L100.543 173.086L103.341 151.02L166.117 157.242C166.1 157.462 166.079 157.733 166.053 158.05C165.978 158.997 165.866 160.359 165.722 162.021C165.433 165.347 165.014 169.874 164.492 174.68C163.97 179.488 163.346 184.57 162.647 189.008C161.947 193.464 161.179 197.215 160.382 199.393C159.61 201.486 158.357 202.847 156.828 203.722C155.284 204.606 153.42 205.013 151.415 205.122C148.187 205.298 144.751 204.699 141.906 204.203C141.403 204.115 140.919 204.031 140.457 203.954C140.411 199.886 140.571 193.067 140.747 187.138C140.839 184.033 140.936 181.177 141.01 179.098C141.047 178.058 141.078 177.213 141.1 176.627C141.11 176.334 141.119 176.106 141.125 175.952L141.132 175.776L141.133 175.731L141.134 175.72L141.134 175.717L141.134 175.716C141.134 175.716 141.134 175.716 140.449 175.69L141.134 175.716Z" fill="#14F195" stroke="black" stroke-width="1.37143"/>
<path d="M118.393 182.872L117.707 182.858L117.698 183.326L118.131 183.505C124.557 186.163 129.986 190.772 133.652 196.681L133.656 196.687C137.9 203.381 140.742 210.863 142.014 218.682L101.636 228.244L93.1934 181.533L99.6709 129.434C99.7382 129.418 99.8127 129.4 99.8941 129.381C100.324 129.282 100.943 129.152 101.695 129.03C103.202 128.786 105.221 128.576 107.301 128.705C109.386 128.835 111.481 129.301 113.179 130.365C114.855 131.415 116.185 133.07 116.736 135.679C117.162 137.749 117.443 141.716 117.619 146.561C117.793 151.388 117.861 157.029 117.874 162.409C117.888 167.787 117.846 172.9 117.801 176.668C117.778 178.553 117.755 180.1 117.737 181.177C117.728 181.715 117.721 182.136 117.716 182.421L117.71 182.747L117.708 182.83L117.707 182.851L117.707 182.856L117.707 182.858C117.707 182.858 117.707 182.858 118.393 182.872Z" fill="#14F195" stroke="url(#paint0_linear_1993_3099)" stroke-width="1.37143"/>
<defs>
<linearGradient id="paint0_linear_1993_3099" x1="117.645" y1="127.98" x2="140.343" y2="218.971" gradientUnits="userSpaceOnUse">
<stop/>
<stop offset="0.746758" stop-opacity="0.86"/>
<stop offset="1" stop-opacity="0"/>
</linearGradient>
</defs>
</svg>
