<svg width="50" height="50" viewBox="0 0 50 50" fill="none" xmlns="http://www.w3.org/2000/svg">
<rect x="0.5" y="0.5" width="49" height="49" rx="24.5" fill="#8AF8CA"/>
<rect x="0.5" y="0.5" width="49" height="49" rx="24.5" stroke="black"/>
<path d="M19.6667 28.2002L19.6667 21.8002" stroke="black" stroke-width="1.2" stroke-linecap="round" stroke-linejoin="round"/>
<path d="M34.4222 21.7998H31.6462C29.7429 21.7998 28.2 23.2325 28.2 24.9998C28.2 26.7671 29.7429 28.1998 31.6462 28.1998H34.4222C34.5111 28.1998 34.5556 28.1998 34.5931 28.1975C35.1683 28.1625 35.6265 27.737 35.6642 27.2029C35.6667 27.1681 35.6667 27.1268 35.6667 27.0442V22.9554C35.6667 22.8728 35.6667 22.8316 35.6642 22.7967C35.6265 22.2626 35.1683 21.8371 34.5931 21.8021C34.5556 21.7998 34.5111 21.7998 34.4222 21.7998Z" stroke="black" stroke-width="1.2"/>
<circle cx="31.4" cy="25.0003" r="1.06667" fill="black"/>
<path d="M34.5627 21.8001C34.4797 19.803 34.2124 18.5785 33.3503 17.7165C32.1006 16.4668 30.0893 16.4668 26.0666 16.4668L22.8666 16.4668C18.844 16.4668 16.8327 16.4668 15.583 17.7165C14.3333 18.9662 14.3333 20.9775 14.3333 25.0001C14.3333 29.0228 14.3333 31.0341 15.583 32.2838C16.8327 33.5335 18.844 33.5335 22.8666 33.5335H26.0666C30.0893 33.5335 32.1006 33.5335 33.3503 32.2838C34.2124 31.4217 34.4797 30.1973 34.5627 28.2001" stroke="black" stroke-width="1.2"/>
</svg>
