<svg width="30" height="30" viewBox="0 0 30 30" fill="none" xmlns="http://www.w3.org/2000/svg">
<path d="M8.12911 8.29493C8 8.47689 8 8.73459 8 9.25C8 9.76541 8 10.0231 8.12911 10.2051C8.17467 10.2693 8.23073 10.3253 8.29493 10.3709C8.47689 10.5 8.73459 10.5 9.25 10.5C9.76541 10.5 10.0231 10.5 10.2051 10.3709C10.2693 10.3253 10.3253 10.2693 10.3709 10.2051C10.5 10.0231 10.5 9.76541 10.5 9.25C10.5 8.73459 10.5 8.47689 10.3709 8.29493C10.3253 8.23073 10.2693 8.17467 10.2051 8.12911C10.0231 8 9.76541 8 9.25 8C8.73459 8 8.47689 8 8.29493 8.12911C8.23073 8.17467 8.17467 8.23073 8.12911 8.29493Z" fill="black"/>
<path fill-rule="evenodd" clip-rule="evenodd" d="M11.7042 4.29021C12.1465 4.33227 12.5588 4.42353 12.9369 4.65524C13.3069 4.88199 13.618 5.1931 13.8448 5.56313C14.0765 5.94125 14.1677 6.35349 14.2098 6.79585C14.25 7.21899 14.25 7.73995 14.25 8.36422L14.25 9.552C14.25 10.4505 14.2501 11.1997 14.1701 11.7945C14.0857 12.4223 13.9 12.9891 13.4445 13.4445C12.9891 13.9 12.4223 14.0857 11.7945 14.1701C11.1997 14.2501 10.4505 14.25 9.55203 14.25L8.3643 14.25C7.74004 14.25 7.21899 14.25 6.79585 14.2098C6.35349 14.1677 5.94125 14.0765 5.56313 13.8448C5.1931 13.618 4.88199 13.3069 4.65524 12.9369C4.42353 12.5588 4.33227 12.1465 4.29021 11.7042C4.24997 11.281 4.24999 10.76 4.25 10.1357V10.0624C4.24999 9.11229 4.24998 8.34606 4.30863 7.72927C4.36911 7.09318 4.49721 6.53898 4.8026 6.04063C5.11181 5.53605 5.53605 5.11181 6.04063 4.8026C6.53898 4.49721 7.09318 4.36911 7.72927 4.30863C8.34607 4.24998 9.11227 4.24999 10.0623 4.25H10.1357C10.76 4.24999 11.281 4.24997 11.7042 4.29021ZM11.5622 5.78347C11.2184 5.75079 10.7692 5.75 10.1 5.75C9.10345 5.75 8.4087 5.75079 7.87125 5.80189C7.34496 5.85193 7.04744 5.94487 6.82438 6.08156C6.52163 6.26709 6.26709 6.52163 6.08156 6.82438C5.94487 7.04744 5.85193 7.34496 5.80189 7.87125C5.75079 8.4087 5.75 9.10345 5.75 10.1C5.75 10.7692 5.75079 11.2184 5.78347 11.5622C5.81509 11.8947 5.87119 12.0503 5.9342 12.1531C6.03727 12.3213 6.17868 12.4627 6.34688 12.5658C6.4497 12.6288 6.60527 12.6849 6.93783 12.7165C7.28155 12.7492 7.73079 12.75 8.4 12.75H9.5C10.464 12.75 11.1116 12.7484 11.5946 12.6835C12.0561 12.6214 12.2536 12.5142 12.3839 12.3839C12.5142 12.2536 12.6214 12.0561 12.6835 11.5946C12.7484 11.1116 12.75 10.464 12.75 9.5V8.4C12.75 7.73079 12.7492 7.28155 12.7165 6.93783C12.6849 6.60527 12.6288 6.4497 12.5658 6.34688C12.4627 6.17868 12.3213 6.03727 12.1531 5.9342C12.0503 5.87119 11.8947 5.81509 11.5622 5.78347Z" fill="black"/>
<path d="M19.6291 8.29493C19.5 8.47689 19.5 8.73459 19.5 9.25C19.5 9.76541 19.5 10.0231 19.6291 10.2051C19.6747 10.2693 19.7307 10.3253 19.7949 10.3709C19.9769 10.5 20.2346 10.5 20.75 10.5C21.2654 10.5 21.5231 10.5 21.7051 10.3709C21.7693 10.3253 21.8253 10.2693 21.8709 10.2051C22 10.0231 22 9.76541 22 9.25C22 8.73459 22 8.47689 21.8709 8.29493C21.8253 8.23073 21.7693 8.17467 21.7051 8.12911C21.5231 8 21.2654 8 20.75 8C20.2346 8 19.9769 8 19.7949 8.12911C19.7307 8.17467 19.6747 8.23073 19.6291 8.29493Z" fill="black"/>
<path fill-rule="evenodd" clip-rule="evenodd" d="M19.8643 4.25H19.9377C20.8877 4.24999 21.6539 4.24998 22.2707 4.30863C22.9068 4.36911 23.461 4.49721 23.9594 4.8026C24.464 5.11181 24.8882 5.53605 25.1974 6.04063C25.5028 6.53898 25.6309 7.09318 25.6914 7.72927C25.75 8.34607 25.75 9.11227 25.75 10.0623V10.1357C25.75 10.76 25.75 11.281 25.7098 11.7042C25.6677 12.1465 25.5765 12.5588 25.3448 12.9369C25.118 13.3069 24.8069 13.618 24.4369 13.8448C24.0588 14.0765 23.6465 14.1677 23.2042 14.2098C22.781 14.25 22.2601 14.25 21.6359 14.25L20.448 14.25C19.5495 14.25 18.8003 14.2501 18.2055 14.1701C17.5777 14.0857 17.0109 13.9 16.5555 13.4445C16.1 12.9891 15.9143 12.4223 15.8299 11.7945C15.7499 11.1997 15.75 10.4505 15.75 9.552V8.36431C15.75 7.74001 15.75 7.21901 15.7902 6.79585C15.8323 6.35349 15.9235 5.94125 16.1552 5.56313C16.382 5.1931 16.6931 4.88199 17.0631 4.65524C17.4412 4.42353 17.8535 4.33227 18.2959 4.29021C18.719 4.24997 19.24 4.24999 19.8643 4.25ZM18.4378 5.78347C18.1053 5.81509 17.9497 5.87119 17.8469 5.9342C17.6787 6.03727 17.5373 6.17868 17.4342 6.34688C17.3712 6.4497 17.3151 6.60527 17.2835 6.93783C17.2508 7.28155 17.25 7.73079 17.25 8.4V9.5C17.25 10.464 17.2516 11.1116 17.3165 11.5946C17.3786 12.0561 17.4858 12.2536 17.6161 12.3839C17.7464 12.5142 17.9439 12.6214 18.4054 12.6835C18.8884 12.7484 19.536 12.75 20.5 12.75H21.6C22.2692 12.75 22.7184 12.7492 23.0622 12.7165C23.3947 12.6849 23.5503 12.6288 23.6531 12.5658C23.8213 12.4627 23.9627 12.3213 24.0658 12.1531C24.1288 12.0503 24.1849 11.8947 24.2165 11.5622C24.2492 11.2184 24.25 10.7692 24.25 10.1C24.25 9.10345 24.2492 8.4087 24.1981 7.87125C24.1481 7.34496 24.0551 7.04744 23.9184 6.82438C23.7329 6.52163 23.4784 6.26709 23.1756 6.08156C22.9526 5.94487 22.655 5.85193 22.1288 5.80189C21.5913 5.75079 20.8966 5.75 19.9 5.75C19.2308 5.75 18.7816 5.75079 18.4378 5.78347Z" fill="black"/>
<path d="M8 20.75C8 20.2346 8 19.9769 8.12911 19.7949C8.17467 19.7307 8.23073 19.6747 8.29493 19.6291C8.47689 19.5 8.73459 19.5 9.25 19.5C9.76541 19.5 10.0231 19.5 10.2051 19.6291C10.2693 19.6747 10.3253 19.7307 10.3709 19.7949C10.5 19.9769 10.5 20.2346 10.5 20.75C10.5 21.2654 10.5 21.5231 10.3709 21.7051C10.3253 21.7693 10.2693 21.8253 10.2051 21.8709C10.0231 22 9.76541 22 9.25 22C8.73459 22 8.47689 22 8.29493 21.8709C8.23073 21.8253 8.17467 21.7693 8.12911 21.7051C8 21.5231 8 21.2654 8 20.75Z" fill="black"/>
<path fill-rule="evenodd" clip-rule="evenodd" d="M11.7945 15.8299C12.4223 15.9143 12.9891 16.1 13.4445 16.5555C13.9 17.0109 14.0857 17.5777 14.1701 18.2055C14.2501 18.8003 14.25 19.5495 14.25 20.448L14.25 21.6357C14.25 22.2599 14.25 22.781 14.2098 23.2042C14.1677 23.6465 14.0765 24.0588 13.8448 24.4369C13.618 24.8069 13.3069 25.118 12.9369 25.3448C12.5588 25.5765 12.1465 25.6677 11.7042 25.7098C11.281 25.75 10.76 25.75 10.1357 25.75H10.0623C9.11227 25.75 8.34607 25.75 7.72927 25.6914C7.09318 25.6309 6.53898 25.5028 6.04063 25.1974C5.53605 24.8882 5.11181 24.464 4.8026 23.9594C4.49721 23.461 4.36911 22.9068 4.30863 22.2707C4.24998 21.6539 4.24999 20.8877 4.25 19.9377V19.8643C4.24999 19.24 4.24997 18.719 4.29021 18.2959C4.33227 17.8535 4.42353 17.4412 4.65524 17.0631C4.88199 16.6931 5.1931 16.382 5.56313 16.1552C5.94125 15.9235 6.35349 15.8323 6.79585 15.7902C7.21901 15.75 7.74001 15.75 8.36431 15.75H9.552C10.4505 15.75 11.1997 15.7499 11.7945 15.8299ZM11.5946 17.3165C11.1116 17.2516 10.464 17.25 9.5 17.25H8.4C7.73079 17.25 7.28155 17.2508 6.93783 17.2835C6.60527 17.3151 6.4497 17.3712 6.34688 17.4342C6.17868 17.5373 6.03727 17.6787 5.9342 17.8469C5.87119 17.9497 5.81509 18.1053 5.78347 18.4378C5.75079 18.7816 5.75 19.2308 5.75 19.9C5.75 20.8966 5.75079 21.5913 5.80189 22.1288C5.85193 22.655 5.94487 22.9526 6.08156 23.1756C6.26709 23.4784 6.52163 23.7329 6.82438 23.9184C7.04744 24.0551 7.34496 24.1481 7.87125 24.1981C8.4087 24.2492 9.10345 24.25 10.1 24.25C10.7692 24.25 11.2184 24.2492 11.5622 24.2165C11.8947 24.1849 12.0503 24.1288 12.1531 24.0658C12.3213 23.9627 12.4627 23.8213 12.5658 23.6531C12.6288 23.5503 12.6849 23.3947 12.7165 23.0622C12.7492 22.7184 12.75 22.2692 12.75 21.6V20.5C12.75 19.536 12.7484 18.8884 12.6835 18.4054C12.6214 17.9439 12.5142 17.7464 12.3839 17.6161C12.2536 17.4858 12.0561 17.3786 11.5946 17.3165Z" fill="black"/>
<path d="M19.9617 15.75L22 15.75V17.25H20C19.2822 17.25 18.8002 17.2509 18.4328 17.2883C18.078 17.3244 17.914 17.3882 17.8055 17.4607C17.6691 17.5519 17.5519 17.6691 17.4607 17.8055C17.3882 17.914 17.3244 18.078 17.2883 18.4328C17.2509 18.8002 17.25 19.2822 17.25 20H15.75L15.75 19.9617C15.75 19.2921 15.75 18.7333 15.796 18.281C15.8442 17.8075 15.9489 17.3682 16.2135 16.9722C16.4141 16.6719 16.6719 16.4141 16.9722 16.2135C17.3682 15.9489 17.8075 15.8442 18.281 15.796C18.7333 15.75 19.2921 15.75 19.9617 15.75Z" fill="black"/>
<path d="M15.75 25V22H17.25V25C17.25 25.4142 16.9142 25.75 16.5 25.75C16.0858 25.75 15.75 25.4142 15.75 25Z" fill="black"/>
<path d="M25.75 16.5C25.75 16.0858 25.4142 15.75 25 15.75C24.5858 15.75 24.25 16.0858 24.25 16.5V20H25.75V16.5Z" fill="black"/>
<path d="M24.25 22C24.25 22.4762 24.2496 22.7958 24.2327 23.0433C24.2163 23.284 24.1868 23.4012 24.1549 23.4784C24.028 23.7846 23.7846 24.028 23.4784 24.1549C23.4012 24.1868 23.284 24.2163 23.0433 24.2327C22.7958 24.2496 22.4762 24.25 22 24.25H20V25.75H22.0253C22.4697 25.75 22.8408 25.75 23.1454 25.7292C23.4625 25.7076 23.762 25.661 24.0524 25.5407C24.7262 25.2616 25.2616 24.7262 25.5407 24.0524C25.661 23.762 25.7076 23.4625 25.7292 23.1454C25.75 22.8408 25.75 22.4698 25.75 22.0253V22H24.25Z" fill="black"/>
<path d="M19.1685 19.4444C19 19.6967 19 20.0478 19 20.75C19 21.4522 19 21.8033 19.1685 22.0556C19.2415 22.1648 19.3352 22.2585 19.4444 22.3315C19.6967 22.5 20.0478 22.5 20.75 22.5C21.4522 22.5 21.8033 22.5 22.0556 22.3315C22.1648 22.2585 22.2585 22.1648 22.3315 22.0556C22.5 21.8033 22.5 21.4522 22.5 20.75C22.5 20.0478 22.5 19.6967 22.3315 19.4444C22.2585 19.3352 22.1648 19.2415 22.0556 19.1685C21.8033 19 21.4522 19 20.75 19C20.0478 19 19.6967 19 19.4444 19.1685C19.3352 19.2415 19.2415 19.3352 19.1685 19.4444Z" fill="black"/>
</svg>
