<svg width="393" height="320" viewBox="0 0 393 320" fill="none" xmlns="http://www.w3.org/2000/svg">
<g clip-path="url(#clip0_998_2353)">
<path d="M225.159 56.0637V75.3745C225.159 107.095 218.749 138.489 206.315 167.673C193.881 196.857 175.678 223.23 152.798 245.21C149.303 248.567 144.644 250.442 139.797 250.442C134.95 250.442 130.291 248.567 126.796 245.21C103.916 223.23 85.7131 196.858 73.2787 167.674C60.8444 138.49 54.4349 107.095 54.4349 75.3746V56.0639L139.797 16.3862L225.159 56.0637Z" fill="#14F195"/>
<path d="M224.225 56.0644C224.225 63.366 224.291 70.6709 224.211 77.9723C223.849 110.735 216.627 143.058 203.01 172.861C196.226 187.687 187.923 201.769 178.233 214.883C173.362 221.469 168.147 227.793 162.61 233.83C159.819 236.875 156.95 239.846 154.001 242.741C151.339 245.355 148.655 247.632 145.012 248.734C141.507 249.792 137.763 249.759 134.278 248.639C130.641 247.47 127.993 245.107 125.328 242.481C119.456 236.696 113.892 230.607 108.657 224.239C77.3401 186.094 58.8482 139.052 55.8101 89.7994C55.1851 79.6197 55.3683 69.4052 55.3683 59.2115V56.0644L54.9061 56.8699L63.402 52.9209L83.8026 43.4384L108.377 32.0159L129.725 22.0928L136.791 18.8088C137.843 18.3195 139.161 17.9252 140.119 17.2617C140.167 17.2346 140.217 17.2115 140.268 17.1924H139.326L147.822 21.1415L168.222 30.624L192.797 42.0466L214.145 51.9697C217.6 53.5755 221.022 55.3327 224.539 56.8008C224.589 56.8219 224.638 56.847 224.688 56.8701C225.77 57.3732 226.719 55.7653 225.63 55.259L217.068 51.2796L196.535 41.7354L171.857 30.2645L150.527 20.3502C147.165 18.7872 143.828 17.004 140.38 15.6335C139.55 15.3036 138.845 15.8049 138.085 16.158L132.868 18.5833L113.55 27.5624L88.9009 39.0196L66.723 49.3283L54.5309 54.9954L53.964 55.2589C53.8224 55.34 53.7048 55.4574 53.6236 55.599C53.5424 55.7405 53.5003 55.9012 53.5018 56.0644C53.5018 63.6127 53.4181 71.166 53.5255 78.7137C54.3654 137.282 76.9076 193.458 116.79 236.37C119.647 239.443 122.584 242.437 125.601 245.355C128.121 247.893 131.255 249.737 134.698 250.708C138.144 251.621 141.772 251.592 145.203 250.623C148.733 249.617 151.65 247.627 154.259 245.097C160.269 239.269 165.964 233.125 171.32 226.691C203.306 188.298 222.301 140.761 225.58 90.904C226.275 80.3856 226.092 69.8334 226.092 59.2983V56.0644C226.092 54.8639 224.225 54.8619 224.225 56.0644Z" fill="black"/>
<path d="M123.897 241.304C115.092 232.537 107.186 222.912 100.297 212.572C94.7676 204.218 89.699 195.241 86.7496 185.62C85.5789 181.783 84.935 177.805 84.8356 173.795L84.502 162.338L83.9644 143.878L83.3437 122.563L82.7607 102.544L82.3363 87.9704C82.2642 85.4949 82.428 82.7571 81.9694 80.3172C81.497 77.9493 80.3274 75.7767 78.6106 74.0783C76.8939 72.38 74.7084 71.2334 72.335 70.7859C71.2736 70.5989 70.2027 70.6478 69.1415 70.4767C67.2967 70.1856 65.5402 69.4863 64.0004 68.4298C62.4605 67.3734 61.1761 65.9866 60.2409 64.3705C59.3563 62.8413 58.9445 61.1795 58.4998 59.49C58.1943 58.3299 56.3935 58.8219 56.7 59.986C57.0855 61.7569 57.6918 63.4725 58.5049 65.0924C59.7083 67.2562 61.4501 69.0728 63.5616 70.3666C65.6732 71.6604 68.083 72.3875 70.558 72.4776C72.876 72.5549 75.0962 73.4304 76.8427 74.956C79.2913 77.1194 80.2671 79.9863 80.33 83.1749C80.3481 84.0873 80.3832 84.9997 80.4098 85.9118L80.7853 98.8062L81.3443 118.004L81.9697 139.479L82.537 158.959L82.9238 172.241C83.0105 175.219 83.0983 178.139 83.6731 181.083C85.4584 190.228 89.8184 198.904 94.5196 206.865C100.709 217.214 107.933 226.909 116.08 235.801C118.19 238.128 120.355 240.402 122.577 242.623C123.426 243.474 124.747 242.155 123.897 241.304Z" fill="black"/>
<path d="M138.791 30.818C138.729 32.0991 138.67 33.3803 138.615 34.6617C138.458 38.1948 138.31 41.7282 138.172 45.2621C137.959 50.6479 137.762 56.0343 137.582 61.4214C137.355 68.1807 137.152 74.9407 136.974 81.7014C136.769 89.4651 136.6 97.2296 136.465 104.995C136.324 113.262 136.231 121.529 136.185 129.798C136.142 138.213 136.165 146.629 136.253 155.044C136.346 163.102 136.511 171.159 136.794 179.212C137.051 186.557 137.403 193.9 137.934 201.23C138.382 207.403 138.952 213.571 139.8 219.703C139.978 220.989 140.171 222.272 140.38 223.554C140.573 224.736 142.371 224.234 142.179 223.058C141.245 217.332 140.642 211.554 140.156 205.775C139.562 198.714 139.165 191.637 138.866 184.558C138.531 176.603 138.325 168.643 138.197 160.683C138.063 152.343 138.008 144.002 138.032 135.66C138.046 127.328 138.116 118.997 138.242 110.666C138.357 102.772 138.512 94.8784 138.706 86.9856C138.878 79.9567 139.076 72.9285 139.302 65.9011C139.485 60.1658 139.686 54.4308 139.905 48.6964C140.058 44.6821 140.221 40.6681 140.394 36.6545C140.475 34.7935 140.627 32.9221 140.646 31.0592C140.647 30.9788 140.654 30.8981 140.657 30.8178C140.716 29.6178 138.849 29.6208 138.791 30.818Z" fill="black"/>
<path d="M82.7344 123.763C84.6998 123.15 86.7081 122.657 88.7088 122.175C94.3231 120.821 100.002 119.733 105.704 118.821C114.436 117.425 123.237 116.468 132.06 115.881C143.564 115.121 155.101 114.98 166.62 115.459C180.348 116.024 194.027 117.447 207.577 119.718C209.35 120.016 211.121 120.328 212.89 120.654C214.064 120.87 214.568 119.072 213.386 118.854C199.534 116.301 185.534 114.622 171.471 113.829C159.629 113.161 147.759 113.146 135.915 113.782C126.615 114.286 117.351 115.216 108.123 116.573C101.969 117.487 95.8408 118.603 89.7789 120.006C87.2976 120.58 84.7505 121.119 82.3328 121.935C82.3016 121.946 82.2697 121.954 82.2382 121.964C81.0954 122.321 81.5832 124.123 82.7344 123.763Z" fill="black"/>
<path d="M60.1072 130.424C60.9455 132.078 61.9642 133.595 63.1368 134.934C66.0819 138.43 69.5435 141.257 73.3498 143.274C76.4388 144.932 79.6752 146.174 82.9982 146.977C84.0039 147.225 84.4339 145.397 83.4239 145.148C78.2105 143.864 73.1595 141.606 68.7502 138.031C67.2871 136.849 65.9155 135.516 64.6516 134.047C64.1604 133.474 63.6881 132.88 63.2346 132.264C63.0476 132.009 62.8645 131.75 62.6853 131.487C62.6135 131.381 62.5429 131.275 62.4721 131.168C62.4589 131.149 62.56 131.307 62.4613 131.152C62.4238 131.093 62.3858 131.034 62.3484 130.975C62.034 130.496 61.7473 129.992 61.4903 129.467C60.9905 128.399 59.6066 129.355 60.1072 130.424Z" fill="black"/>
<path d="M259.222 53.8298C268.99 53.8298 276.908 45.9141 276.908 36.1497C276.908 26.3852 268.99 18.4696 259.222 18.4696C249.454 18.4696 241.536 26.3852 241.536 36.1497C241.536 45.9141 249.454 53.8298 259.222 53.8298Z" fill="#FF4569"/>
<path d="M258.288 18.4694C258.268 21.8806 257.216 25.2059 255.27 28.0082C253.325 30.8106 250.576 32.9587 247.386 34.1702C245.512 34.8575 243.531 35.2116 241.535 35.2166C241.293 35.2251 241.064 35.3271 240.896 35.5011C240.728 35.6751 240.634 35.9076 240.634 36.1494C240.634 36.3913 240.728 36.6238 240.896 36.7978C241.064 36.9718 241.293 37.0738 241.535 37.0823C244.947 37.1022 248.274 38.1539 251.077 40.099C253.88 42.0442 256.029 44.7918 257.241 47.9806C257.929 49.8543 258.283 51.8338 258.288 53.8295C258.296 54.0713 258.398 54.3003 258.573 54.4683C258.747 54.6363 258.979 54.7302 259.221 54.7302C259.463 54.7302 259.696 54.6363 259.87 54.4683C260.044 54.3003 260.146 54.0713 260.154 53.8295C260.174 50.4183 261.226 47.093 263.172 44.2907C265.118 41.4883 267.866 39.3402 271.056 38.1286C272.931 37.4414 274.911 37.0872 276.907 37.0823C277.149 37.0738 277.378 36.9718 277.546 36.7978C277.714 36.6238 277.808 36.3913 277.808 36.1494C277.808 35.9076 277.714 35.6751 277.546 35.5011C277.378 35.3271 277.149 35.2251 276.907 35.2166C273.495 35.1966 270.169 34.145 267.365 32.1998C264.562 30.2546 262.413 27.507 261.201 24.3182C260.514 22.4445 260.159 20.465 260.155 18.4693C260.149 17.2689 258.283 17.2666 258.288 18.4694C258.287 20.9139 258.768 23.3345 259.704 25.593C260.639 27.8516 262.011 29.9038 263.74 31.6323C265.469 33.3608 267.522 34.7318 269.781 35.667C272.041 36.6021 274.462 37.0831 276.907 37.0823V35.2166C274.462 35.2158 272.041 35.6967 269.781 36.6318C267.522 37.567 265.469 38.938 263.74 40.6665C262.011 42.395 260.639 44.4472 259.704 46.7058C258.768 48.9643 258.287 51.385 258.288 53.8295H260.154C260.155 51.385 259.674 48.9643 258.739 46.7058C257.803 44.4472 256.432 42.395 254.703 40.6665C252.974 38.938 250.921 37.567 248.661 36.6318C246.402 35.6967 243.98 35.2158 241.535 35.2166V37.0823C245.34 37.0534 249.047 35.8726 252.168 33.6954C255.288 31.5183 257.675 28.447 259.015 24.8865C259.768 22.8308 260.154 20.6586 260.155 18.4693C260.16 17.2685 258.293 17.267 258.288 18.4694Z" fill="black"/>
<path d="M210.739 33.928C216.923 33.928 221.937 28.9159 221.937 22.7332C221.937 16.5505 216.923 11.5385 210.739 11.5385C204.554 11.5385 199.54 16.5505 199.54 22.7332C199.54 28.9159 204.554 33.928 210.739 33.928Z" fill="#FF4569"/>
<path d="M209.805 11.5381C209.778 14.2512 208.687 16.8453 206.768 18.7638C204.849 20.6823 202.254 21.7724 199.54 21.8C199.298 21.8083 199.068 21.9103 198.9 22.0843C198.732 22.2583 198.638 22.4909 198.638 22.7329C198.638 22.9749 198.732 23.2074 198.9 23.3815C199.068 23.5555 199.298 23.6575 199.54 23.6658C202.254 23.6934 204.849 24.7835 206.768 26.702C208.687 28.6205 209.778 31.2146 209.805 33.9276C209.814 34.1694 209.916 34.3984 210.09 34.5664C210.264 34.7344 210.496 34.8283 210.738 34.8283C210.98 34.8283 211.213 34.7344 211.387 34.5664C211.561 34.3984 211.663 34.1694 211.672 33.9276C211.699 31.2146 212.79 28.6205 214.709 26.702C216.628 24.7835 219.223 23.6934 221.937 23.6658C222.179 23.6575 222.408 23.5555 222.577 23.3815C222.745 23.2074 222.839 22.9749 222.839 22.7329C222.839 22.4909 222.745 22.2583 222.577 22.0843C222.408 21.9103 222.179 21.8083 221.937 21.8C219.223 21.7724 216.628 20.6823 214.709 18.7638C212.79 16.8453 211.699 14.2512 211.672 11.5381C211.663 10.3381 209.797 10.3353 209.805 11.5381C209.805 14.7546 211.083 17.8393 213.359 20.1137C215.634 22.388 218.72 23.6658 221.937 23.6658V21.8C218.72 21.8 215.634 23.0778 213.359 25.3521C211.083 27.6265 209.805 30.7112 209.805 33.9276H211.672C211.672 30.7112 210.393 27.6265 208.118 25.3521C205.843 23.0777 202.757 21.8 199.54 21.8V23.6658C202.757 23.6658 205.843 22.3881 208.118 20.1137C210.393 17.8393 211.672 14.7546 211.672 11.5381C211.68 10.3373 209.814 10.336 209.805 11.5381Z" fill="black"/>
<path d="M173.009 117.577C173.781 106.326 173.777 106.559 173.777 99.9783C173.776 93.3981 178.565 92.4268 180.152 98.9522C181.669 109.477 180.164 127.922 180.164 127.922L207.538 150.54L260.585 151.162L259.488 172.618L181.719 170.442L149.989 135.924L153.1 120.376L164.61 112.291" fill="#F8F5ED"/>
<path d="M173.942 117.578C174.196 113.876 174.498 110.172 174.638 106.463C174.682 105.319 174.699 104.174 174.705 103.029C174.714 101.347 174.541 99.5663 174.908 97.9176C175.037 97.201 175.336 96.5258 175.78 95.9491C175.931 95.7463 176.138 95.5917 176.375 95.5043C176.21 95.5769 176.553 95.4622 176.617 95.4509C176.414 95.487 176.767 95.4559 176.849 95.4628C176.644 95.4454 177.018 95.5116 177.087 95.536C177.34 95.6236 176.947 95.4496 177.188 95.5851C177.243 95.6155 177.296 95.6464 177.349 95.6786C177.605 95.8501 177.831 96.0643 178.015 96.3119C178.574 97.0981 178.971 97.9877 179.182 98.9288C179.373 99.8244 179.489 100.734 179.53 101.649C179.621 102.648 179.688 103.649 179.741 104.65C179.851 106.767 179.893 108.888 179.896 111.007C179.9 114.878 179.776 118.749 179.572 122.614C179.504 123.882 179.428 125.149 179.341 126.416C179.307 126.909 179.219 127.425 179.23 127.92C179.243 128.451 179.609 128.67 179.963 128.962L181.458 130.197L186.759 134.577L200.404 145.851L205.362 149.947C205.922 150.41 206.803 151.428 207.578 151.474C208.402 151.522 209.238 151.493 210.062 151.503L215.697 151.569L232.447 151.765L249.892 151.97L260.095 152.089L260.584 152.095L259.651 151.162L259.282 158.385L258.69 169.968L258.554 172.619L259.487 171.686L251.722 171.468L233.193 170.95L210.674 170.319L191.304 169.777L184.886 169.598C183.883 169.57 182.851 169.468 181.848 169.513C181.805 169.515 181.762 169.51 181.719 169.509L182.379 169.782L179.227 166.354L171.657 158.119L162.496 148.153L154.57 139.531L151.936 136.666C151.533 136.228 151.15 135.725 150.705 135.327C150.685 135.309 150.667 135.286 150.649 135.265L150.889 136.173L153.607 122.587L153.999 120.625L153.571 121.182L163.639 114.11L165.08 113.097C166.056 112.412 165.124 110.794 164.138 111.486L157.678 116.025L153.673 118.838C153.131 119.218 152.336 119.601 152.17 120.279C151.487 123.067 151.039 125.933 150.476 128.746L149.497 133.636L149.187 135.188C149.084 135.505 149.05 135.841 149.089 136.173C149.281 136.565 149.553 136.912 149.888 137.192L151.481 138.926L157.052 144.986L171.87 161.105L177.956 167.727C178.955 168.813 179.922 169.942 180.959 170.993C181.467 171.508 182.293 171.391 182.969 171.41L187.891 171.548L205.518 172.041L227.828 172.666L248.02 173.231L258.979 173.538L259.487 173.552C259.734 173.548 259.969 173.448 260.143 173.274C260.317 173.1 260.416 172.865 260.421 172.619L260.79 165.396L261.382 153.813L261.518 151.163C261.515 150.916 261.415 150.681 261.241 150.506C261.067 150.332 260.831 150.233 260.584 150.23L255.287 150.168L242.629 150.019L227.324 149.839L214.047 149.684L209.705 149.633C209.024 149.625 208.307 149.551 207.627 149.609C207.598 149.611 207.567 149.608 207.538 149.608L208.197 149.881L198.927 142.221L184.176 130.033L180.823 127.263L181.096 127.922C181.758 120.365 181.937 112.773 181.633 105.193C181.577 103.986 181.5 102.78 181.389 101.577C181.331 100.311 181.136 99.0549 180.806 97.8313C180.215 95.9952 178.926 93.5872 176.687 93.5897C174.528 93.5924 173.389 95.8841 173.048 97.7144C172.675 99.7179 172.853 101.825 172.832 103.856C172.784 108.437 172.388 113.01 172.075 117.578C171.992 118.776 173.859 118.771 173.941 117.578L173.942 117.578Z" fill="black"/>
<path d="M284.863 187.221L280.166 187.111L268.885 186.849L255.233 186.531L243.425 186.256C241.516 186.212 239.584 186.075 237.674 186.123C237.647 186.123 237.619 186.121 237.591 186.121C236.39 186.093 236.39 187.959 237.591 187.986L242.288 188.096L253.57 188.358L267.222 188.676L279.03 188.951C280.939 188.995 282.871 189.132 284.78 189.085C284.808 189.084 284.836 189.086 284.863 189.086C286.065 189.114 286.064 187.249 284.863 187.221Z" fill="black"/>
<path d="M281.573 188.789L227.268 188.18C228.127 184.865 233.724 171.437 234.189 167.063C234.885 160.518 234.853 154.6 234.236 150.625L268.197 151.162H285.306" fill="#8066FF"/>
<path d="M281.574 187.856L276.16 187.795L263.165 187.65L247.509 187.474L233.972 187.323L229.49 187.272C228.792 187.264 228.058 187.191 227.362 187.248C227.331 187.251 227.299 187.248 227.269 187.247L228.169 188.428C228.6 186.784 229.239 185.185 229.823 183.591C230.698 181.204 231.588 178.822 232.438 176.425C233.221 174.214 233.995 171.991 234.595 169.722C235.315 166.997 235.434 164.139 235.559 161.336C235.776 157.678 235.634 154.008 235.137 150.377L234.237 151.558L241.322 151.67L255.61 151.896L266.874 152.074C268.886 152.106 270.897 152.095 272.909 152.095H285.307C286.508 152.095 286.51 150.229 285.307 150.229H274.643C272.276 150.229 269.908 150.256 267.541 150.219L257.371 150.058L242.905 149.829C240.065 149.784 237.208 149.647 234.367 149.694C234.324 149.695 234.28 149.693 234.237 149.692C234.094 149.695 233.954 149.73 233.826 149.795C233.699 149.86 233.588 149.952 233.502 150.066C233.415 150.179 233.355 150.311 233.327 150.451C233.298 150.59 233.302 150.735 233.337 150.873C233.751 153.96 233.885 157.078 233.735 160.189C233.676 162.105 233.551 164.019 233.371 165.928C233.332 166.342 233.294 166.756 233.245 167.169C233.232 167.276 233.253 167.109 233.254 167.103C233.246 167.154 233.239 167.206 233.231 167.256C233.215 167.35 233.2 167.444 233.183 167.537C233.108 167.95 233.014 168.36 232.913 168.768C231.765 173.385 229.952 177.851 228.312 182.308C227.63 184.161 226.871 186.019 226.369 187.932C226.333 188.07 226.328 188.215 226.357 188.355C226.385 188.495 226.445 188.627 226.531 188.741C226.618 188.855 226.729 188.947 226.857 189.012C226.985 189.076 227.125 189.111 227.268 189.113L232.682 189.173L245.678 189.319L261.333 189.495L274.87 189.646C277.067 189.671 279.284 189.784 281.481 189.72C281.511 189.72 281.543 189.721 281.574 189.722C282.775 189.735 282.776 187.869 281.574 187.856L281.574 187.856Z" fill="black"/>
<path d="M253.627 187.636C255.223 187.806 257.021 184.277 258.449 178.77L250.776 177.897C251.008 183.613 252.026 187.466 253.627 187.636Z" fill="black"/>
<path d="M253.628 188.569C255.128 188.69 256.199 187.088 256.825 185.955C257.949 183.756 258.797 181.426 259.349 179.018C259.384 178.88 259.388 178.735 259.359 178.595C259.331 178.456 259.271 178.324 259.184 178.211C259.098 178.097 258.987 178.005 258.86 177.94C258.732 177.875 258.592 177.84 258.45 177.837L250.777 176.964C250.53 176.965 250.293 177.064 250.119 177.239C249.944 177.413 249.845 177.65 249.844 177.897C249.948 180.367 250.129 182.934 250.853 185.312C251.283 186.724 251.992 188.354 253.628 188.569C253.875 188.568 254.112 188.469 254.286 188.295C254.461 188.12 254.56 187.884 254.561 187.636C254.555 187.391 254.455 187.157 254.281 186.984C254.107 186.81 253.873 186.71 253.628 186.704C253.92 186.742 253.736 186.707 253.67 186.694C253.518 186.664 253.807 186.774 253.719 186.717C253.677 186.696 253.637 186.673 253.598 186.647C253.44 186.518 253.75 186.8 253.598 186.65C253.52 186.573 253.444 186.499 253.372 186.416C253.223 186.245 253.475 186.578 253.345 186.376C253.311 186.322 253.275 186.269 253.241 186.214C252.908 185.642 252.667 185.02 252.527 184.373C252.021 182.25 251.747 180.079 251.711 177.897L250.777 178.83L258.45 179.703L257.55 178.522C257.056 180.656 256.328 182.729 255.379 184.704C255.101 185.294 254.739 185.841 254.305 186.328C254.256 186.377 253.946 186.642 254.134 186.503C254.046 186.568 253.949 186.617 253.859 186.678C253.722 186.77 253.989 186.642 253.891 186.669C253.856 186.678 253.793 186.717 253.755 186.71C253.57 186.674 253.97 186.759 253.788 186.708C253.735 186.702 253.681 186.701 253.628 186.704C253.381 186.706 253.145 186.805 252.97 186.979C252.796 187.154 252.697 187.39 252.695 187.637C252.699 187.882 252.799 188.117 252.973 188.291C253.147 188.465 253.382 188.565 253.628 188.569Z" fill="black"/>
<path d="M255.792 232.984L257.456 231.4L261.96 227.116L268.649 220.752L276.814 212.985L285.717 204.515L294.746 195.926L303.164 187.917L310.248 181.179L315.369 176.308C316.176 175.54 317.011 174.793 317.794 174.001C317.827 173.967 317.863 173.935 317.897 173.902C318.769 173.073 317.448 171.755 316.578 172.583L314.913 174.166L310.41 178.45L303.72 184.814L295.555 192.581L286.653 201.051L277.624 209.64L269.205 217.649L262.121 224.388L257.001 229.259C256.194 230.026 255.358 230.773 254.576 231.566C254.542 231.6 254.507 231.631 254.472 231.664C253.6 232.494 254.922 233.812 255.792 232.984Z" fill="black"/>
<path d="M262.552 232.03L255.276 232.21C255.276 232.21 252.753 240.255 259.6 243.737C266.252 247.12 262.552 232.03 262.552 232.03Z" fill="black"/>
<path d="M262.55 231.097L255.274 231.276C255.071 231.281 254.874 231.349 254.713 231.472C254.551 231.595 254.433 231.767 254.374 231.961C253.906 233.557 253.765 235.23 253.957 236.881C254.099 238.491 254.648 240.039 255.552 241.38C256.456 242.72 257.687 243.808 259.128 244.542C260.067 245.015 261.189 245.384 262.229 245.01C262.675 244.823 263.074 244.537 263.395 244.175C263.716 243.812 263.95 243.381 264.081 242.915C264.784 240.927 264.545 238.571 264.291 236.523C264.103 234.928 263.822 233.345 263.45 231.782C263.165 230.616 261.365 231.11 261.65 232.278C261.916 233.364 262.118 234.469 262.29 235.573C262.426 236.452 262.542 237.399 262.604 238.446C262.636 238.972 262.651 239.5 262.64 240.027C262.635 240.264 262.625 240.5 262.607 240.736C262.599 240.85 262.589 240.964 262.578 241.078C262.571 241.146 262.531 241.433 262.56 241.242C262.497 241.664 262.396 242.08 262.257 242.485C262.207 242.631 262.339 242.35 262.22 242.572C262.18 242.647 262.144 242.724 262.1 242.798C262.059 242.868 262.013 242.936 261.966 243.003C262.088 242.826 261.973 242.991 261.904 243.061C261.879 243.087 261.68 243.25 261.806 243.157C261.925 243.068 261.748 243.183 261.714 243.208C261.525 243.344 261.808 243.195 261.679 243.231C261.584 243.258 261.491 243.284 261.395 243.304C261.602 243.26 261.441 243.301 261.33 243.298C261.24 243.296 261.15 243.293 261.06 243.285C261.279 243.304 261.019 243.275 260.943 243.256C260.823 243.226 260.705 243.193 260.588 243.154C259.967 242.913 259.382 242.591 258.846 242.196C258.259 241.777 257.738 241.272 257.301 240.698C256.554 239.673 256.065 238.484 255.875 237.23C255.784 236.638 255.744 236.038 255.755 235.439C255.758 235.158 255.771 234.878 255.792 234.599C255.804 234.456 255.817 234.314 255.833 234.171C255.839 234.117 255.845 234.063 255.851 234.009C255.873 233.824 255.838 234.099 255.854 233.987C255.921 233.469 256.028 232.958 256.174 232.457L255.274 233.142L262.55 232.963C263.749 232.934 263.754 231.067 262.55 231.097Z" fill="black"/>
<path d="M315.575 223.324C315.575 223.324 328.068 225.726 329.509 232.931C330.951 240.135 312.693 241.816 312.693 241.816" fill="black"/>
<path d="M315.327 224.224C317.207 224.606 319.044 225.174 320.812 225.919C323.59 227.062 326.717 228.834 328.109 231.665C328.258 231.969 328.379 232.287 328.471 232.614C328.568 232.904 328.629 233.204 328.65 233.509C328.658 233.642 328.659 233.775 328.652 233.908C328.648 233.986 328.642 234.063 328.634 234.141C328.655 233.941 328.643 234.078 328.634 234.122C328.606 234.259 328.577 234.395 328.537 234.53C328.518 234.596 328.373 234.966 328.459 234.771C327.973 235.76 327.193 236.576 326.227 237.106C323.818 238.633 320.971 239.396 318.145 240.005C316.834 240.287 315.514 240.521 314.185 240.705C314.12 240.714 314.056 240.723 313.992 240.731C313.772 240.762 314.211 240.703 313.999 240.731C313.889 240.745 313.779 240.759 313.67 240.773C313.494 240.795 313.318 240.816 313.142 240.836C312.992 240.853 312.842 240.869 312.692 240.883C312.447 240.89 312.213 240.99 312.039 241.164C311.866 241.337 311.765 241.571 311.759 241.816C311.761 242.063 311.86 242.299 312.034 242.474C312.209 242.648 312.445 242.747 312.692 242.749C314.431 242.578 316.159 242.315 317.871 241.964C320.898 241.36 324.025 240.542 326.718 238.989C327.944 238.338 328.994 237.401 329.779 236.257C330.14 235.669 330.375 235.012 330.467 234.328C330.56 233.644 330.509 232.948 330.317 232.285C329.388 228.746 326.135 226.378 323.001 224.867C320.722 223.75 318.31 222.929 315.823 222.425C314.65 222.198 314.147 223.996 315.327 224.224Z" fill="black"/>
<path d="M292.359 255.407L251.459 331.35L237.754 412.001L188.623 412.056C188.623 412.056 189.508 361.356 209.051 307.827C221.98 272.413 251.894 237.834 255.338 232.346C265.538 216.091 289.472 206.496 289.472 206.496" fill="#F8F5ED"/>
<path d="M291.552 254.936L287.666 262.152L278.268 279.603L266.798 300.9L256.54 319.948L250.931 330.362C250.702 330.756 250.545 331.187 250.468 331.636L249.753 335.842L246.727 353.65L242.694 377.386L238.989 399.189L236.947 411.2L236.854 411.752L237.753 411.068L221.166 411.086L194.712 411.116L188.622 411.123L189.555 412.056C189.713 403.16 190.654 394.233 191.738 385.411C194.291 364.265 198.706 343.386 204.931 323.016C208.324 312.007 212.26 301.237 217.458 290.943C222.172 281.728 227.44 272.806 233.231 264.226C237.873 257.271 242.781 250.497 247.836 243.836C250.581 240.22 253.59 236.718 256.08 232.917C260.713 225.841 267.149 220.31 274.193 215.713C278.917 212.614 283.896 209.923 289.077 207.667C289.2 207.613 289.324 207.56 289.448 207.508C289.553 207.463 289.257 207.587 289.496 207.488C289.57 207.457 289.645 207.426 289.719 207.396C290.82 206.954 290.339 205.148 289.223 205.597C285.415 207.171 281.721 209.008 278.168 211.094C270.997 215.21 264.073 220.167 258.615 226.426C256.715 228.605 255.21 231.023 253.509 233.344C252.171 235.17 250.774 236.953 249.395 238.747C244.71 244.844 240.102 250.999 235.701 257.306C229.854 265.612 224.446 274.219 219.501 283.091C214.222 292.648 209.785 302.646 206.24 312.972C198.923 334.269 193.898 356.353 190.764 378.643C189.23 389.55 188.002 400.579 187.7 411.6C187.696 411.752 187.691 411.904 187.689 412.057C187.692 412.303 187.791 412.538 187.966 412.713C188.14 412.887 188.375 412.986 188.622 412.989L205.21 412.971L231.663 412.941L237.753 412.934C237.957 412.932 238.155 412.865 238.318 412.741C238.48 412.618 238.598 412.445 238.653 412.249L240.092 403.783L243.501 383.724L247.561 359.832L250.964 339.805L251.989 333.77L252.268 332.132C252.295 331.969 252.473 331.325 252.266 331.817C252.564 331.11 253.011 330.434 253.375 329.759L256.272 324.38L265.733 306.813L277.209 285.503L287.383 266.613L292.912 256.346L293.164 255.878C293.733 254.821 292.123 253.877 291.552 254.936Z" fill="black"/>
<path d="M318.863 211.796L340.526 306.688L390.378 382.038L355.578 416.341C355.578 416.341 320.64 379.579 297.017 327.719C281.389 293.41 278.454 247.788 277.059 241.462V218" fill="#F8F5ED"/>
<path d="M317.962 212.044L319.993 220.938L324.87 242.302L330.92 268.805L336.325 292.48L339.419 306.032C339.854 307.939 341.266 309.496 342.332 311.108L353.249 327.609L367.963 349.849L381.676 370.575L389.213 381.967L389.571 382.509L389.717 381.378L377.968 392.96L359.231 411.429L354.917 415.681H356.237C350.922 410.086 346.038 404.037 341.282 397.969C329.652 383.156 319.172 367.475 309.936 351.062C304.422 341.243 299.163 331.14 295.028 320.654C291.298 310.992 288.292 301.066 286.035 290.958C282.556 275.884 280.54 260.612 278.571 245.288C278.455 244.379 278.337 243.47 278.198 242.564C278.153 242.276 278.108 241.988 278.055 241.702C278.032 241.576 278.001 241.451 277.982 241.325C277.95 241.117 277.997 241.618 277.991 241.379C277.945 239.599 277.991 237.811 277.991 236.031V217.999C277.991 216.799 276.125 216.797 276.125 217.999V231.856C276.125 235.573 275.832 239.383 276.398 243.06C277.188 248.199 277.711 253.576 278.418 258.806C279.581 267.408 280.97 275.981 282.717 284.485C284.74 294.633 287.423 304.639 290.749 314.438C294.355 324.863 299.123 334.829 304.273 344.572C313.594 362.109 324.332 378.856 336.38 394.646C342.145 402.235 348.131 409.728 354.637 416.702C354.73 416.802 354.823 416.901 354.917 417C355.094 417.172 355.331 417.268 355.577 417.268C355.824 417.268 356.061 417.172 356.237 417L367.986 405.419L386.724 386.95L391.037 382.697C391.181 382.551 391.274 382.361 391.3 382.157C391.326 381.953 391.285 381.746 391.183 381.567L385.861 373.522L373.223 354.42L358.318 331.892L346.013 313.294L342.427 307.873C342.131 307.426 341.848 306.967 341.538 306.53C341.473 306.438 341.412 306.343 341.352 306.249C341.261 306.106 341.457 306.579 341.412 306.384C340.656 303.061 339.898 299.739 339.137 296.417L334.108 274.39L328.088 248.018L322.763 224.693L319.897 212.137L319.762 211.548C319.495 210.377 317.695 210.873 317.962 212.044Z" fill="black"/>
<path d="M329.509 232.311C322.302 224.545 255.395 232.089 255.395 232.089L267.694 159.411C268.172 154.695 271.868 151.124 276.271 151.124H305.649C310.433 151.124 312.932 153.101 314.986 160.119C314.986 160.119 327.347 209.014 329.509 232.311Z" fill="#14F195"/>
<path d="M268.368 151.124H305.649C310.433 151.124 312.932 153.101 314.985 160.119C314.985 160.119 327.347 209.014 329.509 232.311C322.302 224.545 255.275 232.209 255.275 232.209L264.129 181.423" fill="#8066FF"/>
<path d="M268.369 152.057H299.933C301.902 152.057 303.873 152.035 305.843 152.058C308.089 152.085 310.034 152.676 311.45 154.479C312.783 156.176 313.567 158.404 314.111 160.465C314.618 162.383 315.068 164.318 315.537 166.245C316.556 170.435 317.551 174.632 318.522 178.834C319.795 184.345 321.024 189.867 322.207 195.398C323.459 201.282 324.653 207.179 325.732 213.098C326.696 218.382 327.59 223.692 328.225 229.02C328.356 230.116 328.473 231.213 328.577 232.311L330.17 231.652C329.135 230.55 327.568 229.991 326.152 229.585C324.001 229.014 321.804 228.632 319.587 228.443C313.566 227.812 307.473 227.831 301.428 227.961C294.579 228.108 287.736 228.482 280.904 228.963C275.151 229.369 269.403 229.851 263.662 230.41C261.787 230.591 259.912 230.78 258.039 230.977C257.17 231.069 256.247 231.088 255.389 231.264C255.352 231.272 255.313 231.273 255.276 231.277L256.176 232.458L257.056 227.407L259.171 215.276L261.73 200.6L263.942 187.916C264.299 185.863 264.681 183.813 265.015 181.756C265.02 181.728 265.025 181.7 265.03 181.671C265.089 181.433 265.054 181.181 264.933 180.968C264.812 180.754 264.613 180.595 264.378 180.524C264.14 180.46 263.886 180.493 263.671 180.614C263.456 180.736 263.298 180.938 263.23 181.175L262.35 186.227L260.235 198.358L257.676 213.033L255.465 225.718C255.107 227.77 254.725 229.82 254.391 231.877C254.386 231.905 254.381 231.934 254.376 231.962C254.284 232.49 254.618 233.218 255.276 233.143C257.508 232.888 259.744 232.661 261.98 232.44C267.387 231.905 272.801 231.433 278.22 231.024C284.995 230.517 291.779 230.111 298.571 229.902C304.803 229.64 311.046 229.707 317.271 230.102C319.571 230.234 321.859 230.534 324.115 231.001C324.982 231.18 325.836 231.417 326.672 231.71C326.86 231.778 327.046 231.851 327.231 231.926C327.017 231.839 327.185 231.906 327.293 231.956C327.383 231.998 327.473 232.039 327.562 232.083C327.846 232.226 328.121 232.385 328.386 232.561C328.443 232.599 328.497 232.643 328.553 232.683C328.283 232.492 328.491 232.63 328.551 232.686C328.652 232.78 328.755 232.87 328.85 232.971C329.373 233.528 330.519 233.128 330.443 232.311C329.961 227.143 329.166 222.003 328.29 216.889C327.274 210.948 326.117 205.032 324.895 199.13C323.703 193.376 322.451 187.635 321.14 181.906C320.088 177.283 319.006 172.667 317.896 168.057C317.287 165.53 316.668 163.004 316.04 160.481C315.144 156.903 313.577 152.545 309.927 150.963C307.623 149.965 304.977 150.191 302.516 150.191H268.369C267.168 150.191 267.166 152.057 268.369 152.057Z" fill="black"/>
<path d="M269.181 230.75L269.163 238.477C269.156 241.687 268.84 245.108 269.987 248.167C270.711 250.096 271.741 251.938 272.637 253.788L277.174 263.156L280.133 269.265C280.656 270.346 282.266 269.401 281.745 268.324L274.824 254.035C273.921 252.169 273.003 250.31 272.113 248.438C270.782 245.634 271.02 242.583 271.027 239.576L271.047 230.75C271.05 229.549 269.184 229.547 269.181 230.75Z" fill="black"/>
<path d="M294.848 151.473V140.582C296.862 139.675 298.374 138.471 299.059 136.981C302.435 129.638 299.059 102.828 299.059 102.828H267.483C267.483 102.828 262.716 129.252 267.483 136.981C269.098 139.599 272.857 141.285 277.251 142.086L277.218 160.802L286.239 159.558" fill="#F8F5ED"/>
<path d="M295.782 151.473V140.582L295.32 141.387C297.213 140.519 299.093 139.229 299.95 137.259C300.38 136.225 300.687 135.145 300.864 134.039C301.327 131.104 301.537 128.135 301.493 125.164C301.46 119.065 301.11 112.972 300.445 106.909C300.307 105.547 300.164 104.185 299.993 102.827C299.987 102.581 299.886 102.348 299.713 102.174C299.539 102 299.305 101.9 299.06 101.894H267.483C267.28 101.896 267.082 101.963 266.919 102.087C266.757 102.21 266.639 102.383 266.584 102.579C265.809 106.88 265.271 111.239 264.882 115.59C264.53 119.199 264.388 122.825 264.455 126.449C264.535 129.481 264.742 132.687 265.794 135.56C266.422 137.338 267.582 138.879 269.116 139.974C271.402 141.633 274.26 142.476 277.004 142.985L276.319 142.085L276.29 158.457L276.286 160.801C276.289 160.944 276.324 161.084 276.389 161.211C276.454 161.338 276.546 161.449 276.66 161.536C276.773 161.622 276.905 161.682 277.044 161.71C277.184 161.739 277.329 161.736 277.467 161.701L286.488 160.457C286.726 160.39 286.928 160.232 287.05 160.017C287.172 159.802 287.204 159.548 287.14 159.31C287.069 159.075 286.91 158.876 286.696 158.755C286.483 158.633 286.23 158.599 285.992 158.658L276.971 159.902L278.152 160.801L278.181 144.429L278.185 142.085C278.184 141.881 278.116 141.683 277.993 141.521C277.869 141.359 277.696 141.241 277.5 141.186C275.144 140.748 272.765 140.082 270.715 138.804C269.907 138.323 269.191 137.701 268.601 136.968C268.394 136.693 268.211 136.401 268.052 136.095C267.988 135.974 267.926 135.851 267.868 135.726C267.844 135.676 267.821 135.624 267.797 135.573C267.774 135.521 267.751 135.469 267.728 135.416C267.76 135.492 267.764 135.5 267.738 135.438C266.649 132.759 266.443 129.87 266.339 127.018C266.241 123.505 266.352 119.988 266.671 116.488C266.919 113.494 267.28 110.377 267.681 107.549C267.894 106.055 268.116 104.56 268.384 103.075L267.484 103.76H299.06L298.126 102.827C298.582 106.448 298.909 110.089 299.173 113.728C299.617 119.862 300.008 126.164 299.253 132.289C299.114 133.519 298.856 134.734 298.482 135.915C298.441 136.034 298.397 136.153 298.353 136.271C298.336 136.317 298.318 136.362 298.3 136.407C298.22 136.609 298.366 136.27 298.282 136.446C298.072 136.909 297.791 137.337 297.451 137.715C296.573 138.598 295.529 139.299 294.378 139.776C294.236 139.857 294.119 139.974 294.037 140.116C293.956 140.257 293.914 140.418 293.916 140.581V151.472C293.916 152.673 295.782 152.675 295.782 151.472L295.782 151.473Z" fill="black"/>
<path d="M277.302 118.961C277.447 118.868 277.598 118.786 277.754 118.714C277.796 118.694 277.838 118.675 277.88 118.656C278.05 118.576 277.859 118.636 277.847 118.668C277.861 118.631 278.076 118.579 278.116 118.565C278.36 118.478 278.609 118.405 278.862 118.348C278.999 118.318 279.136 118.293 279.274 118.27C279.455 118.239 279.188 118.273 279.306 118.267C279.389 118.262 279.472 118.25 279.555 118.245C279.882 118.225 280.21 118.231 280.536 118.262C280.631 118.271 280.456 118.245 280.619 118.273C280.717 118.289 280.814 118.307 280.91 118.327C281.095 118.367 281.277 118.416 281.457 118.473C281.832 118.594 282.192 118.757 282.528 118.961C282.742 119.083 282.995 119.116 283.233 119.052C283.47 118.989 283.673 118.834 283.797 118.622C283.921 118.409 283.957 118.157 283.895 117.919C283.834 117.68 283.681 117.476 283.47 117.35C281.976 116.473 280.211 116.177 278.512 116.518C277.748 116.658 277.018 116.94 276.36 117.35C276.15 117.479 275.998 117.683 275.936 117.921C275.874 118.159 275.906 118.411 276.025 118.626C276.151 118.838 276.356 118.992 276.595 119.054C276.834 119.117 277.088 119.083 277.302 118.961Z" fill="black"/>
<path d="M266.333 118.712C266.142 118.8 266.173 118.771 266.348 118.712C266.568 118.637 266.788 118.566 267.015 118.51C267.68 118.348 268.365 118.279 269.05 118.305C269.642 118.302 270.22 118.487 270.7 118.834C271.179 119.182 271.536 119.673 271.717 120.236C272.056 121.362 271.593 122.635 271.072 123.635C270.702 124.342 270.252 125.003 269.73 125.606C269.388 125.897 269.143 126.286 269.03 126.72C268.973 127.035 268.978 127.359 269.045 127.672C269.422 129.208 271.159 129.308 272.454 129.158C272.699 129.151 272.932 129.05 273.106 128.877C273.279 128.703 273.38 128.47 273.387 128.225C273.385 127.978 273.287 127.742 273.112 127.567C272.937 127.392 272.701 127.294 272.454 127.292C272.112 127.339 271.767 127.359 271.421 127.352C271.308 127.347 271.221 127.34 271.117 127.325C271.09 127.322 270.811 127.254 270.959 127.296C270.917 127.284 270.731 127.138 270.866 127.253C270.723 127.131 270.969 127.262 270.827 127.187C270.871 127.285 270.877 127.281 270.845 127.176L270.856 127.247C270.868 127.159 270.872 127.07 270.866 126.981L270.626 127.393C272.662 125.206 274.891 121.489 272.973 118.558C271.355 116.084 267.885 115.959 265.391 117.101C265.179 117.227 265.025 117.432 264.962 117.671C264.9 117.909 264.933 118.163 265.056 118.377C265.185 118.587 265.39 118.738 265.628 118.801C265.866 118.863 266.118 118.832 266.333 118.712Z" fill="black"/>
<path d="M274.923 132.05C276.007 131.989 277.043 131.585 277.882 130.896C278.23 130.602 278.513 130.239 278.714 129.83C278.834 129.611 278.868 129.355 278.808 129.112C278.759 128.935 278.659 128.776 278.521 128.656C278.382 128.535 278.211 128.458 278.029 128.434C277.847 128.411 277.662 128.441 277.497 128.522C277.332 128.603 277.195 128.73 277.102 128.889C277.025 129.048 276.932 129.199 276.825 129.34L276.971 129.152C276.824 129.339 276.655 129.507 276.467 129.653L276.656 129.507C276.409 129.693 276.139 129.848 275.853 129.967L276.076 129.873C275.69 130.033 275.285 130.142 274.871 130.197L275.119 130.164C275.054 130.173 274.989 130.181 274.923 130.185C274.8 130.184 274.678 130.207 274.564 130.254C274.45 130.3 274.346 130.369 274.259 130.456C274.172 130.542 274.102 130.645 274.055 130.759C274.008 130.873 273.983 130.995 273.983 131.118C273.983 131.241 274.008 131.363 274.055 131.476C274.102 131.59 274.172 131.693 274.259 131.78C274.346 131.866 274.45 131.935 274.564 131.981C274.678 132.028 274.8 132.051 274.923 132.05Z" fill="black"/>
<path d="M290.516 125.241C290.681 124.626 290.882 124.021 291.117 123.43C291.148 123.303 291.197 123.181 291.263 123.068C291.259 123.073 291.166 123.293 291.227 123.153C291.241 123.122 291.254 123.091 291.267 123.061C291.298 122.991 291.329 122.921 291.361 122.852C291.479 122.595 291.604 122.342 291.741 122.095C291.873 121.854 292.018 121.62 292.176 121.395C292.196 121.367 292.342 121.176 292.231 121.316C292.121 121.456 292.268 121.272 292.29 121.246C292.372 121.149 292.458 121.056 292.549 120.967C292.6 120.918 292.656 120.874 292.707 120.825C292.8 120.737 292.495 120.963 292.698 120.835C292.748 120.803 292.796 120.77 292.848 120.741C292.871 120.728 292.894 120.717 292.916 120.704C293.013 120.65 293.043 120.701 292.831 120.736C292.883 120.728 292.937 120.698 292.989 120.684C293.012 120.678 293.037 120.675 293.06 120.667C293.2 120.623 292.969 120.686 292.938 120.681C292.999 120.684 293.061 120.682 293.122 120.675C293.334 120.67 292.883 120.626 293.099 120.671C293.337 120.737 293.592 120.705 293.808 120.583C294.023 120.461 294.181 120.258 294.247 120.019C294.312 119.781 294.281 119.526 294.158 119.311C294.036 119.095 293.833 118.937 293.595 118.872C292.156 118.574 291.084 119.615 290.373 120.739C289.763 121.759 289.282 122.851 288.941 123.989C288.861 124.239 288.782 124.491 288.716 124.745C288.652 124.983 288.684 125.237 288.807 125.451C288.929 125.665 289.131 125.822 289.369 125.887C289.607 125.953 289.861 125.921 290.076 125.8C290.291 125.679 290.449 125.478 290.516 125.241Z" fill="black"/>
<path d="M268.482 123.004C269.094 123.004 269.591 122.507 269.591 121.895C269.591 121.283 269.094 120.786 268.482 120.786C267.869 120.786 267.372 121.283 267.372 121.895C267.372 122.507 267.869 123.004 268.482 123.004Z" fill="black"/>
<path d="M269.124 121.895C269.123 121.926 269.121 121.957 269.12 121.988C269.117 122.074 269.118 121.958 269.125 121.954C269.11 122.001 269.098 122.05 269.091 122.099C269.078 122.126 269.068 122.154 269.062 122.182C269.058 122.173 269.113 122.08 269.073 122.151C269.044 122.202 269.016 122.251 268.984 122.3C268.931 122.38 269.042 122.248 268.994 122.286C268.977 122.302 268.961 122.32 268.946 122.339C268.932 122.353 268.918 122.366 268.904 122.379L268.883 122.398C268.845 122.43 268.854 122.424 268.91 122.38C268.883 122.38 268.812 122.446 268.789 122.459C268.772 122.469 268.754 122.477 268.737 122.486C268.659 122.531 268.838 122.457 268.727 122.49C268.679 122.505 268.633 122.52 268.584 122.53C268.496 122.549 268.583 122.511 268.604 122.53C268.578 122.529 268.553 122.531 268.528 122.536C268.476 122.538 268.425 122.534 268.373 122.532C268.306 122.529 268.492 122.556 268.393 122.533C268.363 122.527 268.334 122.521 268.305 122.513C268.277 122.505 268.249 122.495 268.221 122.486C268.157 122.465 268.246 122.476 268.251 122.499C268.248 122.485 268.144 122.442 268.124 122.429C268.104 122.417 268.085 122.4 268.064 122.388C268.01 122.358 268.148 122.466 268.079 122.398C268.041 122.355 268.001 122.313 267.958 122.274C267.978 122.272 268.015 122.356 267.978 122.3C267.963 122.276 267.946 122.252 267.931 122.227C267.921 122.211 267.911 122.194 267.902 122.177L267.889 122.151C267.868 122.105 267.872 122.116 267.9 122.182C267.909 122.161 267.861 122.067 267.855 122.041C267.85 122.022 267.846 122.003 267.842 121.983C267.821 121.891 267.849 122.093 267.841 121.972C267.838 121.926 267.837 121.879 267.84 121.833C267.843 121.784 267.874 121.73 267.837 121.836C267.841 121.816 267.845 121.797 267.848 121.777C267.859 121.728 267.875 121.682 267.89 121.635C267.921 121.537 267.838 121.727 267.889 121.639C267.904 121.614 267.916 121.587 267.931 121.562C267.943 121.541 267.957 121.522 267.97 121.501C268.017 121.427 267.984 121.518 267.958 121.515C267.994 121.482 268.027 121.447 268.058 121.411C268.08 121.39 268.134 121.371 268.077 121.391C268.013 121.413 268.08 121.389 268.099 121.376C268.152 121.352 268.203 121.323 268.251 121.291C268.25 121.297 268.14 121.33 268.221 121.304C268.249 121.295 268.277 121.285 268.305 121.277C268.324 121.271 268.344 121.267 268.363 121.262C268.379 121.259 268.47 121.253 268.39 121.255C268.306 121.257 268.407 121.255 268.419 121.254C268.445 121.253 268.47 121.252 268.496 121.253C268.522 121.253 268.548 121.255 268.573 121.256C268.673 121.259 268.48 121.234 268.569 121.256C268.627 121.271 268.684 121.286 268.741 121.304C268.833 121.334 268.674 121.261 268.724 121.297C268.75 121.316 268.785 121.328 268.813 121.345C268.83 121.355 268.846 121.365 268.862 121.376C268.878 121.387 268.894 121.398 268.91 121.41C268.854 121.366 268.845 121.36 268.883 121.391L268.985 121.493C269.056 121.565 268.928 121.405 268.983 121.489C268.999 121.514 269.016 121.537 269.031 121.562C269.046 121.587 269.058 121.614 269.072 121.639C269.116 121.716 269.042 121.543 269.072 121.635C269.09 121.692 269.105 121.748 269.12 121.806C269.136 121.872 269.097 121.793 269.117 121.772C269.114 121.813 269.117 121.854 269.123 121.895C269.123 121.956 269.134 122.018 269.158 122.075C269.181 122.132 269.215 122.184 269.258 122.228C269.302 122.271 269.353 122.306 269.41 122.33C269.467 122.354 269.528 122.366 269.59 122.366C269.652 122.366 269.713 122.354 269.77 122.33C269.827 122.306 269.878 122.271 269.922 122.228C269.965 122.184 269.999 122.132 270.022 122.075C270.046 122.018 270.057 121.956 270.057 121.895C270.052 121.569 269.949 121.253 269.761 120.988C269.573 120.723 269.308 120.521 269.003 120.41C268.704 120.305 268.381 120.292 268.075 120.374C267.77 120.455 267.496 120.627 267.289 120.867C267.123 121.059 267.007 121.289 266.949 121.536C266.891 121.783 266.894 122.041 266.957 122.287C267.02 122.532 267.142 122.759 267.312 122.948C267.482 123.137 267.695 123.281 267.933 123.37C268.172 123.458 268.428 123.488 268.68 123.456C268.932 123.424 269.172 123.332 269.381 123.187C269.589 123.042 269.76 122.849 269.877 122.624C269.995 122.399 270.057 122.149 270.057 121.895C270.055 121.772 270.006 121.654 269.918 121.568C269.831 121.481 269.713 121.433 269.59 121.433C269.467 121.433 269.349 121.481 269.262 121.568C269.174 121.654 269.125 121.772 269.123 121.895L269.124 121.895Z" fill="black"/>
<path d="M278.928 123.004C279.54 123.004 280.037 122.507 280.037 121.895C280.037 121.283 279.54 120.786 278.928 120.786C278.315 120.786 277.819 121.283 277.819 121.895C277.819 122.507 278.315 123.004 278.928 123.004Z" fill="black"/>
<path d="M279.57 121.895C279.57 121.926 279.568 121.957 279.567 121.988C279.563 122.074 279.565 121.958 279.572 121.954C279.556 122.001 279.545 122.05 279.538 122.099C279.525 122.126 279.515 122.154 279.508 122.182C279.504 122.173 279.56 122.08 279.519 122.151C279.491 122.202 279.462 122.251 279.43 122.3C279.378 122.38 279.488 122.248 279.441 122.286C279.424 122.302 279.407 122.32 279.392 122.339C279.379 122.353 279.365 122.366 279.351 122.379L279.329 122.398C279.291 122.43 279.3 122.424 279.356 122.38C279.33 122.38 279.259 122.446 279.235 122.459C279.218 122.469 279.2 122.477 279.184 122.486C279.106 122.531 279.284 122.457 279.174 122.49C279.126 122.505 279.08 122.52 279.031 122.53C278.942 122.549 279.03 122.511 279.05 122.53C279.025 122.529 278.999 122.531 278.974 122.536C278.922 122.538 278.871 122.534 278.82 122.532C278.752 122.529 278.939 122.556 278.839 122.533C278.81 122.527 278.781 122.521 278.752 122.513C278.723 122.505 278.696 122.495 278.667 122.486C278.604 122.465 278.692 122.476 278.698 122.499C278.694 122.485 278.59 122.442 278.57 122.429C278.55 122.417 278.531 122.4 278.51 122.388C278.456 122.358 278.594 122.466 278.525 122.398C278.488 122.355 278.447 122.313 278.405 122.274C278.425 122.273 278.461 122.356 278.425 122.3C278.409 122.276 278.392 122.252 278.377 122.227C278.367 122.211 278.358 122.194 278.349 122.177L278.336 122.151C278.314 122.105 278.318 122.116 278.347 122.182C278.355 122.161 278.308 122.067 278.301 122.041C278.297 122.022 278.293 122.003 278.288 121.983C278.267 121.891 278.296 122.093 278.287 121.972C278.284 121.926 278.284 121.879 278.286 121.833C278.289 121.784 278.321 121.73 278.283 121.836C278.288 121.816 278.292 121.797 278.294 121.777C278.305 121.728 278.321 121.682 278.336 121.635C278.367 121.537 278.285 121.727 278.336 121.639C278.35 121.614 278.362 121.587 278.377 121.562C278.39 121.541 278.404 121.522 278.417 121.501C278.463 121.427 278.431 121.518 278.405 121.515C278.44 121.482 278.473 121.447 278.504 121.411C278.526 121.39 278.581 121.371 278.523 121.391C278.46 121.413 278.526 121.389 278.546 121.376C278.598 121.352 278.649 121.323 278.698 121.291C278.697 121.297 278.587 121.33 278.667 121.304C278.695 121.295 278.723 121.285 278.752 121.277C278.771 121.271 278.79 121.267 278.809 121.262C278.825 121.259 278.916 121.253 278.836 121.255C278.752 121.257 278.854 121.255 278.865 121.254C278.891 121.253 278.917 121.252 278.943 121.253C278.969 121.253 278.994 121.255 279.02 121.256C279.12 121.259 278.927 121.234 279.016 121.256C279.074 121.271 279.13 121.286 279.187 121.304C279.28 121.334 279.12 121.261 279.17 121.297C279.197 121.316 279.231 121.328 279.26 121.345C279.276 121.355 279.293 121.365 279.309 121.376C279.325 121.387 279.341 121.398 279.356 121.41C279.3 121.366 279.291 121.36 279.329 121.391C279.363 121.425 279.397 121.459 279.431 121.493C279.502 121.565 279.375 121.405 279.43 121.489C279.445 121.514 279.462 121.537 279.477 121.562C279.492 121.587 279.505 121.614 279.519 121.639C279.563 121.716 279.489 121.543 279.518 121.635C279.537 121.692 279.552 121.748 279.566 121.806C279.582 121.872 279.543 121.793 279.563 121.772C279.561 121.813 279.563 121.854 279.57 121.895C279.57 122.018 279.619 122.137 279.706 122.225C279.794 122.312 279.913 122.361 280.036 122.361C280.16 122.361 280.279 122.312 280.366 122.225C280.454 122.137 280.503 122.018 280.503 121.895C280.499 121.57 280.396 121.253 280.208 120.988C280.019 120.723 279.755 120.521 279.449 120.41C279.151 120.305 278.827 120.292 278.522 120.374C278.216 120.455 277.942 120.627 277.736 120.867C277.57 121.059 277.453 121.289 277.395 121.536C277.337 121.783 277.34 122.041 277.403 122.287C277.467 122.532 277.588 122.759 277.758 122.948C277.929 123.137 278.142 123.281 278.38 123.37C278.618 123.458 278.874 123.488 279.126 123.456C279.378 123.424 279.618 123.332 279.827 123.187C280.036 123.042 280.206 122.849 280.324 122.624C280.441 122.399 280.503 122.149 280.503 121.895C280.503 121.771 280.454 121.652 280.366 121.565C280.279 121.477 280.16 121.428 280.036 121.428C279.913 121.428 279.794 121.477 279.706 121.565C279.619 121.652 279.57 121.771 279.57 121.895L279.57 121.895Z" fill="black"/>
<path d="M270.865 197.483L223.593 196.382C224.452 193.068 230.17 180.131 230.635 175.757C231.332 169.212 231.299 163.294 230.682 159.319L277.141 160.802L281.609 153.235C282.262 152.13 283.191 151.214 284.306 150.578C285.421 149.941 286.683 149.607 287.967 149.607H294.639V146.231C296.375 146.231 298.068 146.761 299.493 147.751C300.918 148.741 302.007 150.142 302.612 151.768L302.907 153.086C302.998 153.489 302.996 153.908 302.903 154.311C302.81 154.714 302.627 155.091 302.368 155.413C302.11 155.736 301.782 155.997 301.409 156.176C301.036 156.355 300.627 156.448 300.214 156.448H293.395" fill="#8066FF"/>
<path d="M270.865 196.55L266.168 196.441L254.886 196.178L241.234 195.86L229.426 195.586L225.53 195.495C224.913 195.448 224.294 195.434 223.676 195.452C223.648 195.453 223.62 195.452 223.593 195.45L224.493 196.631C224.975 194.993 225.546 193.382 226.203 191.806C227.098 189.471 228.013 187.144 228.882 184.799C229.685 182.632 230.482 180.45 231.08 178.217C231.808 175.499 231.896 172.615 232.013 169.819C232.216 166.231 232.071 162.632 231.582 159.071L230.682 160.252L235.294 160.399L246.375 160.753L259.786 161.181L271.392 161.551C273.273 161.611 275.179 161.766 277.061 161.732C277.088 161.732 277.114 161.734 277.14 161.735C277.303 161.735 277.464 161.692 277.605 161.611C277.746 161.53 277.864 161.413 277.946 161.273L282.056 154.313C282.933 152.829 284.02 151.557 285.7 150.948C287.157 150.42 288.704 150.54 290.227 150.54H294.639C294.886 150.537 295.121 150.437 295.295 150.263C295.47 150.089 295.569 149.853 295.573 149.607V146.231L294.639 147.164C296.564 147.166 298.417 147.898 299.822 149.213C300.527 149.881 301.102 150.675 301.516 151.554C301.737 152.095 301.895 152.659 301.985 153.236C302.268 154.548 301.284 155.51 300.019 155.516C298.871 155.521 297.723 155.516 296.575 155.516H293.395C292.194 155.516 292.192 157.381 293.395 157.381C295.653 157.381 297.916 157.427 300.174 157.381C300.705 157.38 301.23 157.265 301.713 157.044C302.197 156.823 302.627 156.502 302.976 156.101C303.325 155.7 303.584 155.23 303.737 154.721C303.889 154.212 303.931 153.677 303.859 153.15C303.606 151.357 302.815 149.683 301.589 148.349C300.703 147.39 299.628 146.624 298.433 146.099C297.237 145.574 295.945 145.302 294.639 145.298C294.393 145.302 294.158 145.401 293.983 145.576C293.809 145.75 293.71 145.985 293.706 146.231V149.607L294.639 148.674H290.673C289.139 148.674 287.52 148.55 286.016 148.906C284.9 149.187 283.852 149.691 282.937 150.387C282.021 151.084 281.256 151.959 280.688 152.959C279.932 154.237 279.177 155.515 278.423 156.794L276.335 160.331L277.141 159.869L272.528 159.722L261.448 159.368L248.037 158.94L236.431 158.57C234.55 158.51 232.644 158.355 230.761 158.389C230.735 158.389 230.709 158.387 230.682 158.386C230.54 158.389 230.399 158.424 230.272 158.489C230.145 158.553 230.034 158.646 229.947 158.759C229.86 158.873 229.801 159.005 229.772 159.145C229.744 159.284 229.747 159.429 229.783 159.567C230.189 162.586 230.324 165.634 230.187 168.677C230.134 170.549 230.018 172.42 229.848 174.285C229.806 174.738 229.763 175.191 229.714 175.643C229.709 175.692 229.664 176.036 229.698 175.807C229.684 175.9 229.669 175.993 229.653 176.086C229.585 176.482 229.496 176.875 229.398 177.265C228.263 181.82 226.37 186.207 224.685 190.578C223.92 192.392 223.255 194.247 222.693 196.135C222.657 196.273 222.653 196.418 222.682 196.558C222.71 196.698 222.769 196.83 222.856 196.944C222.943 197.057 223.054 197.15 223.182 197.214C223.309 197.279 223.45 197.313 223.593 197.316L228.29 197.425L239.571 197.687L253.223 198.005L265.032 198.28C266.94 198.324 268.873 198.461 270.782 198.414C270.81 198.413 270.837 198.415 270.865 198.416C272.067 198.444 272.066 196.578 270.865 196.55Z" fill="black"/>
<path d="M223.764 196.343C225.36 196.513 227.158 192.984 228.586 187.477L220.914 186.604C221.146 192.32 222.163 196.173 223.764 196.343Z" fill="black"/>
<path d="M223.764 197.276C225.264 197.397 226.335 195.795 226.961 194.662C228.085 192.463 228.933 190.133 229.485 187.725C229.52 187.587 229.524 187.442 229.495 187.302C229.466 187.163 229.407 187.031 229.32 186.918C229.234 186.804 229.123 186.712 228.995 186.647C228.868 186.582 228.728 186.547 228.585 186.544L220.913 185.671C220.666 185.672 220.429 185.771 220.254 185.946C220.08 186.12 219.981 186.357 219.98 186.604C220.084 189.074 220.265 191.641 220.989 194.019C221.419 195.431 222.128 197.061 223.764 197.276C224.011 197.275 224.247 197.176 224.422 197.002C224.597 196.827 224.696 196.59 224.697 196.343C224.691 196.098 224.59 195.864 224.417 195.69C224.243 195.517 224.009 195.417 223.764 195.411C224.056 195.449 223.872 195.414 223.806 195.401C223.654 195.371 223.943 195.481 223.855 195.423C223.813 195.403 223.773 195.38 223.733 195.354C223.576 195.225 223.886 195.507 223.734 195.357C223.656 195.28 223.58 195.206 223.508 195.123C223.358 194.952 223.611 195.285 223.481 195.083C223.446 195.029 223.41 194.976 223.377 194.921C223.043 194.349 222.802 193.727 222.663 193.08C222.156 190.957 221.883 188.786 221.846 186.604L220.913 187.537L228.585 188.41L227.685 187.229C227.192 189.363 226.464 191.437 225.514 193.411C225.236 194.001 224.875 194.548 224.44 195.035C224.392 195.084 224.082 195.349 224.27 195.21C224.182 195.275 224.085 195.325 223.995 195.385C223.858 195.478 224.124 195.349 224.027 195.376C223.992 195.386 223.929 195.425 223.891 195.417C223.706 195.381 224.105 195.466 223.923 195.416C223.87 195.41 223.817 195.408 223.763 195.411C223.516 195.413 223.28 195.512 223.105 195.686C222.931 195.861 222.832 196.097 222.83 196.344C222.835 196.59 222.935 196.824 223.109 196.998C223.283 197.172 223.518 197.272 223.764 197.276Z" fill="black"/>
<path d="M277.219 142.189C279.315 142.73 281.493 142.878 283.642 142.624L277.219 142.189Z" fill="#14F195"/>
<path d="M276.971 143.088C279.224 143.702 281.578 143.85 283.89 143.524C284.128 143.457 284.329 143.298 284.451 143.084C284.574 142.869 284.606 142.615 284.542 142.376C284.47 142.141 284.311 141.942 284.098 141.821C283.884 141.7 283.632 141.665 283.394 141.724C282.668 141.815 281.936 141.846 281.206 141.818C280.862 141.808 280.519 141.788 280.176 141.758C280.009 141.743 279.842 141.726 279.675 141.707C279.596 141.698 279.516 141.688 279.437 141.678C279.266 141.657 279.651 141.711 279.366 141.668C278.726 141.582 278.092 141.455 277.467 141.289C277.229 141.223 276.973 141.254 276.758 141.377C276.543 141.499 276.385 141.702 276.319 141.94C276.253 142.179 276.285 142.434 276.407 142.649C276.53 142.864 276.732 143.022 276.971 143.088Z" fill="black"/>
<path d="M166.938 116.475C167.71 105.223 168.177 99.0955 168.176 92.5154C168.176 85.9352 172.964 84.9638 174.552 91.4892C176.069 102.014 174.563 120.459 174.563 120.459" fill="#F8F5ED"/>
<path d="M167.872 116.475C168.255 110.892 168.683 105.309 168.936 99.718C169.032 97.5865 169.096 95.4534 169.108 93.3198C169.05 92.126 169.18 90.9307 169.492 89.777C169.613 89.3951 169.788 89.0324 170.011 88.6999C170.173 88.4653 170.382 88.2671 170.625 88.118C170.652 88.1016 170.897 88.0026 170.705 88.0722C170.782 88.0443 170.86 88.0241 170.939 88.0037C171.181 87.9411 170.758 87.9972 171.008 87.9944C171.089 87.9936 171.168 87.9928 171.249 87.9996C171.047 87.9826 171.418 88.0487 171.488 88.0728C171.636 88.1415 171.778 88.2256 171.909 88.3236C172.552 88.9339 173.03 89.6973 173.298 90.5425C173.645 91.6546 173.851 92.806 173.91 93.9695C174.018 95.1172 174.096 96.2677 174.153 97.4191C174.395 102.273 174.314 107.144 174.119 111.998C174.005 114.82 173.86 117.644 173.631 120.459C173.533 121.656 175.4 121.65 175.497 120.459C176.159 112.902 176.338 105.31 176.034 97.7299C175.978 96.523 175.9 95.3168 175.79 94.1137C175.732 92.8477 175.537 91.5918 175.207 90.3681C174.616 88.5321 173.328 86.1241 171.088 86.1268C168.929 86.1295 167.79 88.4212 167.449 90.2515C167.27 91.4883 167.198 92.7385 167.236 93.9878C167.224 95.109 167.2 96.23 167.162 97.3507C166.954 103.733 166.442 110.105 166.005 116.475C165.923 117.674 167.79 117.669 167.872 116.475Z" fill="black"/>
<path d="M160.63 115.378C161.402 104.126 161.868 97.9989 161.868 91.4187C161.868 84.8385 166.656 83.8671 168.243 90.3925C169.76 100.917 168.03 120.459 168.03 120.459" fill="#F8F5ED"/>
<path d="M161.563 115.378C161.956 109.653 162.399 103.929 162.646 98.1955C162.742 95.9822 162.793 93.768 162.801 91.5529C162.749 90.4059 162.942 89.2609 163.368 88.1945C163.52 87.8429 163.736 87.5229 164.006 87.251C164.177 87.0791 164.393 86.9596 164.63 86.9065C164.872 86.8439 164.45 86.9 164.699 86.8973C164.78 86.8964 164.86 86.8955 164.941 86.9024C164.752 86.8865 165.174 86.9695 165.26 87.0059C165.083 86.9309 165.35 87.0628 165.36 87.0696C165.441 87.1217 165.524 87.1682 165.6 87.2266C165.606 87.2312 165.861 87.4712 165.956 87.5759C166.703 88.4925 167.189 89.5943 167.361 90.7644C167.672 92.9559 167.84 95.1653 167.864 97.3786C168.03 102.262 167.897 107.156 167.654 112.035C167.514 114.845 167.345 117.656 167.097 120.459C167.099 120.706 167.198 120.942 167.373 121.116C167.547 121.291 167.783 121.39 168.03 121.392C168.276 121.387 168.511 121.287 168.685 121.113C168.859 120.939 168.959 120.705 168.964 120.459C169.182 117.984 169.336 115.503 169.469 113.023C169.741 107.943 169.897 102.846 169.743 97.7592C169.687 95.3377 169.504 92.9208 169.195 90.5184C168.92 88.4984 167.663 85.6076 165.432 85.1073C163.267 84.6221 161.823 86.6057 161.305 88.4455C161.005 89.7265 160.88 91.042 160.932 92.3564C160.924 93.4968 160.903 94.6371 160.868 95.7772C160.701 101.397 160.274 107.008 159.887 112.616C159.823 113.536 159.76 114.457 159.697 115.378C159.614 116.577 161.481 116.571 161.563 115.378Z" fill="black"/>
<path d="M160.877 121.391C160.877 121.391 162.631 106.674 161.114 96.1498C159.527 89.6243 154.739 90.5957 154.739 97.1759C154.739 102.623 154.914 103.572 154.345 114.779H153.874C152.431 114.779 151.048 115.352 150.028 116.371C149.007 117.391 148.434 118.774 148.434 120.216V132.815" fill="#F8F5ED"/>
<path d="M161.81 121.392C162.11 118.866 162.296 116.322 162.44 113.783C162.793 108.693 162.755 103.584 162.327 98.4997C162.103 96.1831 161.757 93.6937 160.069 91.9324C158.865 90.6757 157.059 90.3919 155.695 91.5651C154.117 92.9217 153.808 95.3413 153.805 97.2879C153.803 98.6743 153.822 100.061 153.829 101.447C153.849 105.895 153.636 110.339 153.411 114.779L154.344 113.847C152.005 113.847 149.899 114.72 148.557 116.706C147.791 117.943 147.423 119.384 147.5 120.836V132.815C147.5 134.016 149.367 134.018 149.367 132.815V121.693C149.304 120.816 149.354 119.934 149.515 119.069C149.801 117.982 150.484 117.041 151.428 116.431C152.307 115.908 153.322 115.657 154.344 115.712C154.59 115.708 154.825 115.608 154.999 115.434C155.173 115.26 155.273 115.025 155.277 114.779C155.481 110.765 155.683 106.746 155.696 102.725C155.7 101.519 155.687 100.313 155.679 99.1071C155.667 97.4015 155.505 95.5435 156.238 93.9524C156.365 93.66 156.535 93.3884 156.742 93.1467C156.784 93.1016 157.076 92.8378 156.968 92.9195C157.04 92.8648 157.421 92.6767 157.267 92.7329C157.335 92.7081 157.7 92.642 157.49 92.6605C157.558 92.6545 157.928 92.6822 157.725 92.6482C158.004 92.6741 158.266 92.7923 158.471 92.9842C159.057 93.534 159.504 94.2157 159.774 94.9727C160.159 96.0829 160.387 97.2411 160.452 98.4141C160.87 103.248 160.925 108.107 160.619 112.95C160.474 115.767 160.277 118.59 159.944 121.392C159.945 121.639 160.044 121.875 160.218 122.05C160.393 122.225 160.63 122.323 160.877 122.325C161.123 122.319 161.357 122.219 161.53 122.045C161.704 121.872 161.804 121.638 161.81 121.392Z" fill="black"/>
<path d="M147.19 122.013C147.961 110.762 148.429 107.541 148.429 100.961C148.428 94.3807 153.216 93.4094 154.804 99.9348C156.321 110.459 155.589 113.535 155.589 113.535H156.864C157.539 113.535 158.206 113.673 158.826 113.941C159.445 114.208 160.003 114.6 160.465 115.092C160.927 115.583 161.283 116.164 161.512 116.798C161.741 117.433 161.838 118.107 161.796 118.78L161.045 130.922L166.866 134.787" fill="#F8F5ED"/>
<path d="M148.123 122.014C148.406 117.899 148.748 113.788 149.037 109.674C149.244 106.707 149.319 103.749 149.364 100.776C149.357 99.8441 149.508 98.9173 149.809 98.0349C149.913 97.7558 150.046 97.4881 150.204 97.2357C150.265 97.1233 150.342 97.0206 150.433 96.9311C150.476 96.8841 150.522 96.8394 150.567 96.7933C150.571 96.7881 150.79 96.6047 150.658 96.7039C150.762 96.6269 150.873 96.5602 150.99 96.5046C151.121 96.4415 150.86 96.5486 150.996 96.5041C151.06 96.483 151.125 96.4657 151.19 96.4487C151.234 96.4374 151.368 96.4285 151.18 96.4449C151.233 96.4403 151.287 96.4379 151.34 96.4377C151.34 96.4377 151.6 96.4565 151.458 96.4387C151.339 96.4238 151.588 96.471 151.618 96.4797C151.673 96.4954 151.727 96.5125 151.78 96.5331C151.93 96.5911 151.596 96.4297 151.841 96.5671C151.952 96.6268 152.059 96.6941 152.161 96.7687C152.374 96.9579 152.568 97.1678 152.74 97.3954C154.031 99.1868 154.113 101.545 154.353 103.658C154.563 105.5 154.729 107.348 154.8 109.2C154.854 110.307 154.846 111.417 154.778 112.523C154.767 112.674 154.752 112.824 154.738 112.975C154.732 113.035 154.721 113.095 154.717 113.155C154.708 113.283 154.772 112.854 154.729 113.062C154.713 113.136 154.707 113.213 154.689 113.287C154.653 113.426 154.649 113.57 154.678 113.71C154.706 113.851 154.765 113.982 154.852 114.096C154.939 114.21 155.05 114.302 155.178 114.367C155.305 114.431 155.446 114.466 155.589 114.468C156.684 114.468 157.764 114.398 158.762 114.944C159.396 115.288 159.926 115.796 160.297 116.414C160.669 117.033 160.868 117.739 160.873 118.46C160.874 119.857 160.71 121.269 160.623 122.662L160.215 129.255C160.182 129.789 160.11 130.336 160.115 130.871C160.122 131.582 160.841 131.904 161.361 132.25L166.395 135.593C167.398 136.259 168.334 134.644 167.337 133.982L161.516 130.116L161.978 130.922L162.442 123.431L162.694 119.36C162.865 117.879 162.512 116.384 161.695 115.137C160.893 113.987 159.71 113.157 158.356 112.793C157.445 112.612 156.515 112.548 155.589 112.602L156.489 113.783C156.717 112.487 156.784 111.168 156.687 109.857C156.641 107.97 156.484 106.086 156.281 104.21C156.018 101.78 155.904 99.1989 154.7 97.0148C153.985 95.7201 152.704 94.4277 151.1 94.5878C149.479 94.7496 148.482 96.1719 147.986 97.5998C147.347 99.4441 147.511 101.449 147.472 103.368C147.442 104.874 147.378 106.378 147.287 107.88C147.004 112.595 146.58 117.301 146.256 122.013C146.174 123.212 148.041 123.207 148.123 122.013L148.123 122.014Z" fill="black"/>
<path d="M159.633 130.017L202.446 158.419L224.631 159.127L230.682 159.32C231.299 163.295 231.332 169.213 230.636 175.758C230.097 180.67 229.151 185.529 227.807 190.284C190.312 188.516 177.093 177.574 177.093 177.574L136.09 143.968L131.014 127.611L135.058 111.047" fill="#F8F5ED"/>
<path d="M159.161 130.822L161.826 132.59L168.579 137.07L177.691 143.115L187.336 149.514L195.676 155.046L201 158.578C201.312 158.786 201.62 159.024 201.948 159.207C202.385 159.451 203.064 159.371 203.548 159.387L213.077 159.691L223.061 160.009L229.247 160.207L230.681 160.252L229.781 159.568C230.263 163.247 230.372 166.965 230.106 170.666C229.887 174.88 229.366 179.072 228.549 183.212C228.096 185.508 227.562 187.789 226.906 190.035L227.806 189.351C220.397 189.037 213.017 188.225 205.717 186.919C200.577 186.001 195.511 184.708 190.561 183.05C189.621 182.729 188.687 182.391 187.759 182.036C187.336 181.873 186.915 181.707 186.495 181.536C186.302 181.458 186.11 181.378 185.917 181.298C185.863 181.276 185.81 181.253 185.756 181.231C185.771 181.237 185.878 181.282 185.779 181.241C185.675 181.196 185.57 181.152 185.466 181.107C184.163 180.546 182.878 179.942 181.623 179.281C180.296 178.601 179.021 177.824 177.808 176.957C177.525 176.751 177.966 177.093 177.764 176.924C177.727 176.893 177.689 176.862 177.65 176.831C177.193 176.458 176.737 176.083 176.28 175.708L169.778 170.379L160.227 162.551L149.995 154.165L141.42 147.137L136.953 143.476L136.749 143.309L136.989 143.72L132.54 129.386L131.913 127.363V127.859L135.453 113.361L135.957 111.296C136.242 110.13 134.442 109.632 134.157 110.8L130.861 124.299L130.206 126.984C130.091 127.369 130.092 127.778 130.207 128.162L132.209 134.614L134.674 142.557C134.927 143.373 135.044 144.312 135.726 144.872L143.439 151.193L156.955 162.271L170.059 173.01C172.173 174.743 174.273 176.494 176.401 178.208C177.626 179.156 178.935 179.988 180.312 180.696C184.674 182.97 189.264 184.779 194.005 186.092C202.336 188.516 210.965 189.877 219.595 190.657C222.328 190.903 225.065 191.09 227.807 191.217C228.01 191.215 228.208 191.147 228.37 191.024C228.532 190.9 228.65 190.728 228.706 190.532C231.111 182.257 232.244 173.665 232.068 165.05C232.035 163.049 231.872 161.052 231.581 159.072C231.526 158.875 231.408 158.702 231.246 158.579C231.084 158.455 230.886 158.388 230.681 158.387L221.768 158.103L206.696 157.622L202.445 157.486L202.916 157.613L198.652 154.785L188.416 147.994L176.083 139.812L165.377 132.71C163.653 131.566 161.961 130.308 160.176 129.259C160.151 129.245 160.127 129.227 160.103 129.211C159.099 128.545 158.163 130.161 159.161 130.822Z" fill="black"/>
<path d="M141.43 118.341C142.202 107.089 142.669 100.962 142.669 94.3814C142.668 87.8012 147.456 86.8298 149.044 93.3553C150.561 103.88 149.056 122.325 149.056 122.325" fill="#F8F5ED"/>
<path d="M142.364 118.34C142.747 112.757 143.176 107.174 143.428 101.583C143.525 99.4514 143.588 97.3183 143.6 95.1847C143.543 93.991 143.672 92.7956 143.984 91.6419C144.105 91.26 144.28 90.8973 144.504 90.5649C144.665 90.3302 144.875 90.132 145.118 89.9829C145.144 89.9665 145.389 89.8675 145.197 89.9372C145.274 89.9092 145.352 89.889 145.431 89.8686C145.673 89.806 145.251 89.8621 145.5 89.8594C145.581 89.8585 145.661 89.8577 145.741 89.8645C145.54 89.8476 145.911 89.9136 145.98 89.9378C146.129 90.0065 146.27 90.0905 146.401 90.1885C147.044 90.7989 147.522 91.5623 147.79 92.4074C148.137 93.5195 148.343 94.6709 148.402 95.8344C148.511 96.9821 148.588 98.1329 148.645 99.284C148.887 104.138 148.807 109.009 148.611 113.863C148.497 116.685 148.352 119.509 148.123 122.324C148.025 123.521 149.892 123.514 149.989 122.324C150.651 114.767 150.831 107.175 150.527 99.5948C150.47 98.3879 150.393 97.1818 150.282 95.9786C150.224 94.7126 150.029 93.4567 149.699 92.2331C149.108 90.3971 147.82 87.9891 145.58 87.9918C143.421 87.9944 142.282 90.2861 141.941 92.1164C141.762 93.3532 141.69 94.6034 141.728 95.8527C141.716 96.9739 141.692 98.0949 141.654 99.2156C141.445 105.598 140.934 111.97 140.497 118.34C140.415 119.538 142.282 119.533 142.364 118.34L142.364 118.34Z" fill="black"/>
<path d="M135.122 117.244C135.894 105.992 136.361 99.8647 136.361 93.2845C136.36 86.7044 141.149 85.7329 142.736 92.2583C144.253 102.783 142.523 122.324 142.523 122.324" fill="#F8F5ED"/>
<path d="M136.056 117.244C136.449 111.519 136.891 105.795 137.139 100.061C137.234 97.848 137.286 95.6339 137.294 93.4187C137.242 92.2717 137.435 91.1267 137.861 90.0603C138.012 89.7087 138.229 89.3886 138.499 89.1168C138.669 88.9449 138.886 88.8254 139.122 88.7723C139.365 88.7096 138.942 88.7658 139.192 88.763C139.273 88.7622 139.352 88.7614 139.433 88.7682C139.244 88.7523 139.667 88.8354 139.753 88.8718C139.575 88.7967 139.842 88.9286 139.853 88.9354C139.933 88.9876 140.016 89.034 140.093 89.0924C140.099 89.097 140.353 89.337 140.448 89.4416C141.196 90.3582 141.682 91.4601 141.854 92.6302C142.165 94.8217 142.333 97.0311 142.357 99.2444C142.522 104.128 142.389 109.022 142.146 113.901C142.006 116.711 141.837 119.522 141.59 122.325C141.592 122.571 141.69 122.808 141.865 122.982C142.04 123.157 142.276 123.256 142.523 123.257C142.769 123.252 143.003 123.153 143.177 122.979C143.351 122.805 143.451 122.57 143.456 122.325C143.675 119.85 143.829 117.369 143.962 114.889C144.234 109.808 144.39 104.712 144.236 99.625C144.18 97.2035 143.997 94.7865 143.688 92.3841C143.413 90.3642 142.156 87.4734 139.924 86.9731C137.759 86.4878 136.315 88.4715 135.797 90.3113C135.498 91.5922 135.372 92.9077 135.424 94.2222C135.417 95.3626 135.396 96.5029 135.361 97.6429C135.193 103.263 134.766 108.874 134.379 114.481C134.316 115.402 134.252 116.323 134.189 117.244C134.107 118.442 135.974 118.437 136.056 117.244Z" fill="black"/>
<path d="M135.369 123.257C135.369 123.257 137.123 108.54 135.606 98.0157C134.018 91.4902 129.23 92.4616 129.23 99.0418C129.231 104.489 128.85 118.964 128.281 130.17C128.177 132.197 128.531 134.22 129.317 136.091C130.103 137.962 131.301 139.632 132.821 140.977L141.431 148.589" fill="#F8F5ED"/>
<path d="M136.301 123.258C136.931 117.884 137.214 112.476 137.15 107.066C137.129 105.002 137.047 102.938 136.866 100.882C136.689 98.8741 136.492 96.8933 135.501 95.0962C134.838 93.8946 133.749 92.7562 132.302 92.6601C130.989 92.5727 129.895 93.4803 129.279 94.5657C128.431 96.0594 128.301 97.8133 128.296 99.4931C128.291 100.884 128.271 102.276 128.246 103.667C128.177 107.608 128.075 111.55 127.942 115.49C127.799 119.905 127.625 124.318 127.418 128.731C127.314 130.894 127.315 132.981 127.958 135.075C128.591 137.13 129.67 139.02 131.118 140.61C132.475 141.982 133.904 143.281 135.399 144.5L140.446 148.962L140.77 149.249C141.667 150.042 142.992 148.727 142.09 147.93L133.721 140.531C131.275 138.454 129.691 135.54 129.279 132.358C129.045 130.311 129.313 128.195 129.404 126.144C129.498 124.017 129.583 121.891 129.661 119.764C129.916 112.796 130.058 105.829 130.164 98.8575C130.185 97.471 130.433 95.8377 131.367 94.8744C131.494 94.7374 131.652 94.6322 131.828 94.5674C131.657 94.6427 131.945 94.5418 131.991 94.5299C132.035 94.5186 132.168 94.5096 131.98 94.5261C132.047 94.5188 132.114 94.5167 132.181 94.5198C132.321 94.5371 132.458 94.5701 132.591 94.6182C132.787 94.7188 132.967 94.8481 133.125 95.0018C134.271 96.1027 134.668 97.8313 134.843 99.3449C135.072 101.318 135.191 103.303 135.249 105.288C135.399 111.185 135.139 117.085 134.47 122.946C134.458 123.05 134.447 123.154 134.434 123.257C134.436 123.504 134.535 123.741 134.709 123.916C134.884 124.09 135.121 124.189 135.368 124.19C135.613 124.185 135.847 124.085 136.021 123.911C136.195 123.737 136.295 123.503 136.301 123.258Z" fill="black"/>
<path d="M155.735 109.261C155.735 109.261 155.589 118.511 154.967 122.864L155.735 109.261Z" fill="#F8F5ED"/>
<path d="M154.801 109.26C154.73 113.682 154.671 118.315 154.066 122.616C154.008 122.854 154.044 123.105 154.165 123.319C154.286 123.532 154.484 123.691 154.718 123.763C154.956 123.827 155.211 123.795 155.425 123.673C155.64 123.551 155.798 123.35 155.866 123.112C156.509 118.544 156.594 113.868 156.667 109.26C156.686 108.059 154.82 108.059 154.801 109.26Z" fill="black"/>
<path d="M296.505 244.141C296.505 244.141 300.238 257.201 308.326 255.335C309.224 268.359 310.857 281.322 313.217 294.162C315.465 306.635 320.408 318.468 327.7 328.836L373.963 394.648" fill="#F8F5ED"/>
<path d="M296.055 244.264C296.529 245.847 297.156 247.381 297.928 248.842C299.211 251.327 300.987 253.889 303.546 255.187C305.06 255.955 306.796 256.166 308.45 255.785L307.859 255.335C308.491 265.346 309.686 275.318 311.24 285.226C311.931 289.634 312.611 294.068 313.615 298.419C314.659 302.945 316.064 307.381 317.817 311.683C320.365 317.918 323.611 323.844 327.493 329.349L330.886 334.176L337.501 343.587L346.039 355.733L355.2 368.765L363.683 380.833L370.189 390.088C371.265 391.618 372.332 393.156 373.417 394.68C373.465 394.747 373.512 394.815 373.56 394.883C373.902 395.37 374.712 394.905 374.366 394.412L372.155 391.267L366.377 383.047L358.272 371.518L349.203 358.617L340.419 346.12L333.2 335.851L328.829 329.633C326.189 325.931 323.815 322.046 321.726 318.008C317.499 309.706 314.854 300.891 313.259 291.737C311.6 282.217 310.261 272.636 309.384 263.011C309.152 260.455 308.954 257.897 308.792 255.335C308.791 255.264 308.773 255.194 308.741 255.13C308.709 255.066 308.662 255.011 308.606 254.968C308.549 254.924 308.483 254.894 308.413 254.88C308.343 254.866 308.271 254.868 308.202 254.885C302.612 256.112 299.125 249.911 297.475 245.54C297.286 245.039 297.103 244.532 296.955 244.016C296.919 243.901 296.839 243.804 296.733 243.746C296.626 243.688 296.502 243.674 296.385 243.706C296.268 243.738 296.169 243.814 296.107 243.918C296.046 244.022 296.027 244.146 296.055 244.264Z" fill="black"/>
<path d="M270.219 248.338L241.223 296.877C234.489 308.151 230.035 320.636 228.115 333.626L216.523 412.025" fill="#F8F5ED"/>
<path d="M269.817 248.103L264.952 256.247L254.44 273.845L244.404 290.645C242.165 294.392 239.852 298.11 237.845 301.988C232.72 311.914 229.272 322.618 227.641 333.668C227.199 336.652 226.758 339.635 226.317 342.619L223.615 360.897L220.436 382.397L217.645 401.276L216.143 411.431L216.074 411.901C215.987 412.488 216.886 412.742 216.974 412.149L218.025 405.043L220.572 387.816L223.734 366.425L226.641 346.767L228.39 334.939C229.556 326.713 231.694 318.654 234.758 310.931C237.167 304.957 240.276 299.374 243.57 293.861L252.595 278.752L263.512 260.478L270.286 249.138L270.623 248.574C270.681 248.467 270.694 248.343 270.662 248.226C270.629 248.11 270.552 248.01 270.448 247.949C270.343 247.888 270.219 247.87 270.101 247.899C269.984 247.928 269.882 248.001 269.817 248.103Z" fill="black"/>
<path d="M269.069 112.011C277.054 112.276 286.258 111.94 286.258 111.94L286.506 124.62C286.506 120.501 289.771 114.923 292.725 114.923C295.678 114.923 297.948 115.918 297.948 120.145C297.948 122.943 295.602 127.819 293.968 129.096L299.44 136.058C299.44 136.058 311.131 119.647 311.131 108.707L311.129 102.1C311.128 99.6928 310.234 97.3713 308.62 95.5845C307.006 93.7978 304.787 92.6729 302.391 92.4272L298.994 92.0789C297.58 89.5342 295.51 87.4139 293.001 85.9376C290.491 84.4614 287.632 83.6829 284.72 83.6829H275.973C273.409 83.6812 270.882 84.2838 268.595 85.4418C266.308 86.5997 264.326 88.2805 262.811 90.3475C260.407 90.7399 258.221 91.974 256.643 93.8293C255.066 95.6845 254.199 98.0401 254.199 100.475C254.199 100.475 251.277 111.419 269.069 112.011Z" fill="#FF4569"/>
<path d="M269.069 112.943C274.792 113.13 280.534 113.08 286.257 112.872L285.324 111.939L285.541 123.033L285.573 124.62C285.581 124.862 285.683 125.091 285.857 125.259C286.031 125.427 286.264 125.521 286.506 125.521C286.748 125.521 286.981 125.427 287.155 125.259C287.329 125.091 287.431 124.862 287.439 124.62C287.519 122.486 288.182 120.415 289.355 118.63C289.838 117.818 290.46 117.096 291.192 116.498C291.723 116.043 292.412 115.814 293.111 115.862C294.539 115.908 295.874 116.262 296.539 117.558C297.407 119.252 296.99 121.369 296.413 123.077C296.031 124.202 295.539 125.287 294.945 126.315C294.533 127.116 293.978 127.835 293.308 128.436C293.137 128.613 293.042 128.849 293.042 129.095C293.042 129.341 293.137 129.578 293.308 129.755L298.78 136.717C299.184 137.231 299.937 136.961 300.245 136.528C301.539 134.71 302.725 132.807 303.866 130.89C306.271 126.945 308.315 122.791 309.972 118.478C310.805 116.324 311.416 114.091 311.796 111.814C311.999 110.337 312.088 108.847 312.062 107.356C312.061 103.765 312.494 99.9367 310.595 96.7072C309.867 95.4754 308.9 94.4015 307.751 93.5487C306.602 92.6959 305.295 92.0814 303.904 91.7414C302.282 91.4368 300.641 91.2378 298.993 91.1456L299.799 91.6077C298.092 88.5571 295.502 86.0933 292.37 84.5393C289.855 83.3309 287.095 82.7184 284.305 82.7496H278.24C276.071 82.7496 273.934 82.7319 271.807 83.256C267.87 84.2582 264.404 86.5988 262.005 89.8761L262.563 89.4474C260.631 89.791 258.821 90.6314 257.312 91.8858C255.804 93.1402 254.647 94.7654 253.957 96.6018C253.605 97.5564 253.386 98.5548 253.305 99.5691C253.283 99.8155 253.275 100.061 253.266 100.308C253.267 100.301 253.3 100.192 253.296 100.236C253.294 100.261 253.282 100.285 253.278 100.311C253.228 100.685 253.15 101.055 253.117 101.434C252.812 104.988 254.666 108.229 257.631 110.122C260.977 112.259 265.186 112.805 269.069 112.943C270.27 112.986 270.268 111.12 269.069 111.077C266.234 110.977 263.359 110.629 260.699 109.593C259.083 109.015 257.647 108.024 256.533 106.719C256.483 106.659 256.434 106.597 256.385 106.536C256.494 106.676 256.36 106.499 256.324 106.448C256.224 106.306 256.127 106.162 256.035 106.015C255.864 105.734 255.708 105.445 255.568 105.148C255.543 105.096 255.447 104.867 255.541 105.094C255.516 105.033 255.49 104.972 255.467 104.91C255.415 104.769 255.363 104.629 255.318 104.486C255.231 104.216 255.158 103.941 255.1 103.663C255.072 103.532 255.049 103.401 255.027 103.269C254.974 102.96 255.032 103.393 255.002 103.084C254.98 102.85 254.962 102.616 254.956 102.38C254.948 102.006 254.963 101.632 255 101.26C255.016 101.092 255.039 101.041 254.995 101.277C255.007 101.216 255.012 101.154 255.023 101.094C255.039 101.006 255.056 100.919 255.072 100.832C255.199 100.155 255.151 99.4576 255.283 98.7755C255.544 97.4111 256.104 96.1211 256.921 94.9975C257.738 93.874 258.794 92.9444 260.012 92.2752C260.63 91.9373 261.285 91.6725 261.965 91.4859C262.3 91.3932 262.644 91.3451 262.979 91.2603C263.468 91.1367 263.694 90.6989 263.994 90.3321C265.44 88.5446 267.268 87.1033 269.344 86.1141C271.42 85.125 273.691 84.6129 275.99 84.6156C278.899 84.6044 281.808 84.6044 284.718 84.6156C287.002 84.6159 289.258 85.1237 291.322 86.1022C293.385 87.0808 295.206 88.5057 296.652 90.2738C297.141 90.8724 297.583 91.5084 297.973 92.1759C298.232 92.6153 298.443 92.9462 298.993 93.0117C299.067 93.0205 299.14 93.0266 299.214 93.0344C301.107 93.2355 303.119 93.2516 304.89 94.0237C306.153 94.579 307.271 95.4205 308.153 96.4816C309.035 97.5427 309.659 98.7944 309.974 100.138C310.358 101.789 310.195 103.605 310.195 105.288C310.196 106.911 310.27 108.558 310.131 110.178C309.845 112.756 309.222 115.285 308.276 117.7C307.327 120.244 306.215 122.725 304.947 125.126C303.163 128.565 301.17 131.891 298.981 135.088C298.866 135.255 298.751 135.422 298.634 135.587L300.1 135.398L294.627 128.436V129.755C295.38 129.08 296.007 128.278 296.481 127.385C297.105 126.314 297.631 125.189 298.054 124.023C298.845 121.871 299.28 119.379 298.399 117.178C297.593 115.161 295.818 114.235 293.735 114.035C292.763 113.897 291.772 114.053 290.889 114.484C289.953 115.015 289.141 115.739 288.507 116.609C286.697 118.897 285.668 121.704 285.573 124.62H287.439L287.221 113.526L287.19 111.939C287.187 111.693 287.088 111.457 286.914 111.283C286.739 111.109 286.504 111.009 286.257 111.006C280.534 111.215 274.792 111.264 269.069 111.077C267.867 111.038 267.869 112.904 269.069 112.943Z" fill="black"/>
<path d="M261.976 90.5238H272.599C273.511 90.5238 274.404 90.7882 275.168 91.285C275.933 91.7817 276.537 92.4895 276.907 93.3225" fill="#FF4569"/>
<path d="M261.975 91.457C265.49 91.457 269.006 91.4357 272.521 91.457C273.281 91.452 274.026 91.671 274.663 92.0865C275.299 92.5021 275.8 93.0958 276.101 93.7937C276.227 94.006 276.432 94.1602 276.671 94.2228C276.91 94.2854 277.164 94.2515 277.378 94.1283C277.587 93.9993 277.738 93.7948 277.801 93.5571C277.863 93.3195 277.832 93.0669 277.713 92.8519C277.299 91.9705 276.665 91.2107 275.872 90.646C275.079 90.0813 274.153 89.7308 273.185 89.6284C272.541 89.5796 271.895 89.5672 271.249 89.5912H261.975C260.774 89.5912 260.772 91.457 261.975 91.457Z" fill="black"/>
</g>
<defs>
<clipPath id="clip0_998_2353">
<rect width="461.701" height="320" fill="white" transform="translate(-34)"/>
</clipPath>
</defs>
</svg>
